SplineFontDB: 2.0
FontName: THMaliGrade6
FullName: THMaliGrade6
FamilyName: TH Mali Grade 6
Weight: Book
Copyright: Copyright (c) 2006 by Department of Intellectual Property (DIP), Ministry of Commerce and Software Industry Promotion Agency (Public Organization) (SIPA). All rights reserved.
Version: 1.1
ItalicAngle: 0
UnderlinePosition: -55
UnderlineWidth: 50
Ascent: 1638
Descent: 410
NeedsXUIDChange: 1
XUID: [1021 375 425136265 10787122]
FSType: 0
OS2Version: 3
OS2_WeightWidthSlopeOnly: 0
OS2_UseTypoMetrics: 1
CreationTime: 1152588240
ModificationTime: 1200642852
PfmFamily: 17
TTFWeight: 400
TTFWidth: 5
LineGap: 123
VLineGap: 0
Panose: 2 0 5 6 0 0 0 2 0 4
OS2TypoAscent: 0
OS2TypoAOffset: 1
OS2TypoDescent: 0
OS2TypoDOffset: 1
OS2TypoLinegap: 0
OS2WinAscent: -35
OS2WinAOffset: 1
OS2WinDescent: 190
OS2WinDOffset: 1
HheadAscent: -35
HheadAOffset: 1
HheadDescent: 239
HheadDOffset: 1
OS2SubXSize: 1434
OS2SubYSize: 1331
OS2SubXOff: 0
OS2SubYOff: 287
OS2SupXSize: 1434
OS2SupYSize: 1331
OS2SupXOff: 0
OS2SupYOff: 977
OS2StrikeYSize: 49
OS2StrikeYPos: 399
OS2FamilyClass: 773
OS2Vendor: 'IPTH'
Lookup: 4 0 0 "'frac' Diagonal Fractions in Latin lookup 0"  {"'frac' Diagonal Fractions in Latin lookup 0 subtable"  } ['frac' ('latn' <'dflt' > ) ]
Lookup: 6 0 0 "'liga' Standard Ligatures in Latin lookup 1"  {"'liga' Standard Ligatures in Latin lookup 1 subtable"  } ['liga' ('latn' <'dflt' > ) ]
Lookup: 6 0 0 "'liga' Standard Ligatures in Latin lookup 2"  {"'liga' Standard Ligatures in Latin lookup 2 subtable"  } ['liga' ('latn' <'dflt' > ) ]
Lookup: 6 0 0 "'liga' Standard Ligatures in Latin lookup 3"  {"'liga' Standard Ligatures in Latin lookup 3 subtable"  } ['liga' ('latn' <'dflt' > ) ]
Lookup: 6 0 0 "'liga' Standard Ligatures in Latin lookup 4"  {"'liga' Standard Ligatures in Latin lookup 4 subtable"  } ['liga' ('latn' <'dflt' > ) ]
Lookup: 6 0 0 "'liga' Standard Ligatures in Latin lookup 5"  {"'liga' Standard Ligatures in Latin lookup 5 subtable"  } ['liga' ('latn' <'dflt' > ) ]

StartChar: .notdef
Encoding: 65536 -1 0
Width: 1811
VWidth: 3622
Flags: W
HStem: 25 99<1064.89 1452> 48 90<296.094 456.039 456.039 811.169 811.169 1077.5> 2402 90<683.385 1474.3> 2413 97<308.056 593.447>
VStem: 218 69<138 372.239 372.239 804.386> 232 72<1085.49 1336 1336 1858.73 1858.73 2194.9 2194.9 2412.81> 1452 73<124 686.875> 1475 67<2054.34 2402>
Fore
1514 2503 m 0x24
 1538 2503 1542 2496 1542 2475 c 2
 1542 2311 l 2x25
 1542 2036 1539 2036 1539 1624 c 0
 1539 1038 1525 228 1525 73 c 1
 1526 69 1526 64 1526 61 c 0
 1526 37 1513 25 1486 25 c 0xa2
 1212 38 938 48 573 48 c 0
 475 48 310 47 246 35 c 1
 221 35 218 47 218 65 c 2
 218 224 l 2x4a
 218 307 218 406 220 522 c 2
 223 908 l 2
 224 1049 225 1192 225 1336 c 0
 225 1883 232 2154 232 2366 c 2
 232 2464 l 2
 232 2500 245 2510 330 2510 c 0x54
 443 2510 686 2492 1199 2492 c 0
 1335 2492 1454 2495 1514 2503 c 0x24
1141 2402 m 2
 648 2402 324 2413 320 2413 c 0x11
 310 2413 308 2412 308 2402 c 0
 308 2318 304 2233 304 1980 c 0x25
 304 1487 287 322 287 138 c 1x68
 390 135 503 134 626 134 c 0
 732 132 856 131 998 131 c 0
 1139 131 1291 129 1452 124 c 1x8a
 1452 124 1466 2327 1475 2402 c 1
 1141 2402 l 2
EndSplineSet
EndChar
StartChar: exclam
Encoding: 33 33 4
Width: 560
VWidth: 3622
Flags: W
HStem: 18 196<194.716 357.635>
VStem: 177 196<35.1707 152.025 1267.32 1479.37> 235 80<352 501.685>
Fore
271 1496 m 0xa0
 299 1496 361 1481 366 1417 c 2
 315 352 l 1
 309 331 294 320 269 320 c 0
 251 320 240 331 235 352 c 1
 184 1417 l 2
 187 1484 245 1496 271 1496 c 0xa0
279 214 m 0
 361 214 373 140 373 111 c 0
 369 59 331 18 279 18 c 0
 209 18 177 74 177 120 c 0xc0
 177 170 214 214 279 214 c 0
EndSplineSet
EndChar
StartChar: quotedbl
Encoding: 34 34 5
Width: 785
VWidth: 3622
Flags: W
HStem: 1254 488<498.596 538.745 236 519 522 522>
VStem: 180 107<1565.11 1740.86> 200 65<1286 1420.89> 467 106<1570.98 1741.04> 485 65<1286 1415.02>
Fore
236 1742 m 0xc0
 250 1742 287 1734 287 1700 c 2xc0
 265 1286 l 1
 253 1250 210 1241 200 1286 c 1xa0
 180 1700 l 2
 180 1734 221 1742 236 1742 c 0xc0
522 1742 m 0
 536 1742 573 1734 573 1700 c 2x90
 550 1286 l 2
 547 1265 536 1254 519 1254 c 0
 502 1254 490 1265 485 1286 c 1x88
 467 1700 l 2x90
 467 1734 507 1742 522 1742 c 0
EndSplineSet
EndChar
StartChar: numbersign
Encoding: 35 35 6
Width: 1303
VWidth: 3622
Flags: W
HStem: 573 83<239.006 412 501 775 865 1060.99> 941 81<316.661 463 550 840 927 1089.76>
VStem: 239 851<613 976 613 887> 370 79<259.011 304> 739 73<294 341.616>
Fore
785 656 m 1xc0
 840 941 l 1
 539 941 l 1
 501 653 l 1
 785 656 l 1xc0
773 266 m 0
 764 266 739 269 739 291 c 0
 739 323 751 417 775 573 c 1
 488 573 l 1
 449 294 l 2
 445 270 428 259 410 259 c 0
 390 259 370 274 370 299 c 2
 370 304 l 1xd8
 412 573 l 1
 279 573 l 2
 247 573 239 601 239 613 c 0
 239 625 247 653 279 653 c 2
 421 653 l 1
 463 946 l 1
 356 946 l 1
 330 951 316 973 316 993 c 0
 316 1012 327 1029 352 1029 c 2
 474 1029 l 1
 515 1293 l 2
 520 1323 533 1337 557 1337 c 0
 573 1337 592 1330 592 1302 c 0
 592 1298 592 1294 591 1289 c 2
 550 1026 l 1
 847 1026 l 1
 899 1314 l 2
 902 1335 919 1344 937 1344 c 0
 959 1344 983 1331 983 1310 c 0
 983 1308 982 1306 982 1304 c 2
 927 1022 l 1
 1051 1022 l 1
 1077 1017 1090 1002 1090 976 c 0xe0
 1090 953 1077 941 1051 941 c 2
 916 941 l 1
 865 656 l 1
 1026 656 l 2
 1057 653 1061 622 1061 613 c 0
 1061 599 1054 573 1026 573 c 2
 854 573 l 1
 812 294 l 1xc8
 804 274 788 266 773 266 c 0
EndSplineSet
EndChar
StartChar: dollar
Encoding: 36 36 7
Width: 1383
VWidth: 3622
Flags: W
HStem: 73 378<227 667> 757 65<510.225 659.885 659.885 667 754 859.414> 1466 66<494.511 667 754 851.041>
VStem: 252 72<981.521 1306.43> 667 87<-141.964 73 138 743 822 1459 1532 1734.96> 1014 65<1118.16 1295.56> 1029 66<254.558 602.727>
Fore
252 1153 m 0xfa
 252 1322 376 1520 667 1532 c 1
 667 1687 l 2
 667 1723 692 1735 708 1735 c 0
 722 1735 754 1725 754 1687 c 2
 754 1525 l 1
 836 1515 1071 1456 1079 1151 c 1
 1072 1115 1052 1109 1040 1109 c 0
 1024 1109 1016 1120 1014 1141 c 0xfc
 998 1332 875 1440 754 1459 c 1
 754 812 l 1
 845 794 1095 734 1095 424 c 0
 1095 312 1047 96 754 73 c 1
 754 -94 l 2
 754 -132 722 -142 708 -142 c 0
 692 -142 667 -130 667 -94 c 2
 667 73 l 1
 256 89 202 387 202 428 c 0
 202 443 210 451 227 451 c 0
 237 451 265 449 269 421 c 0
 282 359 340 151 667 138 c 1
 667 754 l 1
 656 754 659 757 653 757 c 0
 304 792 252 1043 252 1153 c 0xfa
667 1466 m 1
 423 1456 324 1292 324 1140 c 0
 324 939 491 847 667 822 c 1
 667 1466 l 1
754 138 m 1
 919 151 1029 244 1029 405 c 0xfa
 1029 594 953 702 754 743 c 1
 754 138 l 1
EndSplineSet
EndChar
StartChar: percent
Encoding: 37 37 8
Width: 1742
VWidth: 3622
Flags: W
HStem: 104 76<1105.61 1339.45> 543 80<1099.54 1342.04> 946 76<415.61 653.037> 1383 80<410.872 654.04>
VStem: 272 80<1084.52 1323.78> 713 65<1085.25 1321.79> 960 80<246.17 484.425> 1403 63<244.724 482.295>
Fore
1174 1584 m 0
 1198 1584 1213 1562 1213 1543 c 0
 1213 1534 1210 1524 1203 1514 c 1
 598 28 l 1
 579 6 560 -5 541 -5 c 0
 527 -5 509 1 509 23 c 0
 509 31 511 40 515 51 c 2
 1130 1555 l 2
 1138 1570 1152 1584 1174 1584 c 0
536 1463 m 0
 709 1463 778 1313 778 1199 c 0
 778 1123 736 946 536 946 c 0
 336 946 272 1116 272 1206 c 256
 272 1290 325 1463 536 1463 c 0
539 1022 m 0
 638 1022 704 1099 713 1196 c 0
 713 1253 679 1383 539 1383 c 0
 418 1383 352 1298 352 1210 c 0
 352 1118 414 1022 539 1022 c 0
1224 623 m 0
 1397 623 1466 473 1466 359 c 0
 1466 282 1423 104 1224 104 c 0
 1027 104 960 273 960 366 c 256
 960 450 1013 623 1224 623 c 0
1228 180 m 0
 1333 180 1392 269 1403 356 c 0
 1403 416 1365 543 1228 543 c 0
 1117 543 1040 469 1040 370 c 0
 1040 280 1100 180 1228 180 c 0
EndSplineSet
EndChar
StartChar: ampersand
Encoding: 38 38 9
Width: 1466
VWidth: 3622
Flags: W
HStem: 25 83<439.086 766.735> 1360 83<394.971 687.089>
VStem: 188 100<260.763 632.023> 223 88<1045.85 1278.8> 775 88<1027.76 1271.1> 1108 93<397.647 659.447>
Fore
288 438 m 0xec
 288 273 390 108 616 108 c 0
 807 108 896 186 934 232 c 1
 861 275 657 400 497 764 c 1
 370 750 288 599 288 438 c 0xec
311 1142 m 0xdc
 311 1089 339 919 547 895 c 1
 746 914 775 1077 775 1132 c 0
 775 1197 743 1360 535 1360 c 0
 356 1360 311 1217 311 1142 c 0xdc
1113 256 m 1
 1235 145 1359 145 1359 94 c 0
 1359 72 1333 51 1314 51 c 1
 1314 51 1195 71 1054 203 c 1
 841 30 680 25 610 25 c 0
 336 25 188 225 188 449 c 0xec
 188 641 294 797 460 840 c 1
 277 870 223 1038 223 1142 c 0
 223 1250 288 1443 548 1443 c 0
 818 1443 863 1215 863 1125 c 0
 863 1061 836 852 577 815 c 1
 717 494 878 374 1010 290 c 1
 1107 382 1108 473 1108 511 c 0
 1108 628 1066 723 1066 726 c 0
 1066 740 1084 755 1104 755 c 0
 1176 755 1201 594 1201 525 c 0
 1201 390 1148 303 1113 256 c 1
EndSplineSet
EndChar
StartChar: quotesingle
Encoding: 39 39 10
Width: 417
VWidth: 3622
Flags: W
HStem: 1029 457<210 239 210 210>
VStem: 156 104<1301.03 1485.03> 173 66<999.884 1169.97>
Fore
210 1486 m 0xc0
 225 1486 260 1477 260 1442 c 2xc0
 239 1029 l 1
 230 989 183 983 173 1029 c 1xa0
 156 1442 l 2
 156 1473 191 1486 210 1486 c 0xc0
EndSplineSet
EndChar
StartChar: parenleft
Encoding: 40 40 11
Width: 864
VWidth: 3622
Flags: W
VStem: 138 97<319.154 947.608> 138 462
Fore
550 1559 m 0x80
 566 1559 600 1543 600 1493 c 0x40
 600 1470 593 1456 577 1445 c 1
 368 1235 235 958 235 633 c 0
 235 311 362 45 573 -173 c 0
 596 -199 598 -217 598 -228 c 0
 598 -256 578 -276 551 -276 c 0
 538 -276 525 -271 511 -260 c 0
 269 -11 138 276 138 633 c 0
 138 1000 286 1312 525 1551 c 1
 534 1557 542 1559 550 1559 c 0x80
EndSplineSet
EndChar
StartChar: parenright
Encoding: 41 41 12
Width: 864
VWidth: 3622
Flags: W
VStem: 242 460 605 97<407.68 942.143>
Fore
289 -276 m 0x40
 261 -276 242 -254 242 -228 c 0x80
 242 -209 250 -192 269 -173 c 0
 601 171 605 520 605 633 c 0
 605 985 449 1257 265 1445 c 1
 241 1459 240 1478 240 1493 c 0
 240 1549 281 1559 291 1559 c 0
 299 1559 307 1557 315 1551 c 1
 554 1312 702 1000 702 633 c 0
 702 276 571 -11 329 -260 c 0
 315 -271 302 -276 289 -276 c 0x40
EndSplineSet
EndChar
StartChar: asterisk
Encoding: 42 42 13
Width: 1061
VWidth: 3622
Flags: MW
VStem: 518 83<656.021 960 1098 1242.75 1242.75 1434.81>
Fore
877 1248 m 0
 903 1248 909 1222 909 1212 c 0
 909 1198 900 1187 881 1178 c 2
 623 1029 l 1
 895 874 l 1
 905 865 910 856 910 845 c 0
 910 829 896 805 875 805 c 0
 869 805 862 807 854 812 c 2
 601 960 l 1
 601 692 l 2
 601 663 580 656 564 656 c 0
 541 656 522 669 522 692 c 2
 518 968 l 1
 276 826 l 2
 269 823 264 821 258 821 c 0
 233 821 226 854 226 862 c 0
 226 872 231 881 239 888 c 1
 474 1029 l 1
 203 1189 l 2
 189 1198 182 1208 182 1219 c 0
 182 1234 196 1257 217 1257 c 0
 224 1257 231 1255 239 1251 c 2
 518 1090 l 1
 518 1210 515 1270 515 1390 c 0
 517 1420 529 1435 551 1435 c 0
 579 1435 594 1419 594 1390 c 2
 598 1098 l 1
 844 1238 l 2
 857 1244 868 1248 877 1248 c 0
EndSplineSet
EndChar
StartChar: plus
Encoding: 43 43 14
Width: 1123
VWidth: 3622
Flags: MW
HStem: 702 87<205.314 373.5 373.5 375 375 522 605 663.73 663.73 668.7 666.215 858.66>
VStem: 525 77<401.668 496.331 496.331 676.106 676.106 702 778 806.654 806.654 874.315 840.484 1011.56 950.715 1072.41>
Fore
562 387 m 0
 532 387 525 409 525 432 c 2
 525 702 l 1
 225 713 l 2
 206 716 196 730 196 754 c 256
 196 777 206 789 225 789 c 2
 522 778 l 1
 522 892 521 911 521 968 c 0
 521 1053 513 1090 566 1090 c 0
 592 1090 605 1080 605 1061 c 0
 605 1019 598 974 598 836 c 0
 598 809 599 790 601 778 c 1
 684 778 696 777 720 777 c 0
 804 777 858 796 879 796 c 0
 906 796 910 767 910 752 c 0
 910 732 910 707 733 707 c 0
 682 707 643 709 605 709 c 1
 605 695 605 675 604 649 c 2
 602 568 l 2
 601 511 599 454 596 426 c 0
 596 403 585 387 562 387 c 0
EndSplineSet
EndChar
StartChar: comma
Encoding: 44 44 15
Width: 622
VWidth: 3622
Flags: W
HStem: -192 54<133.808 141.523 137.666 332.521> 28 58<285.234 409.242> 237 58<286.096 422.607>
VStem: 88 407 221 58<108.347 211.779> 435 60<30.0635 223.894>
Fore
196 -192 m 0xec
 142 -192 88 -177 88 -156 c 0xf0
 88 -142 98 -138 108 -138 c 1
 131 -142 153 -143 175 -143 c 0
 319 -143 424 -53 435 69 c 1
 418 42 384 28 353 28 c 0
 307 28 221 65 221 167 c 0
 221 237 278 295 354 295 c 0
 439 295 495 214 495 116 c 0
 495 -11 393 -192 196 -192 c 0xec
348 237 m 0
 295 237 279 186 279 162 c 0
 279 141 290 86 347 86 c 0
 385 86 435 115 435 157 c 0xec
 435 195 393 237 348 237 c 0
EndSplineSet
EndChar
StartChar: hyphen
Encoding: 45 45 16
Width: 1050
VWidth: 3622
Flags: W
HStem: 724 93<796.555 893.847> 724 86<180.183 319.228 319.228 357.5 338.364 878.219>
VStem: 180 714<747.14 795.539>
Fore
894 774 m 0xa0
 894 744 888 724 539 724 c 0
 446 724 336 727 209 734 c 0
 190 737 180 751 180 774 c 0
 180 798 190 810 209 810 c 2x60
 506 796 l 2
 863 809 854 817 863 817 c 0
 890 817 894 788 894 774 c 0xa0
EndSplineSet
EndChar
StartChar: period
Encoding: 46 46 17
Width: 622
VWidth: 3622
Flags: W
HStem: 12 188<274.986 377.76>
VStem: 211 184<65.8173 183.06>
Fore
211 103 m 0
 211 181 285 200 307 200 c 0
 342 200 395 160 395 103 c 0
 395 58 354 12 299 12 c 0
 228 12 211 71 211 103 c 0
EndSplineSet
EndChar
StartChar: slash
Encoding: 47 47 18
Width: 1068
VWidth: 3622
Flags: W
VStem: 188 649
Fore
800 1794 m 0
 823 1794 837 1774 837 1754 c 0
 837 1745 834 1736 830 1725 c 2
 272 -11 l 2
 264 -35 239 -46 216 -46 c 0
 193 -46 188 -28 188 -16 c 0
 188 -9 190 -2 193 7 c 2
 761 1756 l 2
 766 1776 777 1794 800 1794 c 0
EndSplineSet
EndChar
StartChar: zero
Encoding: 48 48 19
Width: 1268
VWidth: 3622
Flags: W
HStem: 25 95<403.756 827.787> 1279 97<437.389 811.096>
VStem: 69 101<400.313 941.467> 1086 96<406.763 950.757>
Fore
69 656 m 0
 69 893 180 1376 623 1376 c 256
 1020 1376 1182 992 1182 656 c 0
 1182 335 989 25 616 25 c 0
 178 25 69 437 69 656 c 0
612 120 m 0
 938 120 1086 345 1086 656 c 0
 1086 1110 856 1279 626 1279 c 0
 261 1279 170 912 170 656 c 0
 170 412 258 120 612 120 c 0
EndSplineSet
EndChar
StartChar: one
Encoding: 49 49 20
Width: 933
VWidth: 3622
Flags: MW
VStem: 557 106<24.5312 696 696 1251>
Fore
602 23 m 0
 582 23 557 29 557 55 c 2
 564 536 l 1
 557 1251 l 1
 545 1224 526 1194 500 1162 c 2
 421 1068 l 2
 368.411 1012.12 318 961 296 961 c 0
 286 961 247 972 247 1003 c 0
 247 1058 372 1086 539 1394 c 0
 543 1403 550 1407 558 1407 c 0
 587 1407 643 1354 649 1334 c 1
 663 58 l 2
 663 30 620 23 602 23 c 0
EndSplineSet
EndChar
StartChar: two
Encoding: 50 50 21
Width: 1155
VWidth: 3622
Flags: W
HStem: 18 84<256 381.048 381.048 450.413 415.731 818.975> 1394 76<384.64 750.041>
VStem: 159 76<1051.42 1231.22> 902 83<876.215 1239.06>
Fore
557 1470 m 0
 832 1470 985 1296 985 1068 c 0
 985 865 870 678 681 564 c 0
 375 384 256 185 256 90 c 1
 407 99 497 102 557 102 c 0
 641 102 766 97 975 83 c 0
 1004 78 1006 57 1006 48 c 0
 1006 31 992 4 975 4 c 0
 883 13 666 18 511 18 c 0
 393 18 276 15 156 11 c 0
 147 11 142 14 142 21 c 0
 155 149 241 384 626 619 c 0
 791 725 902 891 902 1072 c 0
 902 1182 842 1394 564 1394 c 0
 435 1394 258 1346 235 1058 c 0
 233 1044 220 1037 195 1037 c 0
 171 1037 159 1052 159 1083 c 0
 159 1291 339 1470 557 1470 c 0
EndSplineSet
EndChar
StartChar: three
Encoding: 51 51 22
Width: 1199
VWidth: 3622
Flags: MW
HStem: 0 73<408.538 865.818> 709 69<640 816.803> 1351 76<502.309 865.928>
VStem: 97 76<301.656 546.143> 265 78<985.961 1205.24> 1003 76<965.543 1224.42> 1037 72<226.229 550.64>
Fore
306 934 m 0
 266 934 265 1058 265 1063 c 0
 265 1281 462 1427 681 1427 c 0
 906 1427 1079 1265 1079 1068 c 0
 1079 1001 1057 807 851 754 c 1
 1052 706 1109 516 1109 373 c 0
 1109 237 1004 -0 663 0 c 0
 239 0 97 203 97 508 c 0
 97 545 109 564 134 564 c 0
 160 564 173 551 173 525 c 0
 173 163 422 73 646 73 c 0
 938 73 1037 247 1037 363 c 0
 1037 640 837 709 656 709 c 0
 623 709 615 739 615 752 c 0
 615 766 623 774 640 778 c 0
 849 802 1003 888 1003 1090 c 0
 1003 1211 900 1351 685 1351 c 256
 493 1351 343 1229 343 1055 c 0
 343 1030 346 1003 352 975 c 1
 348 946 323 934 306 934 c 0
EndSplineSet
EndChar
StartChar: four
Encoding: 52 52 23
Width: 1155
VWidth: 3622
Flags: W
HStem: 11 21G<788.5 814> 461 80<283 502.954 314.319 682.276 665.454 699.097 699.097 778> 485 79<861 1103.75> 1439 20G<650.5 665.5>
VStem: 33 91<530.689 631.422> 764 76<23.5178 263.992> 778 76<259.208 467 564 708.799> 805 76<909.201 1097.11>
Fore
655 1459 m 0xda
 676 1459 699 1445 699 1420 c 0
 699 1387 639 1364 362 967 c 2
 256 812 l 1
 183 695 l 2
 168 669 124 592 124 588 c 0
 124 564 214 553 283 548 c 2
 389 541 l 2
 464 538 540 536 617 536 c 0
 699 536 750 538 782 543 c 1
 805 1075 l 2xd9
 805 1100 817 1113 840 1113 c 0xdc
 868 1113 881 1096 881 1068 c 2xd9
 861 564 l 1
 1025 584 1090 598 1102 598 c 2
 1105 599 1109 599 1112 599 c 0
 1138 599 1152 577 1152 557 c 0
 1152 549 1149 543 1144 536 c 1
 1144 528 1075 523 854 485 c 1xba
 840 44 l 2
 840 22 827 11 801 11 c 0
 776 11 764 24 764 51 c 2xbc
 778 467 l 1
 689 461 578 461 556 461 c 0
 229 461 33 498 33 557 c 0
 33 604 272 1050 630 1449 c 0
 638 1456 646 1459 655 1459 c 0xda
EndSplineSet
EndChar
StartChar: five
Encoding: 53 53 24
Width: 1213
VWidth: 3622
Flags: MW
HStem: -1 69<370.267 776.087> 884 73<383.57 794.082> 1355 92<345 424.661 424.661 448.454 436.557 851.494> 1373 72<851.909 992.897>
VStem: 131 91<215.482 460.591 422.454 498.729> 228 97<934 1084.89> 1014 69<283.467 665.097>
Fore
594 884 m 0
 448 884 314 840 228 808 c 1
 235 958 241 1075 246 1160 c 2
 256 1348 l 2
 261 1435 265 1435 265 1445 c 1
 266 1446 273 1447 285 1447 c 0
 329 1447 471 1434 710 1434 c 0
 847 1434 930 1445 984 1445 c 0
 1000 1445 1008 1436 1008 1418 c 0
 1008 1382 986 1375 978 1373 c 0
 851 1358 723 1350 552 1350 c 0
 482 1350 413 1352 345 1355 c 1
 325 934 l 1
 431 952 501 957 593 957 c 0
 919 957 1083 766 1083 456 c 0
 1076 83 777 -1 564 -1 c 0
 332 -1 131 108 131 364 c 0
 131 458 141 499 181 499 c 0
 197 499 225 490 225 453 c 0
 223 432 222 411 222 392 c 0
 222 176 358 68 558 68 c 0
 787 68 1014 197 1014 460 c 0
 1014 701 864 884 594 884 c 0
EndSplineSet
EndChar
StartChar: six
Encoding: 54 54 25
Width: 1257
VWidth: 3622
Flags: MW
HStem: -0 72<414.323 854.349> 757 65<416.408 846.088> 1065 21G<1060 1083> 1344 73<495.453 865.06>
VStem: 104 73<556.008 940.878> 1033 69<233.737 568.927>
Fore
663 1417 m 0
 916 1417 1000 1335 1106 1102 c 1
 1106 1077 1094 1065 1072 1065 c 0
 1048 1065 1032 1076 1022 1098 c 0
 978 1211 890 1344 692 1344 c 0
 313 1344 177 955 177 631 c 0
 177 603 178 576 180 550 c 1
 251 779 453 822 649 822 c 0
 979 822 1102 562 1102 405 c 0
 1102 294 1067 200 996 122 c 0
 924 41 802 -0 634 -0 c 0
 244 -0 104 247 104 653 c 0
 104 1096 328 1417 663 1417 c 0
649 757 m 0
 423 757 228 654 228 442 c 0
 228 302 302 72 622 72 c 0
 968 72 1033 278 1033 391 c 0
 1033 474 993 757 649 757 c 0
EndSplineSet
EndChar
StartChar: seven
Encoding: 55 55 26
Width: 1155
VWidth: 3622
Flags: MW
HStem: 681 83<833 884.44 884.44 897.6 897.6 1001.93> 1373 86<220.502 737.002>
VStem: 822 84<1070.96 1294.1>
Fore
487 29 m 0
 487 66 567 60 732 681 c 1
 536 666 559 655 513 655 c 0
 486 655 474 675 474 686 c 0
 474 735 561 735 590 741 c 2
 638 750 l 2
 673 756 684 757 754 768 c 1
 795 942 l 2
 813 1017 822 1088 822 1155 c 0
 822 1260 789 1373 515 1373 c 0
 369 1373 194 1314 124 1314 c 0
 78 1314 69 1338 69 1348 c 0
 69 1396 387 1459 529 1459 c 0
 711 1459 906 1402 906 1174 c 0
 906 1092 876 947 833 764 c 1
 889 764 931 766 961 766 c 0
 1017 766 1037 759 1037 721 c 0
 1037 690 972 685 936 685 c 0
 914 685 870 684 805 681 c 1
 755 514 l 2
 672 232 577 5 518 5 c 0
 502 5 487 16 487 29 c 0
EndSplineSet
EndChar
StartChar: eight
Encoding: 56 56 27
Width: 1238
VWidth: 3622
Flags: W
HStem: 0 76<384.472 868.7> 826 76<482.01 764.003> 1362 76<477.364 770.79>
VStem: 69 76<289.272 615.103> 304 76<991.653 1268.45> 851 76<991.094 1279.63> 1079 76<269.756 606.356>
Fore
927 1148 m 0
 927 1029 900 964 830 884 c 1
 997 809 1155 674 1155 439 c 0
 1155 134 899 -0 623 0 c 0
 348 0 69 144 69 460 c 0
 69 627 164 775 417 877 c 1
 348 940 304 1031 304 1134 c 0
 304 1326 464 1438 623 1438 c 0
 767 1438 927 1351 927 1148 c 0
1079 435 m 0
 1079 637 917 826 630 826 c 0
 352 826 145 661 145 467 c 0
 145 234 335 76 623 76 c 0
 985 76 1079 291 1079 435 c 0
630 902 m 0
 766 902 851 1003 851 1148 c 0
 851 1237 793 1362 630 1362 c 0
 471 1362 380 1253 380 1134 c 0
 380 948 534 902 630 902 c 0
EndSplineSet
EndChar
StartChar: nine
Encoding: 57 57 28
Width: 1216
VWidth: 3622
Flags: W
HStem: 4 69<384.039 773.227> 557 76<397.589 790.879> 1366 76<396.361 810.621>
VStem: 94 72<293.648 442> 138 76<821.91 1186.92> 1068 69<492.032 816.762>
Fore
94 432 m 0xf4
 94 468 123 478 137 478 c 0
 152 478 162 466 166 442 c 0xf4
 176 335 252 73 594 73 c 0
 955 73 1068 471 1068 874 c 1
 986 621 758 557 608 557 c 0
 363 557 138 648 138 1014 c 0xec
 138 1181 231 1442 601 1442 c 0
 815 1442 1137 1326 1137 808 c 0
 1137 437 1016 4 601 4 c 0
 274 4 94 207 94 432 c 0xf4
608 633 m 0
 792 633 1014 779 1014 999 c 0
 1014 1093 949 1366 601 1366 c 0
 361 1366 214 1217 214 1017 c 0xec
 214 846 293 633 608 633 c 0
EndSplineSet
EndChar
StartChar: colon
Encoding: 58 58 29
Width: 622
VWidth: 3622
Flags: W
HStem: 90 66<269.689 398.076> 304 66<268.194 401.116> 637 65<245.418 372.919> 851 65<242.523 376.217>
VStem: 170 65<710.514 843.376> 196 64<165.095 295.901> 384 65<713.055 841.576> 409 65<166.361 293.585>
Fore
308 637 m 0xfa
 232 637 170 706 170 778 c 0
 170 852 234 916 308 916 c 0
 388 916 449 850 449 778 c 0
 449 707 388 637 308 637 c 0xfa
304 851 m 0
 276 851 235 814 235 782 c 0
 235 742 277 702 304 702 c 0
 345 702 384 746 384 782 c 0
 384 813 344 851 304 851 c 0
333 90 m 0
 262 90 196 150 196 232 c 0
 196 303 260 370 333 370 c 0
 413 370 474 304 474 232 c 0xf5
 474 152 411 90 333 90 c 0
329 304 m 0
 300 304 260 263 260 235 c 0
 260 195 302 156 329 156 c 0
 371 156 409 199 409 235 c 0
 409 261 373 304 329 304 c 0
EndSplineSet
EndChar
StartChar: semicolon
Encoding: 59 59 30
Width: 622
VWidth: 3622
Flags: W
HStem: -173 39<205.134 293.894> 101 55<266.956 400.865> 311 52<264.746 390.229> 677 66<279.331 405.413> 891 66<276.781 408.375>
VStem: 200 56<164.796 303.294 759.823 875.236> 417 64<754.086 880.898> 452 49<-20.7447 212.778>
Fore
239 -173 m 1xfd
 209 -173 204 -160 204 -151 c 0
 204 -144 209 -138 218 -134 c 1
 400 -95 452 25 452 111 c 0
 452 132 448 154 442 177 c 1
 433 134 388 101 329 101 c 0
 265 101 200 155 200 232 c 0
 200 294 249 363 336 363 c 0
 375 363 412 344 449 306 c 0
 484 270 501 210 501 125 c 0
 501 -113 283 -166 239 -173 c 1xfd
341 677 m 0
 270 677 203 739 203 819 c 0
 203 894 269 957 341 957 c 0
 419 957 481 892 481 819 c 0xfe
 481 740 417 677 341 677 c 0
329 311 m 0
 296 311 256 275 256 239 c 0
 256 192 299 156 329 156 c 0
 376 156 412 197 412 239 c 0
 412 269 381 311 329 311 c 0
336 891 m 0
 309 891 269 853 269 822 c 0
 269 782 309 743 336 743 c 0
 378 743 417 786 417 822 c 0
 417 849 379 891 336 891 c 0
EndSplineSet
EndChar
StartChar: less
Encoding: 60 60 31
Width: 1390
VWidth: 3622
Flags: MW
HStem: 799 151<791.249 1222.99>
VStem: 193 86<497.412 585.432>
Fore
1209 163 m 0
 1209 134 1176 128 1160 128 c 0
 1142 128 1119 134 1090 145 c 0
 888 224 193 386 193 543 c 0
 193 721 1174 950 1174 950 c 1
 1212 950 1232 942 1232 926 c 0
 1232 876 1154 876 907 799 c 2
 698 732 l 2
 422 641 279 581 279 543 c 0
 279 498 458 424 706 351 c 0
 1140 224 1209 234 1209 163 c 0
EndSplineSet
EndChar
StartChar: equal
Encoding: 61 61 32
Width: 1123
VWidth: 3622
Flags: MW
HStem: 547 87<95.4529 394.75> 570 86<718.811 1004.98> 812 88<95.1873 158.5 158.5 997.979>
Fore
998 860 m 0
 998 848 991 819 946 819 c 2
 142 812 l 2
 111 816 95 841 95 860 c 0
 95 876 106 900 151 900 c 0
 156 900 161 899 166 899 c 2
 953 906 l 2
 991 906 998 874 998 860 c 0
1005 610 m 0
 1005 599 998 570 953 570 c 2
 142 547 l 1
 111 551 95 579 95 597 c 0
 95 612 107 634 148 634 c 0
 261 634 928 656 960 656 c 0
 999 656 1005 621 1005 610 c 0
EndSplineSet
EndChar
StartChar: greater
Encoding: 62 62 33
Width: 1390
VWidth: 3622
Flags: MW
VStem: 1137 87<496.422 585.536>
Fore
256 128 m 0
 239 128 207 135 207 163 c 0
 207 218 269 228 329 245 c 0
 727 354 1137 469 1137 543 c 0
 1137 581 982 645 719 732 c 2
 508 799 l 2
 277 871 184 874 184 927 c 0
 184 942 203 950 242 950 c 0
 243 950 1224 718 1224 543 c 0
 1224 486 1157 408 672 256 c 2
 325 145 l 2
 296 134 274 128 256 128 c 0
EndSplineSet
EndChar
StartChar: question
Encoding: 63 63 34
Width: 1093
VWidth: 3622
Flags: W
HStem: 51 170<460.537 608.255> 1424 90<342.987 717.415>
VStem: 131 87<1042.63 1306.22> 449 170<61.886 209.17> 494 86<400.629 502.458> 861 89<949.15 1275.71>
Fore
536 51 m 0xf4
 491 51 449 86 449 138 c 0
 449 180 488 221 536 221 c 0
 583 221 619 180 619 138 c 0
 619 87 581 51 536 51 c 0xf4
547 1424 m 0
 256 1424 218 1250 218 1148 c 0
 218 1053 298 1001 373 978 c 0
 400 968 413 955 413 938 c 0
 413 924 403 895 373 888 c 1
 256 905 131 992 131 1148 c 0
 131 1383 290 1514 543 1514 c 0
 830 1514 950 1290 950 1109 c 0
 950 890 805 834 638 607 c 0
 599 555 580 490 580 412 c 0
 580 387 554 374 532 370 c 1
 508 379 494 402 494 438 c 0xec
 494 474 507 602 588 692 c 0
 757 881 861 934 861 1109 c 0
 861 1220 798 1424 547 1424 c 0
EndSplineSet
EndChar
StartChar: at
Encoding: 64 64 35
Width: 1859
VWidth: 3622
Flags: W
HStem: 4 72<701.731 1255.79> 318 63<1232.11 1283.86 1257.72 1403.46> 327 66<734.881 1012.7> 1083 59<768.039 1047.23> 1387 76<703.597 1189>
VStem: 187 85<485.526 963.554> 538 66<532.229 902.667> 1162 53<527.15 607.487> 1558 76<581.344 1043.59>
Fore
604 729 m 0xbf80
 604 468 763 393 900 393 c 0
 958 393 1085 409 1130 525 c 0
 1146 571 1153 608 1162 729 c 2
 1162 840 l 2
 1150 1033 974 1083 914 1083 c 0
 713 1083 604 878 604 729 c 0xbf80
1320 381 m 0xdf80
 1510 381 1558 738 1558 830 c 0
 1558 1120 1338 1387 937 1387 c 0
 585 1387 272 1124 272 729 c 0
 272 395 509 76 978 76 c 0
 1082 76 1227 105 1265 120 c 1
 1287 112 1293 95 1293 84 c 0
 1293 36 1111 4 977 4 c 0
 527 4 187 295 187 732 c 0
 187 1117 493 1463 946 1463 c 0
 1343 1463 1634 1180 1634 830 c 0
 1634 705 1599 435 1429 336 c 0
 1399 318 1366 309 1329 309 c 0
 1307 309 1285 312 1261 318 c 1
 1255 318 l 0xdf80
 1233 318 1191 323 1148 428 c 1
 1105 359 1024 327 911 327 c 0xbf80
 611 327 538 518 538 737 c 0
 538 926 668 1142 896 1142 c 0
 1070 1142 1146 1043 1185 989 c 1
 1199 1083 l 1
 1205 1100 1216 1109 1233 1109 c 0
 1251 1109 1286 1098 1286 1079 c 1
 1252 983 1215 552 1215 498 c 0
 1215 423 1252 381 1320 381 c 0xdf80
EndSplineSet
EndChar
StartChar: A
Encoding: 65 65 36
Width: 1358
VWidth: 3622
Flags: W
HStem: 421 76<384 888.149> 421 60<512.851 1017 1127 1184.99> 1462 20G<694.5 732.5>
Fore
197 15 m 0x60
 184 15 166 20 166 42 c 0
 166 48 l 1
 301 488 l 1
 530 1164 l 2
 627 1450 676 1482 713 1482 c 0
 752 1482 790 1433 828 1334 c 0
 887 1181 968 927 968 927 c 1
 1036 718 l 2
 1060 643 1087 564 1116 481 c 1
 1159 481 l 1
 1178 476 1185 458 1185 448 c 0
 1185 437 1179 421 1155 421 c 2
 1127 421 l 1
 1228 51 l 1
 1225 29 1210 19 1187 19 c 0
 1168 19 1156 24 1151 35 c 1
 1054 421 l 1
 359 421 l 1
 242 44 l 1
 228 19 208 15 197 15 c 0x60
1017 488 m 1
 761 1297 725 1394 709 1394 c 256
 703 1394 678 1342 614 1161 c 2
 463 729 l 2
 448 680 409 554 384 497 c 1xa0
 1017 488 l 1
EndSplineSet
EndChar
StartChar: B
Encoding: 66 66 37
Width: 1216
VWidth: 3622
Flags: W
HStem: 55 79<101 159> 55 62<235 264.408 264.408 403.008 403.008 426.372 414.69 829.766> 706 69<424.01 519 519 564 785 799.716> 1410 60<354.166 799.877>
VStem: 196 73<525.65 1147.79 1096.27 1199.3 1199.3 1307> 1006 67<278.689 544.002> 1029 64<940.946 1219.44>
Fore
557 46 m 0xbc
 493 46 396 55 235 55 c 1x7c
 228 28 215 14 194 14 c 0
 173 14 162 28 159 55 c 1
 101 55 l 1
 76 59 63 72 63 92 c 0
 63 103 66 127 101 134 c 1
 163 134 l 1
 184 365 196 636 196 906 c 0
 196 1044 195 1177 187 1307 c 1
 165 1307 153 1304 131 1304 c 1
 118 1313 112 1323 112 1334 c 0
 112 1346 119 1373 177 1394 c 0
 275 1433 407 1470 561 1470 c 0
 822 1470 1093 1365 1093 1075 c 0xba
 1093 919 934 771 785 736 c 1
 935 696 1073 570 1073 397 c 0
 1073 303 1047 211 976 156 c 0
 914 107 803 46 557 46 c 0xbc
1006 383 m 0
 1006 628 780 701 529 706 c 2
 456 706 l 2
 425 706 409 718 409 743 c 0
 409 776 422 775 474 775 c 0
 506 773 532 778 564 778 c 0
 746 778 1029 850 1029 1075 c 0x7a
 1029 1276 829 1410 532 1410 c 0
 426 1410 337 1393 265 1358 c 1
 269 1362 l 1
 273 1202 274 1043 274 883 c 0
 274 634 270 421 235 117 c 1
 253 118 272 118 294 118 c 0
 381 118 446 112 511 112 c 0
 736 112 846 156 912 196 c 0
 1003 249 1006 346 1006 383 c 0
EndSplineSet
EndChar
StartChar: C
Encoding: 67 67 38
Width: 1430
VWidth: 3622
Flags: W
HStem: -4 77<529.704 1015.57> 1406 76<581.527 973.674>
VStem: 104 73<419.193 949.921> 1220 73<1272 1356.39 1356.39 1452>
Fore
1224 1440 m 0
 1224 1466 1243 1473 1263 1473 c 0
 1280 1473 1291 1466 1293 1452 c 1
 1293 1334 l 2
 1293 1145 1285 1127 1255 1127 c 0
 1239 1127 1225 1133 1213 1144 c 1
 1039 1356 918 1406 805 1406 c 0
 428 1406 177 1087 177 681 c 256
 177 251 472 73 775 73 c 0
 1186 73 1266 359 1289 497 c 0
 1294 522 1308 534 1331 534 c 0
 1357 534 1369 521 1369 496 c 0
 1369 483 1348 238 1166 108 c 0
 1067 37 937 -4 775 -4 c 0
 447 -4 104 199 104 677 c 0
 104 1214 473 1482 805 1482 c 0
 888 1482 1016 1467 1220 1272 c 1
 1220 1339 1224 1390 1224 1440 c 0
EndSplineSet
EndChar
StartChar: D
Encoding: 68 68 39
Width: 1399
VWidth: 3622
Flags: W
HStem: 11 86<210 267.5 267.5 325 398 418.5 301.865 714.051> 1373 79<204.053 268.431 268.431 283 359 690.915> 1462 20G<309 330.5>
VStem: 287 72<1139.09 1373> 325 73<87 323.912> 1211 89<521.223 964.381>
Fore
406 11 m 0xf4
 201 11 185 21 185 63 c 0
 185 84 194 95 210 97 c 1
 325 83 l 1xec
 287 1373 l 1
 275 1373 l 0
 204 1373 180 1386 180 1415 c 0
 180 1446 216 1453 254 1453 c 0
 262 1453 272 1453 283 1452 c 1
 286 1472 298 1482 320 1482 c 0
 341 1482 354 1472 359 1452 c 1
 901 1443 1272 1206 1300 754 c 0
 1292 299 920 11 406 11 c 0xf4
439 86 m 0
 873 86 1211 390 1211 723 c 0
 1211 1203 786 1368 359 1376 c 1xf4
 398 87 l 1
 412 86 425 86 439 86 c 0
EndSplineSet
EndChar
StartChar: E
Encoding: 69 69 40
Width: 1112
VWidth: 3622
Flags: W
HStem: 30 61<492.268 700.115 481.685 893.446> 49 78<107.21 151.871 125.998 186.318 254.032 415.732> 734 71<134.391 191.908 191.908 210 288.597 345.404 345.404 641.688 641.688 673.305 673.305 859.281> 1380 58<171 207 283 317.675 317.675 371.058 344.367 847.15>
VStem: 218 69<591.434 729 808 899.447 899.447 912.615 912.615 1285.85 1285.85 1292.18 1292.18 1369>
Fore
94 97 m 0x78
 94 114 102 122 119 122 c 0
 131 122 147 119 166 111 c 1
 184 233 192 296 210 729 c 1
 159 736 l 2
 135 736 123 751 123 760 c 1
 123 760 124 803 174 803 c 0
 184 803 196 802 210 801 c 1
 210 865 218 902 218 1028 c 0
 218 1239 210 1345 207 1380 c 1
 197 1380 l 2
 174 1380 159 1389 159 1411 c 0
 159 1429 175 1438 207 1438 c 0
 278 1443 385 1448 562 1448 c 0
 609 1448 929 1446 1017 1427 c 0
 1031 1423 1038 1416 1038 1404 c 0
 1038 1395 1034 1367 999 1362 c 1
 923 1370 661 1379 563 1379 c 0
 468 1379 367 1375 283 1369 c 1
 286 1321 287 1265 287 1202 c 2
 287 1017 l 2
 287 950 286 880 283 808 c 1
 318 806 359 805 405 805 c 2
 550 805 l 2
 647 805 748 804 833 794 c 0
 855 789 860 762 860 749 c 0
 860 734 852 724 810 724 c 0
 769 724 545 734 405 734 c 0
 360 734 321 733 287 729 c 1
 287 688 285 641 282 589 c 2
 270 430 l 2
 254 188 253 203 253 127 c 1x78
 474 112 551 91 730 91 c 0
 817 91 882 97 975 111 c 1
 1006 111 1026 92 1026 80 c 0
 1026 38 889 27 758 27 c 0
 722 27 683 28 642 30 c 2xb8
 266 48 l 2
 240 49 217 49 197 49 c 0
 153 49 147 47 134 47 c 0
 114 47 94 50 94 97 c 0x78
EndSplineSet
EndChar
StartChar: F
Encoding: 70 70 41
Width: 1075
VWidth: 3622
Flags: W
HStem: 692 76<308 436.417 436.417 448.013 442.215 742.275> 1366 68<76.7084 196> 1376 73<279 410.192 410.192 433.769 421.981 896.416>
VStem: 219 60<773.808 1094 1094 1217.2> 228 80<237.909 692 768 1058.64>
Fore
308 440 m 2xa8
 308 127 287 14 256 14 c 2
 223 14 l 2
 212 14 206 21 203 35 c 1
 229 267 228 388 228 692 c 1
 154 665 l 2
 131 657 114 653 101 653 c 0
 82 653 73 664 73 686 c 0
 73 707 80 720 94 725 c 1
 90 725 l 1
 228 750 l 1xa8
 228 873 225 987 219 1094 c 2
 203 1369 l 1
 104 1366 l 2
 74 1366 67 1385 67 1403 c 0
 67 1424 79 1434 104 1434 c 2xd0
 196 1438 l 1
 187 1511 l 2
 187 1541 210 1549 222 1549 c 0
 240 1549 269 1531 269 1496 c 1
 279 1449 l 1
 350 1449 491 1458 633 1458 c 0
 920 1458 1014 1431 1014 1390 c 0
 1014 1374 1003 1361 982 1351 c 1
 896 1368 762 1380 540 1380 c 0
 468 1380 381 1379 279 1376 c 1xb0
 305 1134 308 890 308 768 c 1
 342 768 502 781 650 781 c 0
 655 781 884 781 884 725 c 0
 884 700 873 688 851 688 c 0
 723 699 594 705 530 705 c 0
 460 705 386 701 308 692 c 1
 308 440 l 2xa8
EndSplineSet
EndChar
StartChar: G
Encoding: 71 71 42
Width: 1517
VWidth: 3622
Flags: W
HStem: 7 76<548.121 1003.35> 633 66<1070.96 1168.65 1168.65 1172 1172 1231 1311 1320 1366 1383.87> 1351 80<537.785 1019.85>
VStem: 104 89<468.338 976.597> 1231 80<342.408 619> 1265 58<1234.32 1353.48>
Fore
782 83 m 0xf4
 1141 83 1231 326 1231 619 c 1
 1113 630 l 2
 1053 638 1060 706 1109 706 c 0
 1162 701 1202 699 1227 699 c 2
 1320 699 l 2
 1381 699 1399 690 1394 662 c 0
 1392 643 1382 633 1366 633 c 2
 1311 633 l 1xf8
 1319 355 1205 7 782 7 c 0
 350 7 104 357 104 725 c 0
 104 1107 372 1421 743 1431 c 0
 997 1436 1118 1363 1251 1224 c 1
 1274 1229 1274 1256 1265 1334 c 0
 1262 1353 1271 1362 1292 1362 c 0
 1313 1362 1323 1355 1323 1341 c 1
 1334 1270 1331 1149 1275 1155 c 1
 1244 1150 1216 1158 1192 1177 c 0
 1067 1276 1032 1358 739 1351 c 0
 435 1351 193 1083 193 725 c 0
 193 376 393 83 782 83 c 0xf4
EndSplineSet
EndChar
StartChar: H
Encoding: 72 72 43
Width: 1383
VWidth: 3622
Flags: W
HStem: 612 76<695.472 1093 1171 1281.79> 630 69<117.007 239 322 714.528>
VStem: 1061 80<1289.4 1489.97> 1102 69<23.8484 340.5 340.5 612 688 861.6>
Fore
117 662 m 0x50
 117 677 124 702 152 702 c 2
 249 699 l 1
 311 1463 l 2
 313 1475 320 1498 354 1498 c 0
 376 1498 395 1486 395 1467 c 0
 395 1465 395 1462 394 1459 c 1
 322 699 l 1x50
 1093 688 l 1
 1061 1463 l 2
 1061 1493 1086 1500 1103 1500 c 0
 1137 1500 1141 1483 1141 1466 c 2xa0
 1171 688 l 1
 1254 685 l 2
 1280 682 1293 670 1293 646 c 0
 1293 624 1281 612 1258 612 c 2
 1171 612 l 1
 1182 69 l 2
 1182 36 1159 16 1131 16 c 0
 1108 16 1102 29 1102 48 c 2
 1102 612 l 1x90
 308 626 l 1
 269 25 l 1
 264 11 253 5 236 5 c 0
 221 5 194 9 194 26 c 0
 194 29 195 32 196 35 c 1
 239 630 l 1
 149 633 l 1
 127 637 117 647 117 662 c 0x50
EndSplineSet
EndChar
StartChar: I
Encoding: 73 73 44
Width: 804
VWidth: 3622
Flags: MW
HStem: 21 66<90 148.592 148.592 376.104 500.191 650 650 757.991> 1394 79<243.125 385.815 385.815 421 493 540.708 391.916 715.487 670.998 759.977>
VStem: 377 72<94 1015.16> 421 63<1057.01 1322.68 1322.68 1390>
Fore
289 1394 m 2
 226 1394 103 1386 99 1386 c 0
 60 1386 53 1413 53 1420 c 0
 53 1424 54 1427 55 1431 c 0
 61 1468 416 1473 459 1473 c 0
 729 1473 760 1457 760 1434 c 0
 760 1419 747 1390 725 1390 c 0
 662 1396 616 1399 588 1399 c 0
 561 1399 529 1397 493 1394 c 1
 493 1365 492 1318 490 1251 c 2
 484 1021 l 2
 481 905 462 232 449 94 c 1
 519 82 608 80 626 80 c 0
 642 79 658 78 674 78 c 2
 722 80 l 2
 746 78 758 67 758 49 c 0
 758 32 751 11 722 11 c 2
 90 21 l 1
 73 27 64 37 64 51 c 0
 64 56 69 90 90 90 c 0
 131 88 170 87 207 87 c 2
 300 87 l 2
 332 87 358 89 377 94 c 1
 390 281 421 1179 421 1390 c 1
 394 1393 370 1394 351 1394 c 2
 289 1394 l 2
EndSplineSet
EndChar
StartChar: J
Encoding: 74 74 45
Width: 1017
VWidth: 3622
Flags: W
HStem: 4 69<280.769 577.708> 1387 72<595.017 711.562 711.562 798 877 924.254 759.635 1026.73 991.461 1044.83>
VStem: 51 69<255.568 554.173> 798 79<520.526 908.169 818.608 997.73 908.169 1287.54 1270.62 1304.45 1304.45 1387>
Fore
1011 1388 m 0
 1003 1388 999 1389 971 1389 c 0
 945 1389 914 1388 877 1387 c 1
 869 1258 865 1128 865 956 c 0
 865 793 868 766 868 685 c 0
 868 562 885 144 614 33 c 0
 567 14 520 4 474 4 c 0
 220 4 51 138 51 522 c 0
 51 551 61 566 80 566 c 0
 98 566 120 557 120 522 c 0
 120 239 209 73 467 73 c 0
 596 73 769 165 789 536 c 0
 795 619 798 696 798 767 c 0
 798 970 791 1159 791 1222 c 0
 791 1276 793 1331 798 1387 c 1
 697 1387 646 1383 629 1383 c 0
 605 1383 595 1393 595 1415 c 0
 595 1450 618 1459 781 1459 c 0
 1061 1459 1062 1446 1062 1426 c 0
 1062 1396 1038 1388 1011 1388 c 0
EndSplineSet
EndChar
StartChar: K
Encoding: 75 75 46
Width: 1216
VWidth: 3622
Flags: W
HStem: 1457 20G<218 231>
VStem: 193 83<32.0938 373.375 373.375 420.5 420.5 761 851 972.897 972.897 1292.86 1132.88 1404.64 1333.27 1476.01>
Fore
1198 1413 m 0
 1198 1391 1142 1339 996 1237 c 1
 995 1237 630 974 359 801 c 1
 383 686 862 289 1137 101 c 0
 1146 94 1151 85 1151 76 c 0
 1151 48 1132 29 1114 29 c 0
 1106 29 1098 33 1090 41 c 1
 827 232 l 2
 725 309 583 423 444 572 c 2
 276 761 l 1
 265 80 l 1
 256 37 230 30 221 30 c 0
 211 30 179 40 179 74 c 0
 179 124 193 573 193 822 c 2
 193 1137 l 2
 193 1238 191 1342 187 1449 c 0
 187 1472 214 1477 222 1477 c 0
 240 1477 269 1464 269 1442 c 0
 267 1365 266 1292 266 1225 c 0
 266 1096 270 976 276 851 c 1
 812 1208 l 1
 1068 1393 l 2
 1103 1418 1128 1439 1144 1456 c 1
 1152 1460 1159 1463 1166 1463 c 0
 1192 1463 1198 1423 1198 1413 c 0
EndSplineSet
EndChar
StartChar: L
Encoding: 76 76 47
Width: 1047
VWidth: 3622
Flags: MW
HStem: 25 74<266.613 706.862>
VStem: 127 72<163.434 708.631 339.5 487.068>
Fore
258 1488 m 0
 279 1488 298 1474 298 1454 c 0
 298 1439 249 1224 230 895 c 2
 200 359 l 2
 199 346 199 333 199 320 c 0
 199 203 237 99 422 99 c 0
 562 99 886 160 930 160 c 0
 952 160 975 142 975 116 c 0
 975 106 971 82 934 76 c 2
 704 40 l 2
 659 33 591 25 478 25 c 0
 203 25 127 56 127 402 c 0
 135 653 149 1040 218 1456 c 0
 221 1469 234 1488 258 1488 c 0
EndSplineSet
EndChar
StartChar: M
Encoding: 77 77 48
Width: 1690
VWidth: 3622
Flags: W
HStem: 11 21G<231 248> 1410 79<366.968 478.96 1219.47 1356.06>
VStem: 196 80<32 1060.96> 1385 64<34.3772 240 240 388 388 536 536 1236.3> 1394 82<11.2526 154.464>
Fore
833 729 m 1xf0
 899 1159 1145 1489 1323 1489 c 0
 1399 1489 1432 1284 1449 630 c 0xf0
 1458 302 1476 38 1476 34 c 0
 1476 14 1466 -0 1438 0 c 0
 1426 0 1411 4 1394 11 c 1xe8
 1391 71 1388 148 1385 240 c 2
 1374 536 l 2
 1362 877 1328 1406 1297 1406 c 1
 1124 1376 899 890 865 557 c 0
 862 531 852 518 833 518 c 0
 814 518 803 528 798 547 c 0
 738 867 556 1410 394 1410 c 0
 323 1410 276 614 276 32 c 1
 269 18 256 11 240 11 c 0
 222 11 208 16 196 25 c 1
 202 1206 271 1489 384 1489 c 0
 594 1489 765 1046 833 729 c 1xf0
EndSplineSet
EndChar
StartChar: N
Encoding: 78 78 49
Width: 1551
VWidth: 3622
Flags: W
HStem: 28 89<1184.17 1239.64> 1462 20G<245.5 293 1301 1319.5>
VStem: 200 87<23.0403 159.608 91.324 583.18 562.406 603.954 583.18 1206.72 1069.62 1335.94> 1275 80<659.98 1480.99>
Fore
1355 966 m 2
 1355 221 1306 28 1233 28 c 0
 1181 28 1078 150 922 389 c 258
 700 731 l 1
 583 917 l 1
 377 1224 l 2
 343 1277 290 1341 290 1348 c 1
 281 1204 277 1054 277 900 c 0
 277 700 287 504 287 48 c 0
 287 29 263 23 243 23 c 0
 226 23 200 28 200 48 c 0
 202 114 203 189 203 272 c 0
 203 472 200 672 200 939 c 0
 200 1339 226 1482 265 1482 c 0
 321 1482 494 1224 557 1130 c 0
 713 896 1185 125 1224 117 c 1
 1265 117 1275 794 1275 1445 c 1
 1280 1469 1292 1481 1310 1481 c 0
 1329 1481 1355 1473 1355 1438 c 2
 1355 966 l 2
EndSplineSet
EndChar
StartChar: O
Encoding: 79 79 50
Width: 1630
VWidth: 3622
Flags: W
HStem: 21 80<556.985 1052.13> 1383 83<563.394 1023.19>
VStem: 117 86<446.228 991.359> 1424 79<458.694 939.897>
Fore
778 1466 m 256
 1184 1466 1514 1173 1503 688 c 0
 1481 132 1028 21 775 21 c 0
 464 21 117 220 117 685 c 0
 117 1165 381 1466 778 1466 c 256
782 101 m 0
 1155 101 1415 295 1424 688 c 0
 1402 1247 1033 1387 778 1383 c 0
 540 1383 203 1236 203 685 c 0
 203 217 581 101 782 101 c 0
EndSplineSet
EndChar
StartChar: P
Encoding: 80 80 51
Width: 1199
VWidth: 3622
Flags: W
HStem: 578 79<327.218 838.256> 1389 67<317.265 812.945>
VStem: 173 61<1380.01 1439.52 1439.52 1465> 180 92<-12.2199 486.011> 195 81<176.205 640 713 1264.29> 1068 69<859.809 1176.42>
Fore
568 1389 m 0xc4
 445 1389 345 1362 246 1314 c 1
 258 1134 263 953 279 713 c 1
 359 684 464 657 588 657 c 0
 832 657 1068 765 1068 1028 c 0
 1068 1245 836 1389 568 1389 c 0xc4
169 1445 m 0
 169 1464 176 1465 197 1465 c 0
 220 1465 232 1465 234 1420 c 0xe4
 234 1393 235 1380 235 1380 c 1
 337 1431 449 1456 575 1456 c 0
 844 1456 1137 1324 1137 1027 c 0
 1137 721 900 578 613 578 c 0
 478 578 363 608 276 640 c 1xcc
 272 21 l 2
 272 0 238 -13 218 -13 c 0
 203 -13 180 -5 180 25 c 0xd4
 190 189 195 344 195 493 c 0xcc
 195 729 177 964 177 1279 c 1
 145 1265 l 1
 139 1259 133 1256 127 1256 c 0
 116 1256 103 1268 103 1282 c 0
 103 1311 158 1346 173 1355 c 1xe4
 170 1434 l 1
 169 1438 169 1442 169 1445 c 0
EndSplineSet
EndChar
StartChar: Q
Encoding: 81 81 52
Width: 1593
VWidth: 3622
Flags: W
HStem: 32 79<541.36 994.666> 1390 85<597.099 1001.94>
VStem: 111 85<467.69 974.151> 1396 79<532.926 943.596>
Fore
1475 729 m 0
 1475 501 1413 380 1300 253 c 1
 1445 111 l 2
 1452 103 1455 95 1455 86 c 0
 1455 69 1442 44 1423 44 c 0
 1404 44 1385 59 1330 116 c 2
 1238 210 l 1
 1162 143 1000 32 762 32 c 0
 241 32 111 450 111 748 c 0
 111 1170 424 1475 798 1475 c 0
 1091 1475 1475 1237 1475 729 c 0
996 470 m 0
 996 491 1030 520 1048 520 c 0
 1062 520 1081 496 1082 494 c 0
 1083 492 1151 414 1151 414 c 2
 1247 311 l 1
 1395 488 1396 622 1396 687 c 0
 1396 1063 1133 1390 798 1390 c 0
 517 1390 196 1141 196 732 c 0
 196 342 437 111 764 111 c 0
 900 111 1061 158 1182 272 c 1
 1003 453 l 2
 998 458 996 464 996 470 c 0
EndSplineSet
EndChar
StartChar: R
Encoding: 82 82 53
Width: 1292
VWidth: 3622
Flags: W
HStem: 610 74<448.714 822.512> 1380 75<339.735 842.394>
VStem: 173 74<934.854 1054.15 1054.15 1184.53 1184.53 1275 1431 1445> 180 89<-6.48367 77.9042 77.9042 318.301 318.301 591> 1068 76<868.861 1181.2>
Fore
604 1380 m 0xe8
 459 1380 341 1342 242 1297 c 1
 246 1238 248 1169 248 1091 c 0
 248 1047 247 1047 247 1018 c 0
 247 926 253 833 265 739 c 1
 367 690 496 684 554 684 c 0
 773 684 1068 771 1068 1017 c 0
 1068 1235 876 1380 604 1380 c 0xe8
99 1278 m 0
 99 1292 137 1337 170 1351 c 1
 166 1431 l 1
 166 1436 l 2
 166 1451 175 1459 194 1459 c 0
 215 1459 228 1454 235 1445 c 1
 242 1376 l 1
 344 1421 469 1455 614 1455 c 0
 828 1455 1144 1369 1144 1025 c 0
 1144 925 1116 842 1046 775 c 0
 911 648 722 610 566 610 c 0
 494 610 381 618 279 667 c 1
 1098 97 l 2
 1107 89 1111 81 1111 72 c 0
 1111 64 1102 23 1064 23 c 0
 1058 23 1052 25 1047 28 c 2
 269 591 l 1
 269 250 l 2
 269 182 268 69 260 25 c 1
 260 6 236 -7 218 -7 c 0
 202 -7 180 1 180 32 c 0xd8
 189 187 194 335 194 475 c 0
 194 732 173 951 173 1275 c 1
 142 1261 l 1
 136 1255 130 1251 124 1251 c 0
 114 1251 99 1265 99 1278 c 0
EndSplineSet
EndChar
StartChar: S
Encoding: 83 83 54
Width: 1098
VWidth: 3622
Flags: W
HStem: 4 76<396.607 779.497> 1394 76<370.432 739.099>
VStem: 138 83<268.938 439.5 439.5 472.993 932.232 1247.59> 884 76<1079 1238.36> 901 75<202.954 507.741>
Fore
960 1090 m 1xf0
 955 1064 941 1047 915 1047 c 0
 897 1047 886 1058 884 1079 c 0xf0
 875 1244 775 1394 570 1394 c 0
 260 1394 217 1178 217 1081 c 0
 217 715 729 836 917 556 c 0
 935 529 976 470 976 343 c 0
 976 207 873 4 570 4 c 0
 298 4 138 201 138 435 c 1
 137 438 137 441 137 444 c 0
 137 464 159 473 176 473 c 0
 187 473 221 466 221 439 c 0
 233 220 353 80 594 80 c 0
 850 80 901 255 901 356 c 0xe8
 901 568 710 646 532 688 c 0
 318 739 133 849 133 1092 c 0
 133 1243 242 1470 570 1470 c 0
 791 1465 950 1324 960 1090 c 1xf0
EndSplineSet
EndChar
StartChar: T
Encoding: 84 84 55
Width: 1137
VWidth: 3622
Flags: MW
HStem: 1358 80<95.061 523.58> 1380 83<646 897.701>
VStem: 474 106<18.3594 294.649>
Fore
1017 1362 m 0
 943 1362 924 1380 646 1380 c 1
 601 1166 580 129 580 55 c 0
 580 23 544 18 527 18 c 0
 507 18 474 25 474 55 c 0
 474 211 524 1310 529 1376 c 1
 434 1376 433 1378 124 1358 c 0
 101 1358 95 1391 95 1405 c 0
 95 1421 100 1438 120 1438 c 0
 267 1455 422 1463 584 1463 c 0
 745 1463 889 1458 1014 1449 c 0
 1037 1447 1048 1434 1048 1412 c 0
 1048 1406 1047 1366 1017 1362 c 0
EndSplineSet
EndChar
StartChar: U
Encoding: 85 85 56
Width: 1365
VWidth: 3622
Flags: W
HStem: 7 90<471.675 861.717> 1438 20G<212 233.5>
VStem: 166 98<337.186 798.43 611.5 985.36> 180 99<1019.01 1456.95> 1083 109<19.2295 96.6384 47.722 493.881 355.44 739.5 739.5 1466.59>
Fore
1084 249 m 0xe8
 1073 249 1032 7 645 7 c 0
 260 7 166 341 166 522 c 2xe8
 180 1427 l 2
 180 1446 201 1458 223 1458 c 0
 244 1458 279 1446 279 1424 c 2xd8
 265 633 l 2
 264 619 264 604 264 590 c 0
 264 379 342 97 656 97 c 0
 912 97 1083 245 1083 653 c 2
 1083 1434 l 2
 1083 1463 1116 1470 1128 1470 c 0
 1148 1470 1178 1457 1178 1438 c 2
 1192 41 l 2
 1192 6 1153 -2 1138 -2 c 0
 1100 -2 1092 25 1090 44 c 1
 1092 82 1093 117 1093 149 c 0
 1093 230 1090 249 1084 249 c 0xe8
EndSplineSet
EndChar
StartChar: V
Encoding: 86 86 57
Width: 1379
VWidth: 3622
Flags: W
HStem: 2 132<633 736>
Fore
142 1438 m 1
 142 1458 165 1470 188 1470 c 0
 214 1470 241 1456 246 1438 c 2
 633 134 l 1
 736 127 l 1
 1120 1442 l 2
 1123 1461 1143 1468 1163 1468 c 0
 1191 1468 1214 1452 1214 1432 c 0
 1214 1415 875 195 819 73 c 0
 804 28 740 2 680 2 c 0
 621 2 575 25 561 73 c 1
 529 122 314 807 142 1438 c 1
EndSplineSet
EndChar
StartChar: W
Encoding: 87 87 58
Width: 1862
VWidth: 3622
Flags: W
HStem: 12 21G<1317.5 1354.5> 1440 20G<1641.5 1659>
Fore
160 1427 m 0
 160 1441 176 1464 203 1464 c 0
 224 1464 245 1452 256 1424 c 0
 374 1085 462 736 504 561 c 2
 598 138 l 1
 681 307 741 436 780 527 c 2
 864 724 l 2
 897 798 902 806 941 812 c 1
 982 812 998 806 1132 520 c 2
 1311 142 l 1
 1390 515 l 1
 1483 924 l 2
 1518 1080 1559 1251 1608 1434 c 0
 1612 1459 1638 1460 1645 1460 c 0
 1673 1460 1704 1438 1704 1419 c 0
 1704 1410 1659 1256 1590 975 c 2
 1488 540 l 2
 1452 380 1419 221 1390 62 c 0
 1387 50 1378 12 1331 12 c 0
 1304 12 1270 30 1258 65 c 2
 946 688 l 1
 705 180 l 2
 643 50 642 9 583 9 c 0
 553 9 533 23 522 51 c 1
 481 236 439 412 396 578 c 2
 283 1010 l 2
 172 1401 160 1409 160 1427 c 0
EndSplineSet
EndChar
StartChar: X
Encoding: 88 88 59
Width: 1386
VWidth: 3622
Flags: W
HStem: 1462 20G<1174 1197.5>
Fore
187 26 m 0
 157 26 131 52 131 66 c 0
 131 71 134 76 138 80 c 1
 134 80 l 1
 612 757 l 1
 149 1434 l 1
 147 1440 145 1446 145 1451 c 0
 145 1466 156 1488 194 1488 c 0
 211 1488 223 1484 232 1475 c 1
 677 837 l 1
 1151 1466 l 2
 1158 1477 1168 1482 1180 1482 c 0
 1215 1482 1238 1454 1238 1437 c 0
 1238 1431 1235 1426 1231 1420 c 2
 739 757 l 1
 1247 62 l 2
 1249 59 1250 56 1250 53 c 0
 1250 46 1240 18 1182 18 c 0
 1169 18 1158 21 1151 28 c 1
 674 681 l 1
 225 44 l 1
 214 33 202 26 187 26 c 0
EndSplineSet
EndChar
StartChar: Y
Encoding: 89 89 60
Width: 1361
VWidth: 3622
Flags: W
HStem: 11 21G<676.5 692> 1452 20G<194.5 208 1140.5 1164.5>
VStem: 626 110<12.3578 370 370 685>
Fore
1151 1472 m 0
 1178 1472 1206 1455 1206 1436 c 0
 1206 1432 1205 1428 1203 1424 c 2
 1088 1188 l 2
 949 905 804 691 725 685 c 1
 736 55 l 2
 736 19 700 11 684 11 c 0
 669 11 633 17 633 48 c 2
 626 688 l 1
 472 732 155 1389 155 1449 c 0
 155 1469 185 1477 204 1477 c 0
 212 1477 241 1476 253 1452 c 1
 309 1267 559 768 677 768 c 0
 746 768 869 949 1006 1238 c 2
 1106 1449 l 2
 1113 1463 1130 1472 1151 1472 c 0
EndSplineSet
EndChar
StartChar: Z
Encoding: 90 90 61
Width: 1358
VWidth: 3622
Flags: W
HStem: 32 65<1135.73 1214.16> 44 73<185 221.466 221.466 355.6> 62 72<479.945 1061.93> 1344 69<369.894 936.453>
VStem: 93 92<86 155.515>
Fore
221 1454 m 0x58
 259 1454 478 1413 688 1413 c 0
 813 1413 855 1420 1106 1434 c 2
 1217 1445 l 2
 1241 1445 1271 1426 1277 1426 c 1
 1290 1416 1296 1404 1296 1390 c 0
 1296 1382 1294 1372 1289 1362 c 0
 1240 1288 1140 1165 1006 1016 c 2
 601 580 l 1
 299 260 l 2
 221 176 185 129 185 119 c 0
 185 117 185 117 193 117 c 2
 224 117 l 2x58
 260 117 462 134 699 134 c 0x38
 872 134 1045 123 1196 97 c 0
 1213 93 1222 81 1222 63 c 0
 1222 42 1212 32 1193 32 c 0x98
 1168 32 1027 62 775 62 c 0x38
 566 62 402 43 258 43 c 0
 232 43 205 43 177 44 c 0
 143 44 93 55 93 98 c 0
 93 122 102 136 204 266 c 0
 244 319 291 374 343 432 c 2
 674 782 l 1
 674 782 1025 1144 1189 1369 c 1
 1004 1353 967 1344 819 1344 c 0
 709 1344 225 1353 203 1387 c 1
 185 1405 176 1420 176 1430 c 0
 176 1445 194 1454 221 1454 c 0x58
EndSplineSet
EndChar
StartChar: bracketleft
Encoding: 91 91 62
Width: 590
VWidth: 3622
Flags: MW
HStem: -324 75<216.198 500.111> 1463 72<205.372 267.438 236.405 430.538 429.359 431.717 431.717 531.994>
VStem: 108 106<-242 30.875 341.739 637.089 657.985 1463> 136 85<16.3799 1099.69>
Fore
532 1493 m 0
 532 1479 525 1459 488 1459 c 0
 410 1466 362 1468 331 1468 c 0
 298 1468 255 1467 203 1463 c 1
 211 1234 221 889 221 315 c 0
 221 122 219 -64 214 -242 c 1
 253 -247 290 -249 324 -249 c 0
 456 -249 493 -234 512 -234 c 0
 537 -234 543 -255 543 -272 c 0
 543 -302 532 -324 286 -324 c 0
 233 -324 177 -324 108 -308 c 1
 135 72 136 501 136 644 c 0
 136 943 130 1199 111 1535 c 1
 164 1539 237 1545 304 1545 c 0
 351 1545 436 1540 488 1532 c 1
 524 1532 532 1505 532 1493 c 0
EndSplineSet
EndChar
StartChar: backslash
Encoding: 92 92 63
Width: 1009
VWidth: 3622
Flags: W
VStem: 148 674
Fore
148 1890 m 0
 148 1911 164 1929 186 1929 c 0
 205 1929 223 1917 232 1887 c 2
 815 90 l 2
 820 79 822 69 822 60 c 0
 822 37 803 21 785 21 c 0
 767 21 754 33 746 58 c 2
 152 1870 l 2
 150 1877 148 1884 148 1890 c 0
EndSplineSet
EndChar
StartChar: bracketright
Encoding: 93 93 64
Width: 590
VWidth: 3622
Flags: MW
HStem: -321 75<125.3 354.917> -308 77<35.4525 111.945> 1459 73<35.889 136.49 136.49 139.007 137.748 332.191 301.562 362.82 362.82 366>
VStem: 356 74<-238.418 25.2761 -106.571 1121.36> 366 90<585.547 1463>
Fore
238 1468 m 0
 206 1468 159 1466 80 1459 c 0
 44 1459 35 1479 35 1493 c 0
 35 1504 44 1532 80 1532 c 1
 133 1540 216 1545 263 1545 c 0
 330 1545 402 1540 456 1535 c 1
 436 1150 430 861 430 572 c 0
 430 134 450 -173 460 -304 c 1
 390 -319 334 -321 280 -321 c 0
 237 -321 151 -317 65 -308 c 0
 38 -304 24 -290 24 -268 c 0
 24 -244 36 -231 57 -231 c 0
 70 -231 136 -246 244 -246 c 0
 277 -246 315 -244 356 -239 c 1
 351 -61 348 124 348 315 c 0
 348 786 349 1105 366 1463 c 1
 314 1467 271 1468 238 1468 c 0
EndSplineSet
EndChar
StartChar: asciicircum
Encoding: 94 94 65
Width: 1268
VWidth: 3622
Flags: W
HStem: 439 1020 1373 86<591.731 685.84>
VStem: 179 904<467 472 469 486 469 469>
Fore
1083 486 m 0x60
 1083 467 1078 439 1055 439 c 0xa0
 1039 439 1022 452 1014 474 c 1
 1001 497 982 578 932 733 c 2
 859 946 l 2
 823 1046 703 1373 637 1373 c 0x60
 611 1373 566 1300 509 1160 c 0
 249 513 285 466 248 448 c 0
 238 442 227 439 216 439 c 0xa0
 201 439 179 445 179 469 c 0
 179 472 180 475 180 478 c 1
 191 505 208 590 266 754 c 2
 349 987 l 2
 398 1123 537 1459 637 1459 c 0
 715 1459 830 1297 1025 696 c 2
 1072 550 l 2
 1079 524 1083 503 1083 486 c 0x60
EndSplineSet
EndChar
StartChar: underscore
Encoding: 95 95 66
Width: 1814
VWidth: 3622
Flags: W
HStem: -35 83<25.1526 226.441 226.441 282.954 254.698 855.183 815.865 894.5 894.5 1519.12 1519.12 1533.77 1533.77 1749>
Fore
546 35 m 0
 724 35 787 44 1288 44 c 0
 1413 44 1568 43 1753 41 c 0
 1774 41 1786 22 1786 4 c 0
 1786 -15 1775 -33 1749 -35 c 0
 1569 -33 1427 -32 1322 -32 c 2
 1065 -32 l 2
 860 -32 929 -35 724 -35 c 0
 460 -35 263 -30 65 -25 c 0
 38 -22 25 -10 25 14 c 0
 25 36 38 48 65 48 c 0
 202 42 381 35 546 35 c 0
EndSplineSet
EndChar
StartChar: grave
Encoding: 96 96 67
Width: 652
VWidth: 3622
Flags: W
HStem: 1007 446
VStem: 92 457
Fore
92 1419 m 0
 92 1437 108 1453 128 1453 c 0
 169 1453 198 1403 376 1230 c 2
 536 1072 l 2
 544 1064 549 1055 549 1046 c 0
 549 1028 529 1007 511 1007 c 0
 500 1007 488 1013 474 1026 c 2
 111 1383 l 2
 98 1397 92 1409 92 1419 c 0
EndSplineSet
EndChar
StartChar: a
Encoding: 97 97 68
Width: 1202
VWidth: 3622
Flags: W
HStem: -14 83<380.667 758.646> 4 76<1015.63 1092.91 1092.91 1106> 950 72<407.014 733.088>
VStem: 111 85<277.528 701.708> 909 87<336.506 683.439>
Fore
196 518 m 0xb8
 196 318 270 69 564 69 c 0
 718 69 849 134 888 260 c 0
 910 342 909 441 909 518 c 2
 902 663 l 2
 870 861 699 950 577 950 c 0
 272 950 196 609 196 518 c 0xb8
996 202 m 2
 996 112 1040 80 1106 80 c 1
 1127 72 1138 60 1138 44 c 0
 1138 31 1132 19 1120 7 c 1
 1100 5 1082 4 1066 4 c 0x78
 974 4 929 34 916 134 c 1
 852 29 736 -14 570 -14 c 0
 203 -14 111 273 111 522 c 0
 111 661 203 1022 573 1022 c 0
 743 1022 836 948 913 851 c 1
 923 971 l 2
 928 999 956 1008 975 1008 c 0
 994 1008 1033 996 1033 978 c 1
 997 862 996 399 996 269 c 2
 996 202 l 2
EndSplineSet
Substitution2: "Single Substitution lookup 22 subtable" uni0E38
Substitution2: "Single Substitution lookup 22 subtable" uni0E38
EndChar
StartChar: b
Encoding: 98 98 69
Width: 1202
VWidth: 3622
Flags: W
HStem: -14 87<396.984 804.122> 950 90<372.054 808.105>
VStem: 62 87<942.309 1838.79> 80 113<260.312 394 394 443.362 443.362 493 493 547.486> 99 88<397.452 548.223 548.223 676.746 676.746 750 641.033 1206.61> 1017 89<292.08 739.805>
Fore
1017 504 m 0xd4
 1017 736 930 950 580 950 c 0
 464 950 279 904 187 750 c 1
 185 696 183 647 183 604 c 0
 183 561 185 524 187 493 c 0xcc
 187 457 189 424 193 394 c 0
 193 196 403 73 591 73 c 256
 829 73 1017 209 1017 504 c 0xd4
149 1818 m 0xe4
 183 1303 190 943 190 942 c 0
 190 916 189 897 187 884 c 1xcc
 254 957 344 1040 580 1040 c 0
 823 1040 1106 933 1106 504 c 0
 1106 99 784 -14 582 -14 c 0
 453 -14 316 49 170 180 c 1
 166 145 l 1
 140 84 123 83 101 48 c 1
 86 32 66 17 43 17 c 0
 22 17 4 29 4 48 c 0
 4 55 6 63 11 73 c 1
 44 100 75 135 80 180 c 0xd4
 99 428 99 740 99 802 c 0xcc
 99 1153 89 1439 62 1822 c 1
 66 1846 89 1855 110 1855 c 0
 133 1855 149 1837 149 1818 c 0xe4
EndSplineSet
Substitution2: "Single Substitution lookup 22 subtable" uni0E39
Substitution2: "Single Substitution lookup 22 subtable" uni0E39
EndChar
StartChar: c
Encoding: 99 99 70
Width: 1086
VWidth: 3622
Flags: W
HStem: 4 86<359.971 771.662> 978 87<393.197 773.004>
VStem: 69 87<296.247 727.06>
Fore
978 736 m 0
 956 736 929 748 923 778 c 1
 923 775 l 1
 841 952 677 978 587 978 c 0
 295 978 156 747 156 508 c 0
 156 323 239 90 573 90 c 0
 901 90 951 358 960 380 c 0
 969 412 985 429 1008 429 c 0
 1037 429 1051 411 1051 380 c 0
 1051 309 957 4 573 4 c 0
 170 4 69 298 69 508 c 0
 69 694 173 1065 587 1065 c 0
 787 1065 992 948 1022 768 c 0
 1028 748 1000 736 978 736 c 0
EndSplineSet
Substitution2: "Single Substitution lookup 22 subtable" uni0E3A
Substitution2: "Single Substitution lookup 22 subtable" uni0E3A
EndChar
StartChar: d
Encoding: 100 100 71
Width: 1202
VWidth: 3622
Flags: W
HStem: -11 87<415.522 653.029> 950 90<408.004 815.409>
VStem: 90 87<304.608 721.721> 999 89<398.611 443.362 443.362 570.846 570.846 698.862 698.862 750 641.708 1210.13>
Fore
177 504 m 0
 177 161 480 76 601 76 c 0
 602 76 738 96 739 96 c 0
 832 124 996 216 996 394 c 0
 996 424 997 457 999 493 c 0
 999 555 1002 601 1002 648 c 0
 1002 679 1001 713 999 750 c 1
 907 905 721 950 608 950 c 0
 383 950 177 814 177 504 c 0
90 504 m 0
 90 875 347 1040 586 1040 c 0
 822 1040 918 975 999 884 c 1
 996 901 995 928 995 965 c 0
 995 1043 1004 1329 1040 1818 c 0
 1040 1837 1055 1855 1077 1855 c 0
 1096 1855 1121 1848 1127 1822 c 1
 1099 1434 1088 1149 1088 792 c 0
 1088 486 1098 302 1109 180 c 0
 1109 137 1153 92 1178 73 c 1
 1183 63 1185 55 1185 48 c 0
 1185 29 1166 17 1145 17 c 0
 1104 17 1084 52 1058 80 c 0
 1039 101 1027 122 1022 145 c 2
 1017 180 l 1
 816 -0 628 -11 585 -11 c 0
 371 -11 90 135 90 504 c 0
EndSplineSet
EndChar
StartChar: e
Encoding: 101 101 72
Width: 1195
VWidth: 3622
Flags: MW
HStem: 0 90<396.6 792.219> 545 63<488.555 1005.51> 978 87<413.32 806.827>
VStem: 85 95<312.609 518> 1006 80<628.786 784.109>
Fore
1028 545 m 0
 519 545 349 534 180 518 c 1
 187 169 423 90 608 90 c 0
 696 90 886 132 982 318 c 1
 989 327 997 331 1006 331 c 0
 1025 331 1054 315 1054 279 c 0
 1054 208 880 0 608 0 c 0
 249 0 85 264 85 532 c 256
 85 805 281 1065 605 1065 c 0
 903 1065 1086 845 1086 674 c 256
 1086 565 1063 545 1028 545 c 0
1006 637 m 0
 1006 731 918 978 601 978 c 0
 348 978 213 785 180 608 c 1
 336 624 1006 614 1006 637 c 0
EndSplineSet
EndChar
StartChar: f
Encoding: 102 102 73
Width: 652
VWidth: 3622
Flags: W
HStem: 761 83<108.656 207 308 435.054 435.054 523.118> 1452 87<395.832 619.509>
VStem: 210 98<547.848 754 844 911.328 911.328 973.008 973.008 1031.17 1031.17 1319.77> 232 93<0.175537 241.152> 656 98<1228 1416.73>
Fore
207 754 m 1xd8
 80 742 112 743 48 736 c 0
 23 736 11 748 11 771 c 0
 11 794 21 808 41 815 c 2
 97 830 l 2
 119 836 142 840 210 840 c 1
 212 883 213 930 213 981 c 0
 213 1030 212 1060 212 1080 c 0
 212 1309 266 1410 312 1466 c 0
 350 1515 412 1539 497 1539 c 0
 651 1539 754 1486 754 1235 c 0
 754 1204 739 1189 709 1189 c 0
 693 1189 662 1199 656 1228 c 0
 638 1445 608 1452 497 1452 c 0
 423 1452 327 1411 313 1101 c 0
 310 1026 308 941 308 844 c 1xe8
 475 844 525 832 525 785 c 0
 525 764 513 754 488 754 c 0
 405 754 426 761 384 761 c 2
 304 761 l 1
 325 44 l 1
 318 15 302 -0 276 0 c 0
 257 0 232 7 232 35 c 2
 207 754 l 1xd8
EndSplineSet
EndChar
StartChar: g
Encoding: 103 103 74
Width: 1116
VWidth: 3622
Flags: W
HStem: -519 79<379.928 729.916> 83 97<335.793 719.104> 1026 94<349.885 717.5>
VStem: 55 90<392.655 804.57> 155 91<-313.476 -160.795> 950 83<-193.53 96.2802>
Fore
522 1026 m 0
 296 1026 145 828 145 612 c 0
 157 247 372 180 522 180 c 0
 601 180 884 238 884 402 c 0
 884 423 867 573 862 616 c 2
 846 752 l 2
 840 798 832 844 822 888 c 1
 761 982 653 1026 522 1026 c 0
556 -440 m 0
 824 -440 950 -201 950 34 c 0
 950 113 939 187 916 256 c 1
 827 144 683 83 485 83 c 0
 227 83 55 321 55 612 c 0
 55 831 204 1120 522 1120 c 0
 733 1120 794 1049 826 1014 c 1
 861 1137 l 2
 872 1172 895 1182 913 1182 c 0
 936 1182 955 1160 955 1140 c 0
 955 1134 953 1127 950 1120 c 2
 913 999 l 1
 915 925 923 833 936 722 c 2
 978 402 l 2
 1011 154 1033 29 1033 14 c 0
 1033 -261 873 -519 555 -519 c 0
 287 -519 155 -318 155 -209 c 0
 155 -180 187 -159 214 -159 c 0
 238 -159 246 -170 246 -187 c 0
 258 -340 386 -440 556 -440 c 0
EndSplineSet
EndChar
StartChar: h
Encoding: 104 104 75
Width: 1147
VWidth: 3622
Flags: MW
HStem: 975 86<505.172 828.544>
VStem: 221 83<21 132.707 132.707 446.342> 269 87<1638 1683.99> 985 83<6.07446 733.375>
Fore
303 1685 m 0
 315 1685 356 1674 356 1645 c 2
 356 1638 l 1
 308 785 l 1
 324 872 424 1061 674 1061 c 0
 1064 1053 1068 727 1068 25 c 0
 1068 7 1052 -6 1032 -6 c 0
 1017 -6 985 1 985 41 c 0
 985 681 961 975 674 975 c 0
 582 975 411 955 340 648 c 0
 305 494 304 385 304 18 c 0
 304 2 290 -3 274 -3 c 0
 253 -3 229 8 221 21 c 1
 214 141 211 267 211 398 c 0
 211 718 233 1210 269 1652 c 0
 269 1678 287 1685 303 1685 c 0
EndSplineSet
EndChar
StartChar: i
Encoding: 105 105 76
Width: 590
VWidth: 3622
Flags: W
HStem: 12 21G<315 321> 1027 20G<323.5 339.5> 1212 317<250.839 461.004>
VStem: 197 312<1262.72 1473.51> 269 90<12.3828 380.56> 290 87<680.44 1046.99>
Fore
358 1529 m 0xf0
 426 1529 509 1470 509 1370 c 0
 509 1290 447 1212 353 1212 c 0
 281 1212 197 1274 197 1368 c 0
 197 1450 271 1529 358 1529 c 0xf0
332 1047 m 0
 347 1047 377 1039 377 1003 c 2xe4
 359 58 l 2
 354 14 324 12 318 12 c 0
 312 12 274 17 269 58 c 1xe8
 290 1003 l 2xe4
 290 1038 315 1047 332 1047 c 0
EndSplineSet
EndChar
StartChar: j
Encoding: 106 106 77
Width: 590
VWidth: 3622
Flags: MW
HStem: -493 102<-9.67953 164.434> 1216 317<279.983 486.875>
VStem: -196 99<-353.421 -222.322> 223 313<1265.34 1476.42> 301 90<-219.633 423.922> 318 91<616.078 1036.97>
Fore
364 1037 m 0
 378 1037 409 1028 409 992 c 2
 391 48 l 1
 391 25 l 2
 391 -364 189 -493 54 -493 c 0
 -40 -493 -178 -423 -196 -210 c 1
 -191 -179 -177 -164 -155 -164 c 0
 -132 -164 -106 -176 -97 -214 c 0
 -72 -380 29 -391 60 -391 c 0
 126 -391 301 -313 301 30 c 0
 301 48 l 2
 318 992 l 2
 318 1028 350 1037 364 1037 c 0
386 1533 m 0
 455 1533 536 1474 536 1373 c 0
 536 1294 473 1216 379 1216 c 0
 312 1216 223 1275 223 1371 c 0
 223 1459 305 1533 386 1533 c 0
EndSplineSet
EndChar
StartChar: k
Encoding: 107 107 78
Width: 1093
VWidth: 3622
Flags: W
VStem: 241 76<32 479 683 1609.49>
Fore
990 1102 m 0
 1017 1102 1026 1084 1026 1072 c 0
 1026 1061 1021 1049 1010 1035 c 1
 345 591 l 1
 1026 65 l 1
 1028 57 1030 50 1030 44 c 0
 1030 11 996 3 976 3 c 0
 972 3 968 3 964 4 c 1
 476 369 l 1
 317 479 l 1
 313 32 l 1
 311 26 296 -6 271 -6 c 0
 259 -6 251 2 241 16 c 1
 244 1580 l 2
 244 1606 256 1624 274 1624 c 0
 291 1624 317 1607 317 1558 c 2
 322 683 l 1
 403 734 607 862 738 952 c 2
 934 1088 l 1
 957 1097 975 1102 990 1102 c 0
EndSplineSet
EndChar
StartChar: l
Encoding: 108 108 79
Width: 497
VWidth: 3622
Flags: W
HStem: 1766 20G<213.5 232.5>
VStem: 193 76<18.0124 902 902 902 902 1785.99 62 1742 62 62>
Fore
226 1786 m 0
 239 1786 269 1777 269 1742 c 2
 279 62 l 1
 273 22 241 18 234 18 c 0
 212 18 193 35 193 62 c 2
 180 1742 l 1
 185 1766 201 1786 226 1786 c 0
EndSplineSet
EndChar
StartChar: m
Encoding: 109 109 80
Width: 1662
VWidth: 3622
Flags: W
HStem: 996 72<472.346 682.653 1047.51 1276.63>
VStem: 200 94<7.42804 41 41 457.5 457.5 569.529 709 874 874 881 881 888.335> 826 83<4.00732 66.6309 66.6309 104.977 85.8039 442.654 167.831 717.478> 1393 77<0.0180054 257.004 257.004 263.699 260.352 821.241>
Fore
135 1008 m 0
 135 1023 148 1046 183 1046 c 0
 250 1046 287 910 294 881 c 1
 294 709 l 1
 350 1023 436 1068 580 1068 c 0
 808 1068 856 801 865 692 c 1
 912 1032 1028 1075 1137 1075 c 0
 1341 1075 1477 950 1477 487 c 0
 1477 396 1470 305 1470 32 c 0
 1470 6 1448 -0 1431 -0 c 0
 1401 -0 1393 19 1393 117 c 0
 1393 156 1401 322 1401 431 c 0
 1401 772 1349 1006 1141 1006 c 0
 954 1006 907 553 907 178 c 0
 907 148 909 61 909 32 c 1
 904 13 889 4 864 4 c 0
 839 4 826 14 826 35 c 1
 824 48 823 70 823 99 c 0
 823 154 825 154 825 238 c 0
 825 686 774 996 570 996 c 0
 303 996 315 231 297 41 c 0
 297 13 272 7 252 7 c 0
 229 7 210 19 210 41 c 2
 200 874 l 2
 200 938 135 985 135 1008 c 0
EndSplineSet
EndChar
StartChar: n
Encoding: 110 110 81
Width: 1123
VWidth: 3622
Flags: MW
HStem: 982 72<488.828 767.487>
VStem: 193 86<706 858 858 877> 214 90<4.25131 108.331 108.331 324.48> 881 79<22.5179 854.45>
Fore
120 1004 m 0
 120 1018 132 1042 168 1042 c 0
 235 1042 272 907 279 877 c 1
 279 706 l 1
 327 996 442 1054 616 1054 c 0
 822 1054 960 963 960 564 c 2
 960 41 l 1
 955 25 938 16 912 16 c 0
 891 16 881 24 881 41 c 2
 877 570 l 2
 869 778 865 982 608 982 c 0
 374 982 331 611 315 366 c 0
 310 295 308 231 308 174 c 0
 308 116 307 73 304 44 c 0
 304 12 273 4 259 4 c 0
 242 4 214 13 214 48 c 2
 193 858 l 1
 180 899 l 2
 147 978 120 979 120 1004 c 0
EndSplineSet
EndChar
StartChar: o
Encoding: 111 111 82
Width: 1202
VWidth: 3622
Flags: W
HStem: 0 90<370.672 824.453> 992 80<381.129 794.898>
VStem: 73 86<290.79 751.692> 1037 86<286.867 730.053>
Fore
601 1072 m 0
 886 1072 1123 872 1123 515 c 0
 1123 103 844 -0 587 0 c 0
 388 0 73 98 73 493 c 0
 73 762 179 1072 601 1072 c 0
587 90 m 0
 931 90 1037 282 1037 485 c 0
 1037 887 778 992 601 992 c 0
 336 992 159 852 159 493 c 0
 159 171 407 90 587 90 c 0
EndSplineSet
EndChar
StartChar: p
Encoding: 112 112 83
Width: 1247
VWidth: 3622
Flags: W
HStem: -467 21G<144 160> 4 90<446.195 826.288> 982 86<421.238 823.157>
VStem: 108 88<-435 144.209> 133 81<288.875 615.546 615.546 797.89> 1047 87<316.33 762.581>
Fore
608 982 m 0xec
 441 982 218 866 218 653 c 0
 215 629 214 604 214 578 c 2
 214 488 l 2
 214 367 217 327 221 287 c 1
 299 160 464 94 616 94 c 0
 973 106 1047 339 1047 557 c 0
 1039 905 786 982 608 982 c 0xec
619 4 m 0
 559 4 374 -10 225 152 c 1
 214 61 215 -109 196 -432 c 0
 196 -460 168 -467 152 -467 c 0
 136 -467 112 -458 108 -435 c 1xf4
 129 -37 133 202 133 361 c 0
 133 837 100 915 28 971 c 1
 23 979 21 987 21 994 c 0
 21 1014 34 1024 60 1024 c 0
 89 1024 155 986 187 902 c 1
 193 865 l 1
 368 1037 515 1068 596 1068 c 0
 802 1068 1134 964 1134 550 c 0
 1134 224 956 4 619 4 c 0
EndSplineSet
EndChar
StartChar: q
Encoding: 113 113 84
Width: 1278
VWidth: 3622
Flags: W
HStem: 2 90<383.275 811.188> 980 85<378.618 780.893>
VStem: 74 87<303.588 753.56> 964 85<-492.979 -382.5 -382.5 131>
Fore
161 522 m 0
 161 178 397 92 605 92 c 0
 744 92 891 149 975 265 c 1
 990 442 996 551 996 642 c 0
 996 871 758 980 575 980 c 256
 399 980 161 888 161 522 c 0
1010 -493 m 0
 987 -493 964 -480 964 -460 c 2
 964 131 l 1
 868 37 769 2 619 2 c 0
 294 2 74 178 74 522 c 0
 74 956 385 1065 598 1065 c 0
 772 1065 918 958 1033 844 c 1
 1037 877 l 1
 1062 948 1133 996 1162 996 c 0
 1188 996 1208 983 1208 964 c 256
 1208 926 1136 896 1123 837 c 0
 1064 613 1049 178 1049 -302 c 0
 1049 -366 1051 -399 1051 -463 c 1
 1045 -486 1026 -493 1010 -493 c 0
EndSplineSet
EndChar
StartChar: r
Encoding: 114 114 85
Width: 850
VWidth: 3622
Flags: W
HStem: 975 86<385.12 635.768>
VStem: 73 86<876.549 1054> 111 92<-13.976 216.219> 695 83<681.852 916.984>
Fore
110 1090 m 0xd0
 125 1090 154 1080 159 1054 c 1xd0
 159 975 167 857 180 660 c 1
 180 954 373 1061 501 1061 c 0
 730 1053 778 906 778 778 c 0
 778 669 718 577 628 577 c 0
 581 577 534 583 534 607 c 0
 534 710 695 610 695 778 c 0
 695 870 656 975 501 975 c 0
 184 975 217 208 203 28 c 0
 203 -6 173 -14 157 -14 c 256
 141 -14 111 -6 111 28 c 0xb0
 111 92 113 113 113 241 c 0
 113 565 91 849 73 1051 c 0
 73 1082 97 1090 110 1090 c 0xd0
EndSplineSet
EndChar
StartChar: s
Encoding: 115 115 86
Width: 840
VWidth: 3622
Flags: W
HStem: -4 87<259.268 596.185> 989 86<236.792 560.003>
VStem: 73 86<690.848 912.855> 677 87<150.652 383.831 764 893.7>
Fore
750 771 m 0
 750 739 725 731 705 731 c 0
 683 731 669 742 663 764 c 1
 663 887 572 989 387 989 c 0
 197 989 159 852 159 789 c 0
 159 529 764 648 764 256 c 0
 764 141 660 -4 428 -4 c 0
 224 -4 74 139 44 279 c 1
 58 305 71 319 87 319 c 0
 112 319 136 284 150 262 c 2
 189 200 l 2
 228 141 285 83 428 83 c 0
 626 83 677 203 677 256 c 0
 677 570 73 439 73 789 c 0
 73 879 131 1075 387 1075 c 0
 682 1075 750 891 750 771 c 0
EndSplineSet
EndChar
StartChar: t
Encoding: 116 116 87
Width: 742
VWidth: 3622
Flags: MW
HStem: 27 93<404.529 579.644> 829 91<336.612 413.131 413.131 537.083>
VStem: 246 90<205.663 738.941 738.941 826> 619 94<124.987 271.195>
Fore
35 914 m 0
 35 947 74 955 106 955 c 0
 141 955 201 943 224 936 c 2
 246 930 l 1
 285 1218 265 1478 308 1507 c 1
 322 1512 337 1514 352 1514 c 0
 373 1514 384 1501 384 1475 c 1
 372 1410 364 1345 351 1148 c 2
 336 920 l 1
 551 920 580 896 580 861 c 1
 574 828 483 828 441 828 c 0
 408 828 403 829 386 829 c 0
 366 829 349 828 336 826 c 1
 336 739 l 2
 336 320 340 120 501 120 c 0
 548 120 597 142 619 279 c 0
 622 306 634 320 654 320 c 0
 678 320 707 301 713 256 c 1
 679 58 598 27 490 27 c 0
 288 27 237 246 237 575 c 0
 237 627 239 706 246 837 c 1
 142 862 35 868 35 914 c 0
EndSplineSet
EndChar
StartChar: u
Encoding: 117 117 88
Width: 1101
VWidth: 3622
Flags: W
HStem: 4 72<333.528 636.42> 1034 20G<839.5 853>
VStem: 145 83<199.237 1017> 802 89<746.087 867.784 867.784 983.685 983.685 1010> 837 76<161.223 337.864>
Fore
939 14 m 0xe8
 898 14 867 43 837 173 c 1xe8
 845 357 l 1
 799 58 658 4 505 4 c 0
 289 4 145 86 145 493 c 2
 145 1017 l 1
 151 1034 167 1042 193 1042 c 0
 214 1042 225 1034 225 1017 c 2
 228 488 l 2
 238 272 237 76 497 76 c 0
 798 76 802 547 802 781 c 0
 802 884 799 884 799 953 c 0
 799 977 800 998 801 1014 c 0
 801 1046 834 1054 845 1054 c 0
 861 1054 889 1047 891 1010 c 2xf0
 913 200 l 2
 913 175 927 120 978 73 c 1
 981 66 983 58 983 51 c 0
 983 29 965 14 939 14 c 0xe8
EndSplineSet
EndChar
StartChar: v
Encoding: 118 118 89
Width: 1050
VWidth: 3622
Flags: MW
HStem: 21 87<491.276 578.299> 1050 20G<929.5 942.5>
Fore
968 1017 m 1
 962 1003 710 21 536 21 c 0
 373 21 187 793 138 927 c 0
 131 945 122 972 122 999 c 0
 122 1034 140 1040 152 1040 c 0
 161 1040 192 1035 210 1003 c 0
 235 952 431 108 536 108 c 0
 639 108 835 989 898 1052 c 0
 910 1064 923 1070 936 1070 c 0
 949 1070 968 1063 968 1017 c 1
EndSplineSet
EndChar
StartChar: w
Encoding: 119 119 90
Width: 1623
VWidth: 3622
Flags: W
HStem: 7 90<459.452 555.344> 7 110<1116.45 1213.21> 1059 20G<209.5 221.5 1419.5 1435.5>
VStem: 173 76<508.163 1041.29> 1390 85<461.164 1038.29>
Fore
1424 1079 m 1x78
 1447 1079 1462 1064 1475 1033 c 1
 1416 354 1298 7 1180 7 c 0x78
 1095 7 897 279 822 681 c 1
 760 440 640 7 508 7 c 0
 374 7 232 273 173 1054 c 1
 187 1065 203 1070 216 1070 c 0
 227 1070 238 1062 249 1047 c 1
 316 413 442 97 508 97 c 256xb8
 587 97 733 571 782 837 c 0
 787 856 800 865 821 865 c 0
 844 865 857 852 858 826 c 0
 866 592 1074 117 1178 117 c 0
 1220 117 1353 465 1390 1065 c 1
 1403 1072 1415 1076 1424 1079 c 1x78
EndSplineSet
EndChar
StartChar: x
Encoding: 120 120 91
Width: 1036
VWidth: 3622
Flags: MW
HStem: 1045 20G<160 195.5 822.5 841.5>
Fore
874 1019 m 0
 874 973 749 808 580 573 c 1
 971 51 l 1
 965 -1 936 -5 927 -5 c 0
 908 -5 892 6 877 28 c 1
 877 25 l 1
 688 262 l 2
 628 336 571 410 518 485 c 1
 343 260 263 175 177 28 c 0
 166 14 155 7 142 7 c 256
 111 7 103 27 103 44 c 0
 103 106 453 559 460 570 c 1
 312 776 l 2
 140 1016 140 987 129 1037 c 1
 129 1059 152 1065 168 1065 c 0
 223 1065 320 958 444 766 c 2
 522 649 l 1
 798 1044 l 1
 805 1059 815 1067 830 1067 c 0
 853 1067 874 1045 874 1019 c 0
EndSplineSet
EndChar
StartChar: y
Encoding: 121 121 92
Width: 1057
VWidth: 3622
Flags: W
HStem: 1034 20G<112 131 888.5 911.5>
VStem: 83 80<751.431 1003.33>
Fore
377 -534 m 0
 347 -534 336 -516 336 -504 c 0
 336 -498 338 -492 341 -485 c 2
 435 -252 l 2
 480 -138 534 5 534 69 c 0
 534 75 529 82 519 91 c 2
 481 124 l 2
 452 148 360 206 240 502 c 0
 160 701 108 912 83 1017 c 1
 89 1042 102 1054 122 1054 c 0
 140 1054 154 1043 163 1022 c 1
 297 498 432 230 564 166 c 1
 639 174 776 718 851 1022 c 1
 862 1047 878 1060 899 1060 c 0
 924 1060 937 1049 937 1026 c 1
 897 819 l 2
 864 653 793 403 638 6 c 2
 439 -488 l 1
 420 -519 399 -534 377 -534 c 0
EndSplineSet
EndChar
StartChar: z
Encoding: 122 122 93
Width: 1144
VWidth: 3622
Flags: MW
HStem: 0 55<870.304 960> 7 71<146.016 334.934 261.777 408.091 408.091 505.408 456.749 869.652> 955 62<295.046 954.976>
Fore
983 1040 m 0
 995 1040 1040 1027 1040 999 c 0
 1040 991 1036 983 1029 975 c 2
 648 562 l 1
 239 134 l 2
 207 100 191 80 191 73 c 0
 191 70 193 69 196 69 c 0
 223 69 250 72 330 74 c 2
 441 78 l 2
 482 79 525 80 570 80 c 0
 703 80 842 73 960 55 c 1
 972 49 978 38 978 23 c 256
 978 6 973 0 952 0 c 0
 913 0 823 18 614 18 c 0
 503 18 327 7 166 7 c 0
 142 7 101 28 101 51 c 0
 101 60 106 70 117 80 c 0
 302 292 466 470 610 616 c 2
 960 975 l 1
 929 969 832 955 640 955 c 0
 242 955 175 983 175 1024 c 0
 175 1047 197 1047 221 1047 c 1
 322 1031 436 1017 557 1017 c 0
 727 1017 749 1040 983 1040 c 0
EndSplineSet
EndChar
StartChar: braceleft
Encoding: 123 123 94
Width: 753
VWidth: 3622
Flags: W
HStem: -363 73<475.656 662.99> 1518 67<441.375 605.977 605.977 666.892>
VStem: 249 66<910.75 1376.89>
Fore
249 1210 m 2
 249 1427 379 1585 575 1585 c 0
 595 1585 616 1583 637 1580 c 1
 668 1580 674 1567 674 1548 c 256
 674 1525 666 1518 637 1518 c 0
 502 1518 315 1511 315 1127 c 2
 315 1047 l 2
 315 943 303 690 207 616 c 1
 366 535 272 317 354 -27 c 0
 405 -237 494 -290 612 -290 c 0
 654 -290 663 -311 663 -325 c 256
 663 -340 650 -363 608 -363 c 0
 282 -363 249 39 249 322 c 0
 249 600 106 522 106 621 c 0
 106 643 117 666 152 677 c 1
 152 681 l 1
 263 681 249 1137 249 1151 c 2
 249 1210 l 2
EndSplineSet
EndChar
StartChar: bar
Encoding: 124 124 95
Width: 504
VWidth: 3622
Flags: W
VStem: 209 81<-47.9087 728.023 728.023 1346.21 1346.21 1690.02 1518.12 2072.98 2058.12 2087.85 2087.85 2189.69>
Fore
221 2004 m 0
 221 2065 220 2146 214 2170 c 1
 214 2189 226 2199 249 2199 c 0
 261 2199 272 2197 283 2192 c 1
 296 2148 297 2049 297 1956 c 0
 297 1782 290 1599 290 1424 c 2
 290 837 l 2
 290 765 289 692 288 619 c 0
 276 -51 293 -4 270 -50 c 0
 263 -63 253 -69 239 -69 c 0
 219 -69 209 -57 209 -41 c 0
 209 1411 221 1540 221 2004 c 0
EndSplineSet
EndChar
StartChar: braceright
Encoding: 125 125 96
Width: 753
VWidth: 3622
Flags: MW
HStem: -363 71<130.775 229.498> 1519 66<124.854 333.047>
VStem: 460 65<-53.0981 407.219 894.991 1371.51>
Fore
101 1548 m 0
 101 1582 140 1585 200 1585 c 0
 395 1585 525 1427 525 1210 c 2
 525 1151 l 2
 525 879 545 681 623 681 c 1
 654 668 669 648 669 621 c 0
 669 578 624 554 616 550 c 0
 543 524 525 397 525 322 c 0
 525 3 486 -227 308 -328 c 0
 267 -351 216 -363 156 -363 c 0
 131 -361 111 -348 111 -325 c 256
 111 -284 169 -292 182 -292 c 0
 401 -292 456 41 456 249 c 0
 467 460 466 560 570 616 c 1
 451 703 460 1017 460 1090 c 2
 460 1128 l 2
 460 1418 346 1519 175 1519 c 0
 137 1519 101 1510 101 1548 c 0
EndSplineSet
EndChar
StartChar: asciitilde
Encoding: 126 126 97
Width: 981
VWidth: 3622
Flags: MW
HStem: 819 71<451.207 746.18> 893 66<230.13 489.911>
Fore
140 849 m 0
 140 862 185 959 320 959 c 0
 419 959 553 890 642 890 c 0
 697 890 740 941 766 941 c 0
 788 941 803 918 803 909 c 256
 803 893 739 819 631 819 c 0
 522 819 417 893 310 893 c 0
 255 893 213 817 173 817 c 0
 153 817 140 838 140 849 c 0
EndSplineSet
EndChar
StartChar: Euro
Encoding: 8364 8364 98
Width: 1749
VWidth: 3622
Flags: W
HStem: -4 84<875.413 1489.43> 587 83<28.0359 187.094 363 824.5 824.5 1286 1286 1341.98> 1072 90<28.7842 253 377 1347.02> 1680 96<823.846 1370.98>
VStem: 239 83<686.998 773.431 730.214 975.947> 287 90<1180.46 1376.23>
Fore
1686 137 m 0xf8
 1686 126 1681 116 1663 108 c 1
 1666 108 l 1
 1532 40 1351 -4 1162 -4 c 0
 721 -4 384 207 276 573 c 1
 90 573 l 2
 40 573 28 601 28 617 c 0
 28 631 39 663 90 663 c 2
 239 674 l 1xf8
 234 739 232 805 232 873 c 0
 232 941 239 1006 253 1068 c 1
 90 1072 l 2
 40 1072 28 1103 28 1120 c 0
 28 1135 38 1166 90 1166 c 2
 287 1162 l 1
 366 1539 687 1776 1093 1776 c 0
 1248 1776 1449 1738 1645 1634 c 0
 1673 1617 1685 1595 1685 1576 c 0
 1685 1551 1665 1529 1637 1529 c 0
 1596 1529 1383 1680 1090 1680 c 0
 837 1680 499 1565 377 1162 c 1xf4
 1286 1155 l 2
 1336 1155 1348 1127 1348 1108 c 0
 1348 1090 1336 1061 1286 1061 c 2
 345 1068 l 1
 330 996 322 914 322 822 c 0
 322 731 325 699 333 670 c 1
 1286 677 l 2
 1338 671 1344 639 1344 629 c 0
 1344 612 1330 587 1286 587 c 2
 363 577 l 1
 475 257 802 80 1189 80 c 0
 1501 80 1600 180 1640 180 c 0
 1667 180 1686 161 1686 137 c 0xf8
EndSplineSet
EndChar
StartChar: quotesinglbase
Encoding: 8218 8218 99
Width: 456
VWidth: 3622
Flags: W
HStem: -50 53<157.432 289.655> 163 60<155.316 288.582>
VStem: 90 59<9.49739 156.395> 316 65<-18.5185 154.239>
Fore
242 223 m 0
 330 223 381 142 381 61 c 0
 381 -112 176 -314 156 -341 c 1
 146 -350 135 -353 126 -353 c 0
 108 -353 94 -339 94 -324 c 0
 94 -313 99 -307 142 -260 c 2
 206 -185 l 2
 271 -107 297 -62 308 -28 c 1
 285 -43 257 -50 230 -50 c 0
 160 -50 90 -2 90 87 c 0
 97 173 172 223 242 223 c 0
316 93 m 0
 316 149 258 163 227 163 c 0
 190 163 149 140 149 90 c 0
 149 48 171 3 222 3 c 0
 309 3 316 79 316 93 c 0
EndSplineSet
EndChar
StartChar: florin
Encoding: 402 402 100
Width: 1383
VWidth: 3622
Flags: W
HStem: -178 78<86.3021 244.331 214.362 274.301> 934 65<329 605 699 1046.99> 1621 75<948.73 1172.19>
VStem: 605 90<436.803 934 999 1253.89>
Fore
1265 1643 m 0
 1265 1629 1260 1603 1230 1603 c 0
 1201 1603 1155 1621 1096 1621 c 0
 858 1621 723 1340 699 999 c 1
 1006 999 l 2
 1033 999 1047 982 1047 965 c 0
 1047 950 1034 934 1006 934 c 2
 695 934 l 1
 690 677 665 2 391 -134 c 0
 324 -167 254 -178 194 -178 c 0
 101 -178 35 -153 35 -115 c 0
 35 -94 68 -78 80 -73 c 1
 121 -92 146 -100 187 -100 c 0
 203 -100 220 -99 242 -97 c 0
 484 -87 605 289 605 934 c 1
 324 934 l 2
 306 934 294 950 294 967 c 0
 294 982 304 997 329 999 c 2
 616 999 l 1
 623 1162 669 1696 1094 1696 c 0
 1139 1696 1188 1690 1242 1677 c 1
 1257 1670 1265 1659 1265 1643 c 0
EndSplineSet
EndChar
StartChar: quotedblbase
Encoding: 8222 8222 101
Width: 971
VWidth: 3622
Flags: W
HStem: -50 54<157.46 288.234 631.46 762.234> 163 60<155.316 289.504 628.863 763.747>
VStem: 90 59<12.5107 156.395> 316 65<-39.4663 154.487> 564 59<12.5107 155.585> 790 65<-40.4445 153.637>
Fore
242 223 m 0
 330 223 381 142 381 61 c 0
 381 -112 176 -314 156 -341 c 1
 146 -350 135 -353 126 -353 c 0
 108 -353 94 -339 94 -324 c 0
 94 -316 93 -311 142 -260 c 2
 206 -185 l 2
 271 -107 297 -62 308 -28 c 1
 285 -43 257 -50 230 -50 c 0
 160 -50 90 -2 90 87 c 0
 97 173 172 223 242 223 c 0
316 96 m 0
 316 150 258 163 227 163 c 0
 190 163 149 140 149 90 c 0
 149 46 173 4 232 4 c 0
 276 4 316 52 316 96 c 0
715 223 m 0
 813 223 855 131 855 60 c 0
 855 -114 649 -319 630 -341 c 0
 620 -350 609 -353 600 -353 c 0
 582 -353 568 -340 568 -325 c 0
 568 -300 748 -135 782 -28 c 1
 759 -43 731 -50 704 -50 c 0
 634 -50 564 -2 564 87 c 0
 575 176 648 223 715 223 c 0
790 96 m 0
 790 150 732 163 701 163 c 0
 664 163 623 140 623 90 c 0
 623 46 647 4 706 4 c 0
 750 4 790 53 790 96 c 0
EndSplineSet
EndChar
StartChar: ellipsis
Encoding: 8230 8230 102
Width: 2608
VWidth: 3622
Flags: W
HStem: -4 177<369.609 520.945 1216.89 1368.64 2070.89 2224.1>
VStem: 356 180<11.3457 158.584> 1203 180<10.4003 159.08> 2057 182<11.6094 158.832>
Fore
446 -4 m 0
 394 -4 356 40 356 87 c 0
 356 131 396 173 446 173 c 0
 488 173 536 133 536 87 c 0
 536 36 487 -4 446 -4 c 0
1293 -4 m 0
 1247 -4 1203 37 1203 87 c 0
 1203 132 1245 173 1293 173 c 0
 1338 173 1383 133 1383 87 c 0
 1383 36 1337 -4 1293 -4 c 0
2147 -4 m 0
 2101 -4 2057 37 2057 87 c 0
 2057 132 2099 173 2147 173 c 0
 2193 173 2239 132 2239 87 c 0
 2239 37 2191 -4 2147 -4 c 0
EndSplineSet
EndChar
StartChar: dagger
Encoding: 8224 8224 103
Width: 1383
VWidth: 3622
Flags: W
HStem: 1075 91<193 256.823 256.823 320.01 320.01 570.777 570.777 623> 1086 85<725 1030.71>
VStem: 626 99<719.977 1079 1171 1745.35>
Fore
392 1075 m 2xa0
 353 1075 272 1073 193 1065 c 0
 168 1065 153 1087 153 1110 c 0
 153 1130 165 1150 193 1155 c 0
 352 1162 448 1166 512 1166 c 2
 626 1166 l 1xa0
 626 1706 l 2
 626 1733 651 1746 672 1746 c 0
 691 1746 725 1736 725 1695 c 2
 725 1171 l 1
 840 1171 l 2
 1175 1171 1182 1151 1182 1102 c 1
 1174 1078 1166 1071 1138 1071 c 0
 1097 1071 1012 1086 819 1086 c 2
 722 1086 l 1x60
 739 -65 l 1
 732 -96 712 -107 692 -107 c 0
 668 -107 646 -92 646 -73 c 2
 623 1079 l 1
 594 1076 559 1075 518 1075 c 2
 392 1075 l 2xa0
EndSplineSet
EndChar
StartChar: daggerdbl
Encoding: 8225 8225 104
Width: 1383
VWidth: 3622
Flags: W
HStem: 457 72<314.685 474.538 394.611 585.133 573.859 596.408 596.408 640 748.016 997.591> 1098 91<249.545 334.01 334.01 584.8 584.8 637 739 1044.31>
VStem: 640 99<539 1102 1192 1766.35> 660 94<-84.563 201 201 202.5 202.5 449>
Fore
1125 438 m 0xe0
 1117 438 1018 454 873 454 c 0
 833 454 789 453 746 449 c 1
 754 -44 l 1
 747 -75 726 -86 706 -86 c 0
 682 -86 660 -71 660 -51 c 2xd0
 649 453 l 1
 594 456 548 457 507 457 c 0
 405 457 334 450 239 446 c 0
 216 446 204 463 204 481 c 0
 204 502 221 525 260 525 c 0
 306 525 351 526 394 529 c 0
 474 529 518 531 553 531 c 0
 583 531 606 529 640 525 c 1
 637 1102 l 1
 608 1099 574 1098 532 1098 c 2
 408 1098 l 2
 328 1098 247 1092 207 1086 c 1
 183 1086 167 1109 167 1132 c 0
 167 1153 179 1173 207 1178 c 0
 366 1185 462 1189 526 1189 c 2
 640 1189 l 1
 640 1727 l 2
 640 1754 665 1767 686 1767 c 0
 704 1767 739 1757 739 1718 c 2
 739 1192 l 1
 854 1192 l 2
 1185 1192 1196 1176 1196 1123 c 1
 1187 1100 1182 1093 1157 1093 c 0
 1121 1093 1040 1109 833 1109 c 2
 736 1109 l 1
 743 539 l 1
 935 539 1070 528 1127 522 c 0
 1157 522 1173 501 1173 480 c 0
 1173 459 1157 438 1125 438 c 0xe0
EndSplineSet
EndChar
StartChar: circumflex
Encoding: 710 710 105
Width: 1162
VWidth: 3622
Flags: MW
HStem: 1690 291 1910 71<474.245 645.201>
Fore
308 1709 m 2
 295 1696 280 1690 267 1690 c 0
 251 1690 238 1699 238 1714 c 0
 238 1721 241 1730 249 1740 c 1
 375 1858 l 2
 468 1941 523 1981 573 1981 c 0
 629 1981 678 1932 762 1839 c 2
 881 1709 l 2
 884 1705 885 1701 885 1698 c 0
 885 1685 870 1676 851 1676 c 0
 837 1676 821 1682 808 1696 c 0
 625 1882 620 1910 564 1910 c 0
 522 1910 498 1892 410 1807 c 2
 308 1709 l 2
EndSplineSet
EndChar
StartChar: perthousand
Encoding: 8240 8240 106
Width: 2228
VWidth: 3622
Flags: W
HStem: 104 76<1081.67 1318.34 1714.28 1948.06> 543 80<1078.11 1320.82 1707.65 1952.46> 946 76<393.886 630.801> 1383 80<390.11 632.825>
VStem: 249 80<1088.73 1322.97> 692 65<1083.93 1321.79> 937 80<246.005 482.969> 1380 65<244.305 481.79> 1569 80<243.237 483.339> 2011 66<243.646 481.472>
Fore
1152 1584 m 0
 1176 1584 1192 1563 1192 1543 c 0
 1192 1534 1189 1524 1182 1514 c 1
 577 28 l 1
 558 7 534 -5 515 -5 c 0
 498 -5 486 4 486 23 c 0
 486 30 488 40 493 51 c 2
 1109 1555 l 2
 1119 1575 1136 1584 1152 1584 c 0
515 1463 m 0
 687 1463 757 1313 757 1199 c 0
 757 1117 709 946 515 946 c 0
 313 946 249 1116 249 1206 c 256
 249 1288 302 1463 515 1463 c 0
518 1022 m 0
 617 1022 683 1099 692 1196 c 0
 692 1253 658 1383 518 1383 c 0
 403 1383 329 1304 329 1210 c 0
 329 1117 394 1022 518 1022 c 0
1203 623 m 0
 1375 623 1445 473 1445 359 c 0
 1445 282 1402 104 1203 104 c 0
 1001 104 937 274 937 366 c 256
 937 448 990 623 1203 623 c 0
1206 180 m 0
 1305 180 1371 259 1380 356 c 0
 1380 413 1346 543 1206 543 c 0
 1091 543 1017 464 1017 370 c 0
 1017 278 1081 180 1206 180 c 0
1832 623 m 0
 2012 623 2077 460 2077 359 c 0
 2077 279 2030 104 1832 104 c 0
 1637 104 1569 272 1569 366 c 256
 1569 448 1622 623 1832 623 c 0
1836 180 m 0
 1935 180 2002 259 2011 356 c 0
 2011 412 1976 543 1836 543 c 0
 1715 543 1649 458 1649 370 c 0
 1649 280 1708 180 1836 180 c 0
EndSplineSet
EndChar
StartChar: guilsinglleft
Encoding: 8249 8249 108
Width: 677
VWidth: 3622
Flags: W
HStem: 235 80<405.978 622.316> 1003 76<387.511 587>
VStem: 131 87<558.718 740.227>
Fore
131 656 m 0
 131 741 322 1004 587 1079 c 1
 630 1076 646 1061 646 1045 c 0
 646 1027 625 1008 598 1003 c 1
 365 924 218 700 218 656 c 0
 218 589 381 363 570 315 c 0
 601 307 614 289 614 272 c 0
 614 253 597 235 573 235 c 1
 329 291 131 567 131 656 c 0
EndSplineSet
EndChar
StartChar: OE
Encoding: 338 338 109
Width: 2509
VWidth: 3622
Flags: W
HStem: 7 90<647.521 1390.65> 35 74<1828.08 2307.63> 56 78<1532 1705.65> 890 85<1553.35 1975.09 1975.09 2194.94 2194.94 2220 2220 2243.08> 1670 76<1397.01 1452 1546 1616.68 1616.68 1620.75 1618.72 2308.69> 1687 92<690.597 1220.67>
VStem: 117 86<553.096 1166.32> 1434 98<156 364.732> 1459 92<675.268 884 978 1104.64 1104.64 1428.95 1589.48 1659>
Fore
871 7 m 0x93
 502 7 117 260 117 854 c 256
 117 1471 523 1779 957 1779 c 0x97
 1241 1779 1353 1712 1456 1587 c 1
 1452 1673 l 1
 1417 1673 1397 1693 1397 1712 c 0
 1397 1729 1414 1746 1452 1746 c 0
 1524 1750 1721 1755 1922 1755 c 0
 2420 1755 2460 1732 2460 1696 c 0
 2460 1676 2445 1655 2416 1649 c 1
 2266 1658 l 2
 2122 1666 1952 1670 1791 1670 c 0
 1703 1670 1621 1666 1546 1659 c 1
 1549 1601 1551 1533 1551 1454 c 2
 1551 1231 l 2
 1551 1150 1549 1065 1546 978 c 1
 1589 976 1640 975 1697 975 c 2
 1873 975 l 2
 2216 975 2245 975 2245 911 c 0
 2245 893 2237 884 2220 884 c 2
 2217 881 2199 880 2169 880 c 0
 2081 880 1893 890 1728 890 c 0
 1663 890 1601 888 1551 884 c 1x1a80
 1532 134 l 1x3b
 1708 124 1837 109 1992 109 c 0x53
 2102 109 2224 116 2384 138 c 0
 2426 138 2441 113 2441 97 c 0x93
 2441 47 2283 35 2117 35 c 0x53
 1923 35 1632 56 1471 56 c 0x33
 1339 56 1282 7 871 7 c 0x93
203 861 m 0
 203 271 596 97 888 97 c 2
 1056 97 l 2
 1278 97 1394 142 1434 156 c 1x97
 1459 884 l 1
 1459 1212 l 2x9680
 1459 1299 1457 1388 1452 1431 c 1
 1369 1596 1221 1687 937 1687 c 0
 566 1687 203 1416 203 861 c 0
EndSplineSet
EndChar
StartChar: quoteleft
Encoding: 8216 8216 110
Width: 626
VWidth: 3622
Flags: W
HStem: 1015 59<236.12 386.775> 1235 53<252.435 386.462>
VStem: 161 67<1083.08 1282.68> 394 59<1081.87 1227.46>
Fore
298 1015 m 0
 243 1015 161 1047 161 1182 c 0
 161 1335 284 1445 308 1479 c 1
 318 1487 328 1491 337 1491 c 0
 355 1491 370 1477 370 1462 c 0
 370 1457 369 1453 366 1449 c 2
 296 1372 l 2
 272 1344 252 1309 235 1268 c 1
 259 1281 287 1288 315 1288 c 0
 385 1288 453 1244 453 1151 c 0
 446 1067 370 1015 298 1015 c 0
311 1235 m 0
 259 1235 228 1191 228 1155 c 0
 228 1101 270 1074 312 1074 c 0
 353 1074 394 1100 394 1148 c 0
 394 1195 372 1235 311 1235 c 0
EndSplineSet
EndChar
StartChar: quoteright
Encoding: 8217 8217 111
Width: 626
VWidth: 3622
Flags: W
HStem: 1218 53<211.056 345.411> 1431 60<209.309 361.791>
VStem: 145 58<1278.61 1422.74> 370 67<1223.94 1402.9>
Back
298 1015 m 4
 205 1015 150 1090 145 1151 c 4
 145 1244 213 1288 283 1288 c 4
 310 1288 339 1281 363 1268 c 5
 345 1309 324 1344 300 1372 c 6
 232 1449 l 6
 229 1453 228 1458 228 1462 c 4
 228 1477 242 1491 260 1491 c 4
 269 1491 279 1487 290 1479 c 5
 311 1449 437 1331 437 1180 c 4
 437 1063 369 1015 298 1015 c 4
286 1075 m 4
 353 1075 370 1129 370 1155 c 4
 370 1190 339 1235 287 1235 c 4
 225 1235 203 1194 203 1148 c 4
 203 1098 245 1075 286 1075 c 4
EndSplineSet
Fore
298 1491 m 0
 205 1491 150 1416 145 1355 c 0
 145 1262 213 1218 283 1218 c 0
 310 1218 339 1225 363 1238 c 1
 345 1197 324 1162 300 1134 c 2
 232 1057 l 2
 229 1053 228 1048 228 1044 c 0
 228 1029 242 1015 260 1015 c 0
 269 1015 279 1019 290 1027 c 1
 311 1057 437 1175 437 1326 c 0
 437 1443 369 1491 298 1491 c 0
286 1431 m 0
 353 1431 370 1377 370 1351 c 0
 370 1316 339 1271 287 1271 c 0
 225 1271 203 1312 203 1358 c 0
 203 1408 245 1431 286 1431 c 0
EndSplineSet
EndChar
StartChar: quotedblleft
Encoding: 8220 8220 112
Width: 937
VWidth: 3622
Flags: W
HStem: 1004 60<233.779 390.392 580.456 732.161> 1224 53<263.358 379.952 596.598 730.888> 1461 20G<334.5 348>
VStem: 161 67<1072.65 1271.6> 394 59<1071.19 1216.97> 506 67<1083.9 1281.99> 739 59<1082.25 1227.76>
Fore
643 1015 m 0
 587 1015 506 1049 506 1182 c 0
 506 1331 625 1444 653 1479 c 1
 663 1487 673 1491 682 1491 c 0
 700 1491 714 1477 714 1463 c 0
 714 1458 712 1454 709 1449 c 1
 641 1372 l 2
 617 1344 597 1309 580 1268 c 1
 603 1281 631 1288 659 1288 c 0
 728 1288 798 1246 798 1151 c 0
 791 1067 715 1015 643 1015 c 0
656 1235 m 0
 600 1235 573 1189 573 1155 c 0
 573 1101 615 1075 657 1075 c 0
 698 1075 739 1100 739 1148 c 0
 739 1193 717 1235 656 1235 c 0
299 1004 m 0
 227 1004 161 1054 161 1169 c 0
 161 1265 210 1354 266 1418 c 2
 308 1466 l 2
 319 1477 330 1481 339 1481 c 0
 357 1481 370 1466 370 1451 c 0
 370 1447 369 1442 366 1438 c 2
 296 1360 l 2
 272 1332 252 1298 235 1258 c 1
 260 1271 288 1277 316 1277 c 0
 387 1277 453 1234 453 1141 c 0
 446 1055 371 1004 299 1004 c 0
394 1137 m 0
 394 1186 371 1224 311 1224 c 0
 258 1224 228 1178 228 1144 c 0
 228 1090 271 1064 313 1064 c 0
 354 1064 394 1089 394 1137 c 0
EndSplineSet
EndChar
StartChar: quotedblright
Encoding: 8221 8221 113
Width: 937
VWidth: 3622
Flags: W
HStem: 1215 53<211.745 344.97 560.73 678.992> 1428 59<208.825 361.23 550.863 706.937>
VStem: 145 58<1276.46 1420.47> 370 67<1223.13 1418.68> 488 59<1287.6 1431.92> 713 67<1231.35 1430.18>
Fore
300 1487 m 0
 372 1487 437 1438 437 1323 c 0
 437 1171 309 1052 290 1024 c 1
 279 1015 269 1012 260 1012 c 0
 241 1012 228 1026 228 1041 c 0
 228 1045 229 1050 232 1054 c 2
 300 1132 l 2
 324 1159 345 1194 363 1235 c 1
 338 1222 309 1215 281 1215 c 0
 211 1215 145 1257 145 1351 c 0
 152 1436 228 1487 300 1487 c 0
287 1268 m 0
 339 1268 370 1312 370 1348 c 0
 370 1401 327 1428 284 1428 c 0
 243 1428 203 1403 203 1355 c 0
 203 1309 225 1268 287 1268 c 0
641 1498 m 0
 696 1498 780 1465 780 1334 c 0
 780 1238 731 1150 676 1085 c 0
 652 1057 626 1021 602 1021 c 0
 587 1021 572 1039 572 1051 c 0
 572 1056 574 1060 577 1065 c 1
 644 1142 l 2
 669 1171 689 1205 706 1245 c 1
 683 1233 655 1226 627 1226 c 0
 557 1226 488 1267 488 1362 c 0
 497 1449 570 1498 641 1498 c 0
547 1366 m 0
 547 1319 571 1279 630 1279 c 0
 689 1279 713 1328 713 1358 c 0
 713 1412 670 1439 628 1439 c 0
 587 1439 547 1414 547 1366 c 0
EndSplineSet
EndChar
StartChar: bullet
Encoding: 8226 8226 114
Width: 1174
VWidth: 3622
Flags: W
HStem: 154 54<614.735 799.677> 200 55<233.926 429.533> 416 54<470.545 607.101> 605 55<472.698 607.353> 848 60<693.224 893.424> 897 55<321.492 534.945>
VStem: 129 56<305.29 471.939> 223 52<646.044 849.156> 412 55<476.442 600.419> 612 58<491.636 572.581> 848 67<254.625 431.472> 943 61<590.492 797.28>
Fore
915 350 m 0x3bf0
 915 240 799 154 685 154 c 0xbbf0
 649 154 543 165 508 304 c 1
 449 230 386 200 329 200 c 0
 218 200 129 311 129 420 c 0
 129 466 149 562 301 591 c 1
 301 594 l 1
 245 658 223 717 223 767 c 0
 223 881 338 952 440 952 c 0x77f0
 509 952 608 914 619 778 c 1
 672 863 732 908 810 908 c 0
 918 908 1004 810 1004 701 c 0
 1004 619 962 541 844 497 c 1
 894 447 915 396 915 350 c 0x3bf0
613 689 m 0
 604 689 580 694 580 713 c 0
 576 870 487 897 426 897 c 0
 327 897 275 806 275 751 c 0
 275 710 298 665 345 616 c 1
 355 611 360 598 360 584 c 0
 360 566 352 546 333 543 c 0
 199 519 185 437 185 407 c 0
 185 334 254 255 332 255 c 0x77f0
 381 255 434 285 478 363 c 1
 482 378 495 384 508 384 c 0
 524 384 539 375 539 363 c 1
 564 253 630 208 696 208 c 0
 773 208 848 271 848 362 c 0
 848 413 828 449 778 488 c 1
 780 488 780 489 780 490 c 0
 780 494 775 503 775 511 c 0
 775 519 780 526 798 529 c 1
 904 569 943 631 943 691 c 0
 943 765 878 848 795 848 c 0
 651 848 663 689 613 689 c 0
539 660 m 0
 651 660 670 570 670 539 c 0
 670 457 602 416 535 416 c 0
 473 416 412 452 412 525 c 0
 412 593 437 660 539 660 c 0
543 470 m 0
 607 470 612 531 612 539 c 0
 612 558 598 605 539 605 c 0
 489 605 467 566 467 532 c 0
 467 492 507 470 543 470 c 0
EndSplineSet
EndChar
StartChar: endash
Encoding: 8211 8211 115
Width: 1561
VWidth: 3622
Flags: W
HStem: 736 74<107.966 751.686> 741 73<156.443 167.463 527.382 551.7 551.7 1002 1316.54 1550.65> 754 74<25.8695 167.463 880.997 1219.52 1219.52 1225.62 1222.57 1504.93>
Fore
16 794 m 0x20
 16 827 38 828 57 828 c 0x20
 109 828 230 810 524 810 c 0x80
 596 810 678 811 772 814 c 2x40
 1145 824 l 2
 1195 826 1245 827 1294 827 c 0
 1365 827 1435 825 1503 822 c 0
 1538 822 1551 807 1551 790 c 0
 1551 771 1532 749 1511 749 c 0
 1491 749 1451 754 1310 754 c 0x20
 1256 754 1200 753 1141 752 c 2
 742 741 l 2x40
 609 738 482 736 362 736 c 0x80
 240 736 138 742 55 754 c 0
 25 758 16 779 16 794 c 0x20
EndSplineSet
EndChar
StartChar: emdash
Encoding: 8212 8212 116
Width: 3125
VWidth: 3622
Flags: W
HStem: 746 73<2926.6 3049> 746 77<15.506 214.249 114.878 897.196 829.446 964.946 964.946 1976.23 1976.23 1977.21 1976.72 2956.02>
Fore
616 746 m 0x40
 28 746 15 757 15 799 c 0
 15 819 32 837 58 837 c 0
 193 826 593 823 862 823 c 0x40
 948 823 1021 824 1066 824 c 2
 1528 828 l 2
 1823 831 2140 833 2426 833 c 0
 2585 833 2870 832 3049 819 c 1
 3066 808 3073 797 3073 785 c 0
 3073 772 3063 758 3049 746 c 1x80
 2940 756 2774 757 2436 757 c 0
 2148 757 1814 754 1516 752 c 2
 1044 748 l 2
 889 747 747 746 616 746 c 0x40
EndSplineSet
EndChar
StartChar: tilde
Encoding: 732 732 117
Width: 781
VWidth: 3622
Flags: MW
HStem: 1527 143<66.9987 113.338> 1530 72<366.169 691.242> 1603 67<103.204 406.611>
Fore
52 1527 m 0
 36 1527 18 1543 18 1562 c 0
 18 1594 86 1670 232 1670 c 0
 372 1670 425 1602 557 1602 c 0
 692 1602 662 1651 713 1651 c 0
 728 1651 748 1639 748 1621 c 0
 748 1582 658 1530 564 1530 c 0
 444 1530 306 1603 208 1603 c 0
 102 1603 98 1527 52 1527 c 0
EndSplineSet
EndChar
StartChar: trademark
Encoding: 8482 8482 118
Width: 1862
VWidth: 3622
Flags: MW
HStem: 550 37<1565 1602> 1390 80<241.125 377 254.962 580.808 570.8 590.815 590.815 715.995 919.233 990.997>
VStem: 348 80<573.01 1387.44> 377 72<1189.14 1394> 801 80<584 1325.43> 1502 85<860.536 1388.84>
Fore
58 1416 m 0
 58 1448 94 1470 446 1470 c 0
 527 1470 627 1468 695 1463 c 0
 710 1460 716 1444 716 1428 c 0
 716 1409 709 1390 699 1390 c 2
 649 1390 l 2
 606 1395 568 1397 533 1397 c 0
 503 1397 476 1396 449 1394 c 1
 444 1341 428 612 428 612 c 2
 428 587 407 573 387 573 c 0
 361 573 348 586 348 612 c 2
 348 612 366 1262 377 1394 c 1
 250 1394 236 1380 94 1380 c 0
 75 1380 58 1398 58 1416 c 0
930 1475 m 0
 984 1475 1119 1357 1199 1079 c 1
 1265 1308 1436 1475 1492 1475 c 0
 1549 1475 1562 1336 1587 899 c 0
 1601 587 1602 587 1602 587 c 2
 1602 562 1590 550 1565 550 c 0
 1552 550 1538 554 1521 561 c 1
 1502 1042 l 2
 1489 1333 1484 1383 1482 1394 c 1
 1397 1376 1243 1061 1231 906 c 0
 1231 870 1219 855 1204 855 c 0
 1188 855 1170 873 1162 899 c 0
 1132 1055 1013 1394 934 1394 c 0
 913 1394 881 1115 881 584 c 1
 866 566 852 557 840 557 c 0
 825 557 810 562 801 577 c 1
 807 1279 853 1475 930 1475 c 0
EndSplineSet
EndChar
StartChar: guilsinglright
Encoding: 8250 8250 120
Width: 677
VWidth: 3622
Flags: MW
HStem: 272 80<103.832 311.474> 1040 76<89.5248 261.03>
VStem: 488 89<591.715 781.848>
Fore
577 692 m 0
 577 604 382 332 134 272 c 1
 109 272 92 290 92 309 c 0
 92 326 105 344 138 352 c 0
 330 402 488 624 488 692 c 0
 488 738 343 957 108 1040 c 1
 80 1045 60 1064 60 1082 c 0
 60 1098 77 1114 120 1116 c 1
 395 1032 577 775 577 692 c 0
EndSplineSet
EndChar
StartChar: oe
Encoding: 339 339 121
Width: 2492
VWidth: 3622
Flags: W
HStem: -4 108<467.293 977.354 1664.77 2104.14> 656 76<1912.06 2264.61> 1174 105<1685.09 2112.04> 1189 93<481.294 924.234>
VStem: 90 106<366.527 877.714> 1247 143<387.051 623> 2384 94<755.252 917.093>
Fore
2384 400 m 0xee
 2418 400 2440 363 2440 335 c 0
 2440 241 2211 -0 1905 0 c 0
 1478 0 1361 287 1318 377 c 1
 1247 124 1006 -4 706 -4 c 0
 477 -4 90 111 90 587 c 0
 90 911 217 1282 725 1282 c 0xde
 1151 1282 1299 933 1311 861 c 1
 1348 947 1469 1279 1898 1279 c 0
 2251 1279 2478 1016 2478 808 c 0
 2478 693 2454 655 2406 655 c 0
 2401 655 2396 655 2391 656 c 1
 2291 656 1789 655 1390 623 c 1
 1390 600 l 2
 1390 291 1577 108 1905 108 c 0
 1992 108 2240 146 2351 384 c 1
 2359 394 2371 400 2384 400 c 0xee
706 104 m 0
 1033 104 1247 244 1247 580 c 0
 1247 1052 934 1189 725 1189 c 0
 408 1189 196 1021 196 587 c 0
 196 201 495 104 706 104 c 0
1960 743 m 0
 2016 743 2384 747 2384 764 c 0
 2384 911 2233 1174 1894 1174 c 0xee
 1592 1174 1429 953 1390 732 c 1
 1469 739 1848 743 1960 743 c 0
EndSplineSet
EndChar
StartChar: exclamdown
Encoding: 161 161 125
Width: 560
VWidth: 3622
Flags: W
HStem: 881 194<193.68 357.867>
VStem: 184 182<-390.852 -172.315 942.738 1058.38> 235 80<593.315 743>
Fore
275 -402 m 0xc0
 249 -402 184 -392 184 -322 c 2xc0
 235 743 l 1
 240 764 256 774 273 774 c 0
 291 774 310 762 315 743 c 1xa0
 366 -322 l 2
 361 -391 300 -402 275 -402 c 0xc0
279 1075 m 0
 332 1075 369 1035 373 982 c 0
 373 951 358 881 279 881 c 0
 215 881 177 921 177 975 c 0
 177 1021 210 1075 279 1075 c 0
EndSplineSet
EndChar
StartChar: cent
Encoding: 162 162 126
Width: 1383
VWidth: 3622
Flags: MW
VStem: 184 75<609.116 1071.54> 706 71<1479 1706.99> 713 83<-8.98749 50 50 230>
Fore
1232 1141 m 0
 1232 1126 1221 1111 1203 1111 c 0
 1170 1111 1149 1151 1148 1153 c 0
 1055 1321 917 1408 763 1408 c 0
 513 1408 259 1168 259 855 c 0
 259 640 359 302 759 302 c 0
 1035 302 1171 466 1219 654 c 0
 1231 719 1255 729 1264 729 c 0
 1271 729 1295 720 1295 669 c 0
 1295 533 1140 268 796 233 c 1
 798 57 l 2
 798 8 771 -9 753 -9 c 0
 737 -9 716 5 713 50 c 2
 706 230 l 1
 346 258 184 521 184 830 c 256
 184 1143 358 1428 706 1479 c 1
 706 1645 l 2
 706 1695 727 1707 740 1707 c 0
 755 1707 777 1693 777 1645 c 2
 777 1479 l 1
 1093 1471 1232 1152 1232 1141 c 0
EndSplineSet
EndChar
StartChar: sterling
Encoding: 163 163 127
Width: 1372
VWidth: 3622
Flags: W
HStem: 2 191<230 471> 14 55<739.305 1042.52> 598 62<240.24 474 591 858> 1064 21G<1052 1065.5> 1403 63<549.068 883.12>
VStem: 308 72<909.946 1234.6> 550 69<255.308 507.638>
Fore
1174 205 m 0x7e
 1174 200 1140 14 896 14 c 0x7e
 745 14 616 123 458 123 c 0
 290 123 278 2 230 2 c 0
 216 2 206 8 206 22 c 0
 206 30 209 39 214 51 c 1
 270 122 357 185 471 193 c 1xbe
 509 254 550 334 550 428 c 0
 550 481 538 538 515 598 c 1
 276 598 l 2
 234 601 231 632 231 637 c 0
 231 652 246 660 276 660 c 2
 474 660 l 1
 326 917 308 998 308 1083 c 0
 308 1265 454 1466 709 1466 c 0
 1057 1466 1087 1141 1087 1099 c 0
 1087 1070 1071 1064 1060 1064 c 0
 1044 1064 1034 1081 1029 1113 c 0
 976 1385 797 1403 709 1403 c 0
 538 1403 380 1257 380 1079 c 0
 380 994 432 874 505 754 c 2
 561 660 l 1
 868 653 l 2
 897 653 911 647 911 633 c 0
 911 625 903 594 858 591 c 2
 591 598 l 1
 610 541 619 488 619 439 c 0
 619 338 574 238 547 187 c 1
 721 146 761 69 921 69 c 0
 1080 69 1101 233 1147 233 c 0
 1156 233 1174 224 1174 205 c 0x7e
EndSplineSet
EndChar
StartChar: currency
Encoding: 164 164 128
Width: 1759
VWidth: 3622
Flags: W
HStem: 193 90<671.933 1085.55> 1387 92<667.839 1086.85>
VStem: 235 94<622.067 983.853> 1427 94<683.562 1047.75>
Fore
279 194 m 0
 246 194 230 220 230 237 c 0
 230 246 235 257 246 269 c 2
 391 421 l 1
 287 548 235 686 235 833 c 0
 235 925 255 1092 391 1254 c 1
 246 1403 l 1
 235 1411 230 1421 230 1431 c 0
 230 1452 248 1481 276 1481 c 0
 286 1481 297 1476 308 1466 c 2
 456 1314 l 1
 617 1454 786 1479 877 1479 c 0
 1024 1479 1167 1427 1304 1323 c 1
 1377 1394 l 2
 1454 1472 1463 1476 1482 1476 c 0
 1503 1476 1529 1454 1529 1431 c 0
 1529 1422 1525 1413 1518 1403 c 1
 1369 1254 l 1
 1393 1226 1521 1086 1521 833 c 0
 1521 745 1503 578 1369 421 c 1
 1389 398 1413 373 1440 346 c 2
 1518 269 l 1
 1525 258 1529 248 1529 239 c 0
 1529 207 1497 190 1476 190 c 0
 1466 190 1458 194 1452 203 c 1
 1300 359 l 1
 1200 271 1056 193 877 193 c 0
 689 193 562 264 460 363 c 1
 421 315 367 269 308 207 c 0
 300 199 290 194 279 194 c 0
1427 833 m 0
 1427 1142 1169 1387 877 1387 c 0
 562 1387 329 1121 329 833 c 0
 329 513 601 283 877 283 c 0
 1184 283 1427 544 1427 833 c 0
EndSplineSet
EndChar
StartChar: yen
Encoding: 165 165 129
Width: 1361
VWidth: 3622
Flags: W
HStem: 11 21G<676.5 689.5> 536 67<127.009 170 170 640 713 1246.99> 886 64<127.008 170 170 409 557 789 941 1246.99> 1455 20G<188 204 1149 1171.5>
VStem: 640 89<11.0212 270.488> 640 69<320.512 536 603 692>
Fore
1161 1475 m 0xf4
 1182 1475 1197 1461 1197 1440 c 0
 1197 1437 1196 1434 1196 1431 c 1
 1079 1194 l 2
 1036 1108 991 1028 946 953 c 1
 941 950 l 1
 1203 953 l 2
 1234 949 1247 929 1247 922 c 0
 1247 917 1236 893 1203 893 c 2
 884 890 l 1
 812 730 744 692 709 692 c 1
 709 603 l 1xf4
 1203 610 l 1
 1234 606 1247 582 1247 576 c 0
 1247 574 1237 543 1203 543 c 2
 713 536 l 1
 729 55 l 2
 729 18 696 11 683 11 c 0
 670 11 640 16 640 48 c 2xf8
 640 536 l 1
 170 532 l 1
 139 538 127 561 127 568 c 0
 127 572 136 600 170 600 c 2
 640 603 l 1
 640 692 l 1
 599 700 528 756 467 886 c 1
 170 883 l 1
 138 888 127 906 127 912 c 0
 127 915 136 941 170 941 c 2
 409 941 l 1
 380 992 l 2
 244 1231 162 1433 162 1452 c 0
 162 1468 179 1479 197 1479 c 0
 211 1479 239 1473 246 1449 c 0
 288 1309 432 1039 497 946 c 1
 844 950 l 1
 881 1006 l 2
 959 1134 1054 1306 1113 1442 c 1
 1117 1460 1137 1475 1161 1475 c 0xf4
564 879 m 1
 595 812 626 766 684 766 c 0
 714 766 749 806 789 886 c 1
 557 886 l 1
 564 879 l 1
EndSplineSet
EndChar
StartChar: brokenbar
Encoding: 166 166 130
Width: 573
VWidth: 3622
Flags: W
VStem: 221 104<870 1695 870 1695 1366.47 1738.99> 221 87<-408.625 -387 -387 -58.0685 1366.47 1738.99> 239 86<110.068 439 826.007 1198.53> 239 69<870 1695>
Fore
281 826 m 0x80
 265 826 239 835 239 870 c 2x20
 221 1695 l 1x80
 228 1735 254 1739 266 1739 c 0
 284 1739 308 1730 308 1695 c 2x40
 325 870 l 1
 320 831 292 826 281 826 c 0x80
281 481 m 0
 266 481 239 473 239 439 c 2x20
 221 -387 l 1
 222 -395 230 -432 266 -432 c 0
 289 -432 308 -416 308 -387 c 2x40
 325 439 l 1
 321 464 305 481 281 481 c 0
EndSplineSet
EndChar
StartChar: section
Encoding: 167 167 131
Width: 1383
VWidth: 3622
Flags: W
HStem: -131 76<493.982 874.928> 1721 69<530.921 899.021>
VStem: 234 84<128.853 338.991 800.925 1125.77> 309 82<1287.07 1586.61> 998 76<67.0305 375.628> 1040 73<1431 1575.49> 1067 71<637.434 868.892>
Fore
675 -131 m 0xc8
 392 -131 234 70 234 307 c 0
 234 328 255 339 275 339 c 0
 296 339 318 327 318 304 c 0
 326 157 393 -55 692 -55 c 0
 942 -55 998 116 998 223 c 0xe8
 998 453 763 523 630 554 c 0
 290 632 231 819 231 953 c 0
 231 1068 281 1173 370 1242 c 1
 373 1242 l 1
 330 1306 309 1374 309 1440 c 0
 309 1624 468 1790 732 1790 c 0
 956 1785 1104 1650 1113 1442 c 1
 1108 1413 1089 1400 1072 1400 c 0
 1057 1400 1043 1411 1040 1431 c 0xd4
 1034 1537 970 1721 719 1721 c 0
 472 1721 391 1561 391 1430 c 0
 391 1280 492 1196 739 1130 c 0
 1030 1078 1138 930 1138 769 c 0xd2
 1138 649 1065 544 950 493 c 1
 1032 422 1074 321 1074 221 c 0
 1074 27 920 -131 675 -131 c 0xc8
994 940 m 0
 849 1086 585 1053 428 1182 c 1
 339 1140 313 1047 313 964 c 0
 313 640 671 673 888 536 c 1
 951 561 995 593 1020 634 c 0
 1034 656 1067 710 1067 778 c 0xc2
 1067 827 1050 884 994 940 c 0
EndSplineSet
EndChar
StartChar: dieresis
Encoding: 168 168 132
Width: 781
VWidth: 3622
Flags: W
HStem: 1412 176<85.7285 239.187 535.194 688.108>
VStem: 73 180<1426.5 1573.58> 522 180<1425.86 1574.27>
Fore
163 1412 m 0
 116 1412 73 1450 73 1502 c 0
 73 1543 112 1588 163 1588 c 0
 207 1588 253 1546 253 1502 c 0
 253 1449 204 1412 163 1412 c 0
612 1412 m 0
 566 1412 522 1450 522 1502 c 0
 522 1544 563 1588 612 1588 c 0
 658 1588 702 1545 702 1502 c 0
 702 1451 657 1412 612 1412 c 0
EndSplineSet
EndChar
StartChar: copyright
Encoding: 169 169 133
Width: 1828
VWidth: 3622
Flags: W
HStem: -11 91<683.588 1143.8> 311 94<753.8 1068.19> 1037 97<766.919 1039.04> 1387 95<686.202 1153.06>
VStem: 166 94<524.1 982.08> 529 94<536.2 887.428> 1155 96<462.791 659.573> 1542 89<510.698 969.125>
Fore
923 1482 m 0
 1430 1482 1631 1040 1631 732 c 0
 1631 366 1395 -11 923 -11 c 0
 438 -11 166 383 166 743 c 0
 166 1105 429 1482 923 1482 c 0
923 80 m 0
 1252 80 1522 340 1542 732 c 0
 1542 1032 1334 1387 923 1387 c 0
 528 1387 260 1087 260 768 c 0
 260 411 507 80 923 80 c 0
529 702 m 0
 529 1006 739 1134 927 1134 c 0
 996 1134 1062 1110 1123 1061 c 1
 1123 1064 1122 1067 1122 1070 c 0
 1122 1095 1136 1106 1152 1106 c 0
 1178 1106 1210 1078 1210 1026 c 2
 1210 934 l 1
 1204 900 1186 890 1168 890 c 0
 1152 890 1136 898 1130 902 c 1
 1021 1026 980 1037 912 1037 c 0
 760 1037 623 911 623 706 c 256
 623 465 807 405 909 405 c 0
 1106 405 1143 529 1155 608 c 0
 1162 641 1180 655 1199 655 c 0
 1224 655 1250 632 1251 598 c 1
 1225 394 1066 311 909 311 c 0
 710 311 529 432 529 702 c 0
EndSplineSet
EndChar
StartChar: ordfeminine
Encoding: 170 170 134
Width: 912
VWidth: 3622
Flags: W
HStem: 677 69<291.255 634.94> 693 64<814.536 891> 1459 59<312.189 605.347>
VStem: 87 65<894.086 1275.21> 732 69<850.355 883 1054 1271.75> 743 87<1380 1497.01>
Fore
453 746 m 0xb8
 666 746 732 840 732 1113 c 2
 729 1228 l 1
 700 1383 569 1459 463 1459 c 0
 239 1459 160 1231 152 1113 c 0
 152 944 212 746 453 746 c 0xb8
801 883 m 2
 801 821 807 757 891 757 c 1
 909 750 918 740 918 729 c 256
 918 691 886 693 879 693 c 2
 860 693 l 2x78
 774 693 747 724 736 798 c 1
 683 713 590 677 456 677 c 0
 161 677 87 908 87 1116 c 0
 87 1248 177 1518 460 1518 c 0
 598 1518 673 1457 736 1380 c 1
 743 1479 l 2
 746 1499 759 1509 780 1509 c 0
 820 1509 830 1493 830 1482 c 1xb4
 810 1410 801 1233 801 1054 c 2
 801 883 l 2
EndSplineSet
EndChar
StartChar: guillemotleft
Encoding: 171 171 135
Width: 1220
VWidth: 3622
Flags: MW
HStem: 417 80<543.567 681.745 918.644 1068.97>
VStem: 218 86<687.609 832.062> 587 87<675.796 820.001>
Fore
218 764 m 0
 218 834 355 1000 674 1116 c 1
 713 1114 732 1102 732 1081 c 0
 732 1058 715 1046 685 1040 c 0
 478 972 304 814 304 764 c 0
 304 714 451 552 656 497 c 0
 677 491 700 480 700 455 c 0
 700 431 677 417 660 417 c 1
 398 498 218 674 218 764 c 0
587 757 m 0
 587 839 774 1014 1044 1106 c 1
 1083 1103 1102 1091 1102 1070 c 0
 1102 1045 1080 1034 1054 1029 c 0
 841 959 674 801 674 754 c 0
 674 700 814 548 1026 485 c 0
 1064 475 1070 456 1070 444 c 0
 1070 425 1052 405 1029 405 c 1
 815 469 587 645 587 754 c 0
 587 757 l 0
EndSplineSet
EndChar
StartChar: logicalnot
Encoding: 172 172 136
Width: 1554
VWidth: 3622
Flags: MW
HStem: 877 91<517.514 1071.09 794.303 1292.85 1250.62 1335.08> 891 98<82.1161 965.646>
VStem: 1336 74<415.836 518.792 518.792 534.408 534.408 705.315 705.315 809.185 809.185 877>
Fore
1373 405 m 0
 1350 405 1336 416 1336 437 c 0
 1336 529 1334 500 1334 601 c 2
 1334 741 l 2
 1334 790 1335 836 1337 877 c 1
 1282 876 1224 876 1164 876 c 0
 1104 876 1042 876 978 877 c 0
 715 877 417 883 134 891 c 0
 100 891 81 920 81 946 c 0
 81 968 95 989 124 989 c 0
 468 974 750 968 1044 968 c 0
 1210 968 1310 972 1376 978 c 0
 1401 978 1406 973 1406 950 c 2
 1406 788 l 2
 1406 729 1407 674 1410 623 c 0
 1410 562 1411 503 1413 446 c 1
 1409 419 1395 405 1373 405 c 0
EndSplineSet
EndChar
StartChar: registered
Encoding: 174 174 137
Width: 1828
VWidth: 3622
Flags: W
HStem: -11 91<682.666 1138.67> 637 70<902 1070.37> 1049 77<808.893 1072.99> 1387 95<679.193 1145.24>
VStem: 166 94<525.917 985.685> 699 86<301.035 463.5 463.5 612 713 915.462 915.462 1033> 1159 95<786.344 975.918> 1542 89<509.425 974.944>
Fore
923 1482 m 0
 1436 1482 1631 1035 1631 732 c 0
 1631 401 1421 -11 923 -11 c 0
 433 -11 166 386 166 743 c 256
 166 1123 443 1482 923 1482 c 0
1542 732 m 0
 1542 1027 1338 1387 923 1387 c 0
 528 1387 260 1087 260 768 c 0
 260 417 508 80 922 80 c 0
 1252 80 1522 340 1542 732 c 0
699 594 m 0
 699 1070 667 1103 667 1111 c 0
 667 1129 691 1146 714 1146 c 0
 734 1146 738 1137 739 1130 c 1
 764 1113 l 1
 814 1122 860 1126 903 1126 c 0
 1101 1126 1254 1023 1254 874 c 0
 1254 716 1037 637 902 637 c 1
 1224 409 l 1
 1230 403 1232 397 1232 389 c 0
 1232 369 1210 329 1177 329 c 0
 1168 329 1160 331 1151 336 c 2
 785 612 l 1
 785 336 l 1
 781 311 759 301 738 301 c 0
 717 301 692 313 692 333 c 0
 692 437 699 490 699 594 c 0
1159 891 m 0
 1159 977 1034 1049 890 1049 c 0
 852 1049 812 1043 771 1033 c 1
 771 1001 772 840 785 713 c 1
 814 709 845 707 878 707 c 0
 1066 707 1159 791 1159 891 c 0
EndSplineSet
EndChar
StartChar: macron
Encoding: 175 175 138
Width: 781
VWidth: 3622
Flags: MW
HStem: 1558 58<90.118 417.521> 1567 64<60.833 122.817 389.727 393.934 391.831 611.127 605.362 616.892 616.892 691.44>
Fore
673 1564 m 0
 662 1564 650 1567 557 1567 c 0
 433 1567 353 1558 234 1558 c 0
 69 1558 53 1575 53 1601 c 0
 53 1627 61 1631 74 1631 c 0
 96 1631 140 1616 218 1616 c 0
 320 1616 451 1631 544 1631 c 0
 583 1631 622 1629 667 1624 c 0
 695 1624 702 1603 702 1592 c 0
 702 1578 689 1564 673 1564 c 0
EndSplineSet
EndChar
StartChar: degree
Encoding: 176 176 139
Width: 781
VWidth: 3622
Flags: W
HStem: 1174 61<251.081 527.224> 1707 64<253.005 527.207>
VStem: 90 76<1321.76 1615.94> 619 76<1324.1 1613.31>
Fore
394 1771 m 0
 649 1771 695 1576 695 1479 c 0
 695 1291 541 1174 387 1174 c 0
 174 1174 90 1330 90 1459 c 0
 90 1647 232 1771 394 1771 c 0
387 1235 m 0
 530 1235 619 1334 619 1475 c 0
 619 1545 576 1707 387 1707 c 0
 254 1707 166 1608 166 1459 c 0
 166 1323 267 1235 387 1235 c 0
EndSplineSet
EndChar
StartChar: plusminus
Encoding: 177 177 140
Width: 1123
VWidth: 3622
Flags: MW
HStem: 83 59<242 861> 714 63<260.911 402 402 445.831 445.831 522 591 648.693 648.693 797.359>
VStem: 525 66<455.035 481 488 600.054 600.054 713 787.512 838.823 813.168 960.952 952.114 969.789>
Fore
253 754 m 0
 253 768 261 777 371 777 c 0
 407 777 457 776 522 775 c 1
 517 790 512 834 512 881 c 0
 512 953 523 1033 559 1033 c 0
 580 1033 591 1024 591 1006 c 0
 587 969 586 936 586 900 c 0
 586 865 587 826 587 777 c 1
 792 777 l 1
 819 773 842 776 842 754 c 0
 842 721 774 714 708 714 c 0
 657 714 607 718 591 718 c 1
 591 576 584 647 584 481 c 0
 584 463 572 455 558 455 c 0
 542 455 525 467 525 488 c 2
 525 713 l 1
 279 722 l 2
 262 723 253 733 253 754 c 0
242 83 m 1
 861 83 l 1
 874 90 881 100 881 111 c 0
 881 124 874 135 861 142 c 1
 242 142 l 1
 235 135 232 124 232 111 c 256
 232 84 242 83 242 83 c 1
EndSplineSet
EndChar
StartChar: twosuperior
Encoding: 178 178 141
Width: 937
VWidth: 3622
Flags: W
HStem: 729 60<283 364.239 364.239 432.899 432.899 682.738 682.738 766.979> 1624 46<341.287 622.346>
VStem: 218 51<1396.89 1546.99> 699 68<1255.07 1545.68>
Fore
478 1670 m 0
 699 1670 754 1508 754 1413 c 0
 754 1297 684 1164 557 1083 c 0
 411 993 283 866 283 778 c 1
 424 786 448 789 518 789 c 0
 739 789 767 783 767 761 c 0
 767 753 764 722 743 722 c 1
 718 727 678 729 621 729 c 2
 446 729 l 2
 376 729 300 728 218 725 c 0
 209 725 207 726 207 732 c 0
 213 814 268 970 522 1120 c 0
 638 1189 699 1309 699 1413 c 256
 699 1483 660 1624 478 1624 c 0
 338 1624 278 1532 269 1406 c 0
 267 1395 255 1388 244 1388 c 0
 231 1388 218 1397 218 1420 c 0
 218 1553 330 1670 478 1670 c 0
EndSplineSet
EndChar
StartChar: threesuperior
Encoding: 179 179 142
Width: 887
VWidth: 3622
Flags: MW
HStem: 688 51<223.152 598.999> 1199 52<417 568.558> 1663 55<298.027 598.094>
VStem: 25 55<880.943 1083.85> 146 57<1392.15 1574.07> 677 55<1372.23 1585.5> 699 55<834.511 1105.24>
Fore
210 1390 m 1
 208 1373 192 1362 179 1362 c 0
 170 1362 161 1367 159 1380 c 1
 156 1380 l 1
 150 1406 146 1431 146 1455 c 0
 146 1613 284 1718 446 1718 c 0
 577 1718 732 1624 732 1456 c 0
 732 1415 720 1371 698 1326 c 0
 674 1281 632 1249 570 1231 c 1
 709 1202 754 1053 754 957 c 0
 754 849 667 688 435 688 c 0
 130 688 25 834 25 1054 c 0
 25 1080 34 1093 51 1093 c 0
 70 1093 80 1084 80 1065 c 0
 80 804 263 739 421 739 c 0
 629 739 699 866 699 950 c 0
 699 1149 558 1199 428 1199 c 0
 412 1199 398 1217 398 1232 c 0
 398 1241 403 1249 417 1251 c 0
 563 1269 677 1327 677 1475 c 0
 677 1529 632 1663 446 1663 c 0
 327 1663 203 1588 203 1449 c 0
 203 1430 205 1411 210 1390 c 1
EndSplineSet
EndChar
StartChar: acute
Encoding: 180 180 143
Width: 781
VWidth: 3622
Flags: W
HStem: 1381 436
VStem: 314 380
Fore
637 1817 m 0
 682 1817 694 1787 694 1762 c 0
 694 1749 691 1727 663 1703 c 2
 398 1410 l 2
 376 1391 358 1381 343 1381 c 0
 326 1381 314 1393 314 1412 c 0
 314 1425 319 1442 329 1463 c 1
 564 1779 l 1
 600 1814 623 1817 637 1817 c 0
EndSplineSet
EndChar
StartChar: mu
Encoding: 181 181 144
Width: 1528
VWidth: 3622
Flags: W
HStem: 2 92<533.405 925.28>
VStem: 226 92<-528.932 -133.614 -133.614 200 110.31 781.313 613 896.112> 242 99<957.888 1258.24> 1144 94<699.056 1271.91> 1151 103<41 93.1154 43.9669 408.698 368.824 573.944>
Fore
716 94 m 0xa0
 1011 94 1144 280 1144 649 c 2
 1144 1235 l 2
 1144 1265 1175 1272 1190 1272 c 0
 1211 1272 1238 1260 1238 1238 c 2xb0
 1254 35 l 2
 1254 12 1227 -6 1200 -6 c 0
 1178 -6 1156 7 1151 41 c 1
 1154 78 1155 113 1155 145 c 0
 1155 211 1152 246 1145 246 c 0
 1144 246 1076 2 715 2 c 0
 573 2 417 50 318 200 c 1
 318 -481 l 2
 318 -519 287 -529 273 -529 c 0
 248 -529 232 -510 232 -481 c 0
 229 -135 226 134 226 369 c 0xc8
 226 683 231 936 242 1228 c 0
 242 1249 263 1259 286 1259 c 0
 312 1259 341 1246 341 1224 c 2
 325 630 l 2
 325 619 324 607 324 596 c 0
 324 337 429 94 716 94 c 0xa0
EndSplineSet
EndChar
StartChar: paragraph
Encoding: 182 182 145
Width: 1383
VWidth: 3622
Flags: W
HStem: 1672 84<822.858 919.219>
VStem: 92 679<977.668 1422.95> 670 91<-74.8818 114.909 114.909 658.983> 677 102<481.322 667> 959 74<109.754 938.5 454.8 1572.31> 964 92<-84.982 108.442 1221 1641>
Fore
1056 -32 m 0x84
 1056 -83 1016 -85 1010 -85 c 0
 985 -85 964 -61 964 -25 c 0x84
 961 217 960 446 959 662 c 0
 959 883 957 994 957 1215 c 0
 957 1343 958 1471 960 1641 c 1
 950 1657 912 1672 870 1672 c 0
 834 1672 796 1661 771 1631 c 1xc8
 774 1545 779 1370 779 1082 c 0x90
 779 816 775 453 761 -25 c 0
 761 -57 737 -75 713 -75 c 0
 691 -75 670 -59 670 -25 c 0xa0
 677 126 681 277 681 478 c 0
 681 549 680 612 677 667 c 1x90
 381 667 92 842 92 1185 c 0
 92 1642 476 1756 775 1756 c 2
 830 1756 l 2
 997 1756 1045 1753 1045 1689 c 0
 1037 1431 1033 1197 1033 988 c 0xc8
 1033 229 1056 32 1056 -32 c 0x84
EndSplineSet
EndChar
StartChar: periodcentered
Encoding: 183 183 146
Width: 833
VWidth: 3622
Flags: W
HStem: 623 467<281.932 553.035>
VStem: 180 473<722.463 988.438>
Fore
417 1090 m 0
 546 1090 653 990 653 854 c 0
 653 718 543 623 417 623 c 0
 291 623 180 721 180 854 c 0
 180 991 293 1090 417 1090 c 0
EndSplineSet
EndChar
StartChar: cedilla
Encoding: 184 184 147
Width: 781
VWidth: 3622
Flags: MW
HStem: -500 62<180.921 425.366>
VStem: 456 66<-406.49 -253.045>
Fore
145 -411 m 0
 162 -411 204 -438 291 -438 c 0
 375 -438 456 -407 456 -318 c 0
 456 -185 234 -217 234 -171 c 0
 234 -170 234 -168 235 -166 c 2
 352 11 l 2
 360 22 374 27 386 27 c 0
 405 27 423 17 423 2 c 0
 423 -3 421 -8 417 -14 c 2
 329 -145 l 1
 514 -187 522 -272 522 -304 c 0
 514 -444 397 -500 282 -500 c 0
 220 -500 116 -477 116 -437 c 0
 116 -423 126 -411 145 -411 c 0
EndSplineSet
EndChar
StartChar: onesuperior
Encoding: 185 185 148
Width: 781
VWidth: 3622
Flags: W
HStem: 714 996<389.455 440.971>
VStem: 380 76<714.007 1197.5 1197.5 1597>
Fore
380 1597 m 1
 359 1556 315 1500 283 1466 c 2
 210 1394 l 1
 204 1391 198 1389 192 1389 c 0
 175 1389 158 1403 158 1420 c 0
 158 1459 250 1479 370 1703 c 0
 373 1708 377 1710 382 1710 c 0
 405 1710 442 1671 446 1656 c 1
 456 739 l 2
 456 724 434 714 414 714 c 0
 397 714 380 722 380 739 c 2
 387 1083 l 1
 380 1597 l 1
EndSplineSet
EndChar
StartChar: ordmasculine
Encoding: 186 186 149
Width: 912
VWidth: 3622
Flags: W
HStem: 699 86<295.478 623.489> 1434 87<295.113 622.633>
VStem: 41 101<938.35 1280.03> 775 99<932.719 1280.47>
Fore
453 1521 m 0
 694 1521 874 1355 874 1116 c 0
 874 814 616 699 453 699 c 0
 232 699 41 847 41 1102 c 0
 41 1372 257 1521 453 1521 c 0
456 785 m 0
 564 785 775 846 775 1109 c 0
 775 1266 670 1434 456 1434 c 0
 268 1434 142 1293 142 1106 c 0
 142 890 317 785 456 785 c 0
EndSplineSet
EndChar
StartChar: guillemotright
Encoding: 187 187 150
Width: 1220
VWidth: 3622
Flags: MW
HStem: 405 80<207 307.485 577 683.631>
VStem: 557 89<671.759 824.126> 927 87<686.219 833.969>
Fore
1014 764 m 0
 1014 657 788 483 573 417 c 1
 548 417 530 434 530 453 c 0
 530 469 543 487 577 497 c 0
 766 547 927 706 927 764 c 0
 927 819 760 963 547 1040 c 1
 519 1045 499 1064 499 1082 c 0
 499 1098 515 1114 557 1116 c 1
 759 1047 1014 885 1014 764 c 0
646 754 m 0
 646 651 429 477 203 405 c 1
 179 405 161 423 161 443 c 0
 161 460 174 477 207 485 c 0
 364 530 557 677 557 754 c 0
 557 798 420 941 177 1029 c 1
 149 1034 129 1053 129 1071 c 0
 129 1088 145 1103 187 1106 c 1
 423 1022 646 860 646 754 c 0
EndSplineSet
EndChar
StartChar: onequarter
Encoding: 188 188 151
Width: 1981
VWidth: 3622
Flags: W
HStem: 11 21G<1612 1626> 336 55<1198.88 1548.07 1543.19 1552.94 1552.94 1601> 1037 20G<1512.5 1523.5>
VStem: 363 76<696.007 1180 1180 1580> 1062 70<378.709 501.468> 1590 66<11.0081 194.5 194.5 197 197 345 412 557.599> 1618 55<618.401 802.684>
Fore
363 1580 m 1xf8
 341 1538 299 1484 265 1449 c 2
 193 1376 l 1
 187 1373 181 1371 175 1371 c 0
 157 1371 140 1385 140 1402 c 0
 140 1440 234 1464 352 1684 c 0
 355 1690 360 1692 366 1692 c 0
 389 1692 425 1656 428 1638 c 1
 439 722 l 2
 439 706 418 696 398 696 c 0
 380 696 363 704 363 722 c 2
 370 1065 l 1
 363 1580 l 1xf8
1438 336 m 0
 1299 336 1062 350 1062 408 c 0
 1062 431 1211 722 1496 1047 c 0
 1502 1054 1509 1057 1516 1057 c 0
 1531 1057 1544 1044 1544 1029 c 0
 1544 1014 1539 1023 1462 920 c 0
 1283 682 1132 458 1132 430 c 0
 1132 412 1192 391 1484 391 c 0
 1538 391 1577 392 1601 394 c 1
 1618 782 l 2
 1618 801 1630 810 1642 810 c 0
 1657 810 1673 798 1673 775 c 2xfa
 1659 412 l 1
 1815 431 1815 435 1832 435 c 2
 1836 436 1840 437 1844 437 c 0
 1860 437 1871 425 1871 411 c 0
 1871 405 1868 398 1863 391 c 1
 1863 388 1851 385 1826 382 c 2
 1656 359 l 1
 1645 35 l 2
 1645 20 1633 11 1619 11 c 0
 1605 11 1590 22 1590 44 c 2xfc
 1601 345 l 1
 1557 339 1503 336 1438 336 c 0
421 -7 m 0
 403 -7 384 8 384 31 c 0
 384 40 386 50 391 62 c 1
 1355 1670 l 1
 1363 1699 1382 1712 1400 1712 c 0
 1420 1712 1438 1697 1438 1673 c 0
 1438 1666 1437 1660 1434 1652 c 1
 460 28 l 1
 453 4 437 -7 421 -7 c 0
EndSplineSet
LCarets2: 2 0 0 
Ligature2: "'frac' Diagonal Fractions in Latin lookup 0 subtable" one fraction four
Ligature2: "'frac' Diagonal Fractions in Latin lookup 0 subtable" one slash four
EndChar
StartChar: onehalf
Encoding: 189 189 152
Width: 1981
VWidth: 3622
GlyphClass: 2
Flags: W
HStem: 41 55<1258 1337.91 1337.91 1351.72 1351.72 1536.34 1536.34 1686.01 1686.01 1732.29> 934 48<1316.5 1597.01>
VStem: 318 76<706.007 1190.5 1190.5 1590> 1192 50<708.37 854.186> 1673 69<566.952 858.657>
Fore
318 1590 m 1
 297 1549 253 1493 221 1459 c 2
 149 1387 l 1
 143 1383 137 1382 131 1382 c 0
 113 1382 96 1396 96 1414 c 0
 96 1452 192 1477 308 1695 c 0
 311 1701 316 1703 321 1703 c 0
 344 1703 381 1664 384 1649 c 1
 394 732 l 2
 394 716 374 706 354 706 c 0
 336 706 318 714 318 732 c 2
 325 1075 l 1
 318 1590 l 1
377 3 m 0
 355 3 340 25 340 43 c 0
 340 52 343 62 348 73 c 2
 1311 1680 l 1
 1319 1710 1338 1722 1356 1722 c 0
 1376 1722 1395 1708 1395 1684 c 0
 1395 1678 1393 1671 1390 1663 c 1
 417 41 l 1
 409 15 393 3 377 3 c 0
1452 982 m 0
 1673 982 1728 820 1728 725 c 0
 1728 608 1659 477 1532 394 c 0
 1385 305 1258 179 1258 90 c 1
 1338 94 1395 96 1444 96 c 0
 1537 96 1598 90 1718 83 c 0
 1735 81 1742 72 1742 61 c 0
 1742 47 1730 32 1718 32 c 1
 1693 38 1652 41 1596 41 c 2
 1420 41 l 2
 1349 41 1273 39 1192 35 c 0
 1184 35 1182 37 1182 44 c 0
 1188 126 1241 278 1496 432 c 0
 1622 503 1673 632 1673 725 c 256
 1673 792 1637 934 1452 934 c 0
 1386 934 1261 916 1242 718 c 0
 1240 707 1228 700 1217 700 c 0
 1204 700 1192 709 1192 732 c 0
 1192 865 1304 982 1452 982 c 0
EndSplineSet
LCarets2: 2 0 0 
Ligature2: "'frac' Diagonal Fractions in Latin lookup 0 subtable" one fraction two
Ligature2: "'frac' Diagonal Fractions in Latin lookup 0 subtable" one slash two
EndChar
StartChar: threequarters
Encoding: 190 190 153
Width: 1981
VWidth: 3622
Flags: W
HStem: 345 53<1373.25 1625.65 1625.65 1706.72> 366 55<1763 1875.26> 389 55<1814.1 1964.86> 688 51<221.87 598.551> 1045 20G<1616 1626> 1663 55<297.058 596.335>
VStem: 25 55<880.943 1083.85> 159 51<1367.38 1380 1380 1400.26 1400.26 1419.29 1409.77 1579.1> 677 55<1342.79 1583.57> 699 55<832.695 1105.64> 1167 69<387.512 441.461> 1695 65<19.0081 201.5 201.5 205 205 352 421 556.112> 1725 54<634.888 806>
Fore
1620 1065 m 0x9f30
 1632 1065 1650 1047 1650 1035 c 256
 1650 1017 1559 926 1372 656 c 2
 1296 542 l 2
 1290 532 1236 443 1236 437 c 0
 1236 404 1470 398 1632 398 c 2
 1690 398 l 2x9f30
 1695 398 1701 399 1707 402 c 1
 1725 789 l 2
 1725 806 1734 815 1751 815 c 0
 1770 814 1779 803 1779 782 c 2
 1763 421 l 1x5f28
 1830 426 1939 436 1949 444 c 1
 1966 444 1974 433 1974 410 c 0
 1974 397 1958 393 1930 389 c 2x3f28
 1760 366 l 1x5f30
 1749 44 l 2
 1749 27 1741 19 1726 19 c 0
 1705 19 1695 30 1695 51 c 2
 1707 352 l 1
 1674 348 1625 345 1542 345 c 0
 1399 345 1167 359 1167 414 c 0
 1167 421 1169 427 1174 432 c 1
 1237 567 1397 822 1601 1054 c 0
 1606 1061 1612 1065 1620 1065 c 0x9f30
490 41 m 0
 490 52 492 61 497 69 c 2
 1459 1677 l 1
 1466 1705 1481 1719 1503 1719 c 0
 1517 1719 1542 1711 1542 1679 c 0
 1542 1670 1542 1665 1539 1659 c 2
 564 35 l 1
 557 12 544 0 525 0 c 0
 511 0 490 10 490 41 c 0
210 1390 m 1
 205 1367 185 1362 179 1362 c 0
 167 1362 160 1368 159 1380 c 1
 156 1380 l 1
 152 1394 147 1410 147 1454 c 0
 147 1612 280 1718 446 1718 c 0
 581 1718 732 1617 732 1456 c 0x1fa0
 732 1379 694 1263 570 1231 c 1
 709 1202 754 1055 754 957 c 0
 754 866 680 688 435 688 c 0
 128 688 25 834 25 1054 c 0
 25 1080 34 1093 51 1093 c 0
 70 1093 80 1084 80 1065 c 0
 80 804 259 739 421 739 c 0
 631 739 699 866 699 950 c 0x1f60
 699 1149 558 1199 428 1199 c 0
 420 1199 398 1205 398 1233 c 0
 398 1268 528 1243 616 1326 c 0
 657 1364 677 1414 677 1475 c 0x1fa0
 677 1555 603 1663 446 1663 c 0
 315 1663 203 1577 203 1449 c 0
 203 1425 205 1405 210 1390 c 1
EndSplineSet
LCarets2: 2 0 0 
Ligature2: "'frac' Diagonal Fractions in Latin lookup 0 subtable" three fraction four
Ligature2: "'frac' Diagonal Fractions in Latin lookup 0 subtable" three slash four
EndChar
StartChar: questiondown
Encoding: 191 191 154
Width: 1068
VWidth: 3622
Flags: W
HStem: -529 90<383.322 756.732> 764 170<491.992 641.609>
VStem: 152 87<-290.485 34.4037> 481 172<775.83 922.091> 522 85<400.37 582.715> 884 87<-320.345 -58.0046>
Fore
564 934 m 0xf4
 615 934 653 895 653 847 c 0
 653 805 615 764 564 764 c 0
 523 764 481 802 481 847 c 0
 481 898 521 934 564 934 c 0xf4
554 -439 m 0
 839 -439 884 -273 884 -163 c 0
 884 -69 803 -17 729 7 c 0
 699 18 688 34 688 50 c 0
 688 72 709 92 729 97 c 1
 846 80 971 -7 971 -163 c 0
 971 -399 811 -529 557 -529 c 0
 272 -529 152 -303 152 -124 c 0
 152 90 289 147 464 378 c 0
 502 430 522 495 522 573 c 0
 522 599 546 611 570 616 c 1
 596 606 607 575 607 535 c 0xec
 607 460 567 353 514 294 c 0
 345 104 239 51 239 -124 c 0
 239 -236 302 -439 554 -439 c 0
EndSplineSet
EndChar
StartChar: Aring
Encoding: 197 197 160
Width: 1551
VWidth: 3622
Flags: W
HStem: 421 60<512.851 1017 1127 1184.99> 421 76<384 888.149> 1462 20<694.5 732.5> 1569 79<612.277 814.164> 1919 79<611.461 810.606>
VStem: 494 81<1684.21 1883.96> 849 78<1683.28 1880.81>
Back
697 2084 m 0x3c
 697 2193 780 2278 897 2278 c 0
 1005 2278 1095 2199 1095 2084 c 0
 1095 1960 1004 1884 897 1884 c 0
 788 1884 697 1959 697 2084 c 0x3c
1033 2084 m 0
 1033 2163 968 2216 897 2216 c 0
 821 2216 759 2159 759 2084 c 0
 759 2001 814 1942 897 1942 c 0
 969 1942 1033 1997 1033 2084 c 0
1376 573 m 1x7c
 1196 1109 l 2
 1127 1316 1070 1480 1025 1600 c 0
 980 1719 934 1779 888 1779 c 0
 824 1779 757 1713 570 1120 c 2
 380 580 l 1
 218 48 l 1
 218 43 l 2
 218 20 236 8 257 8 c 0
 276 8 298 18 311 41 c 1
 453 497 l 1
 1300 497 l 1
 1420 32 l 1
 1425 20 1441 13 1460 13 c 0
 1486 13 1514 26 1514 51 c 1
 1390 497 l 1
 1427 497 l 2
 1448 497 1459 508 1459 530 c 0
 1459 553 1450 567 1431 573 c 1
 1376 573 l 1x7c
481 591 m 1xbc
 508 643 545 757 580 870 c 2
 580 870 856 1673 881 1673 c 256
 886 1673 895 1655 909 1619 c 2
 963 1478 l 2
 985 1419 1008 1354 1032 1280 c 2
 1235 663 l 2
 1254 615 1246 612 1258 580 c 1
 481 591 l 1xbc
EndSplineSet
Refer: 229 730 N 1 0 0 1 209 150 2
Refer: 36 65 N 1 0 0 1 0 0 2
EndChar
StartChar: AE
Encoding: 198 198 161
Width: 2104
VWidth: 3622
Flags: W
HStem: 32 58<1315.88 1973.99> 757 55<508 1120> 899 54<1210.09 1896.09> 1665 60<928.863 985.347 978.5 992.194 1079.01 1120.48 1120.48 1930.55>
Fore
1984 64 m 0
 1984 51 1978 32 1956 32 c 2
 1307 32 l 2
 1288 32 1224 49 1224 111 c 1
 1130 757 l 1
 474 757 l 1
 94 32 l 2
 83 15 60 5 42 5 c 0
 28 5 17 11 17 24 c 0
 17 27 17 29 18 32 c 2
 902 1684 l 1
 908 1713 934 1727 968 1727 c 0
 975 1727 982 1726 989 1725 c 1
 1909 1728 l 2
 1932 1728 1942 1715 1942 1702 c 0
 1942 1688 1930 1673 1909 1673 c 2
 1130 1673 l 1
 1123 1675 1117 1676 1111 1676 c 0
 1090 1676 1079 1662 1079 1635 c 2
 1079 1627 l 1
 1120 1327 l 1
 1159 1006 l 2
 1162 971 1190 952 1210 952 c 0
 1212 952 1215 952 1217 953 c 1
 1866 953 l 2
 1891 953 1904 945 1904 930 c 0
 1904 918 1898 899 1873 899 c 2
 1217 899 l 1
 1199 895 1184 885 1184 870 c 0
 1184 867 1184 864 1185 861 c 2
 1293 124 l 1
 1293 97 1331 90 1362 90 c 2
 1949 90 l 2
 1972 88 1984 80 1984 64 c 0
1014 1597 m 2
 1006 1648 992 1665 978 1665 c 0
 957 1665 934 1629 920 1608 c 2
 508 812 l 1
 1120 812 l 1
 1014 1597 l 2
EndSplineSet
EndChar
StartChar: Eth
Encoding: 208 208 171
Width: 1890
VWidth: 3622
Flags: W
HStem: 6 65<405 466.176 466.176 487.069 476.622 927.444> 838 73<405 995.989> 853 72<19.0103 331 405 405> 1746 70<275.805 316.721 316.721 324>
VStem: 331 74<78 845 922 1746 1815.12 1827.43 1827.43 1834.98 1834.98 1892.99> 1544 76<650.997 1145.93>
Fore
366 1893 m 0xbc
 375 1893 409 1890 409 1847 c 0
 409 1839 408 1830 408 1823 c 0
 408 1819 408 1815 409 1811 c 1
 1181 1771 1595 1472 1620 888 c 0
 1579 301 1198 -8 528 -8 c 0
 481 -8 384 -7 290 6 c 2
 200 18 l 2
 174 21 164 39 164 58 c 0
 164 83 183 111 212 111 c 1
 324 78 l 1
 331 849 l 1
 78 853 l 2
 33 853 19 875 19 889 c 0
 19 903 33 925 78 925 c 2
 331 922 l 1
 324 1746 l 1
 279 1748 228 1762 228 1786 c 0
 228 1796 243 1816 309 1816 c 0
 316 1816 323 1815 331 1815 c 1
 332 1822 333 1830 333 1840 c 0
 333 1884 348 1893 366 1893 c 0xbc
996 874 m 0
 996 860 981 838 937 838 c 2
 405 845 l 1
 405 71 l 1
 461 66 516 64 569 64 c 0
 1126 64 1505 322 1544 888 c 0
 1537 1448 1080 1712 405 1753 c 1
 405 918 l 1
 937 911 l 2xdc
 981 911 996 889 996 874 c 0
EndSplineSet
EndChar
StartChar: multiply
Encoding: 215 215 178
Width: 1123
VWidth: 3622
Flags: MW
Fore
286 192 m 0
 286 244 524 529 536 543 c 1
 502 589 466 634 428 679 c 2
 304 826 l 2
 294 838 290 848 290 857 c 0
 290 872 303 881 321 881 c 0
 341 881 357 873 366 861 c 2
 475 738 l 2
 511 697 546 651 580 601 c 1
 778 861 l 1
 783 873 793 879 802 879 c 0
 818 879 835 864 835 844 c 0
 835 815 732 689 730 686 c 2
 619 543 l 1
 663 480 704 424 743 375 c 2
 888 196 l 1
 889 192 890 188 890 184 c 0
 890 165 874 154 856 154 c 0
 817 154 815 179 692 328 c 0
 689 332 628 406 577 481 c 1
 448 313 407 293 345 177 c 1
 335 167 324 162 314 162 c 0
 299 162 286 173 286 192 c 0
EndSplineSet
EndChar
StartChar: Oslash
Encoding: 216 216 179
Width: 1963
VWidth: 3622
Flags: W
HStem: 25 79<674.139 1238.74> 1666 87<678.959 1130.01>
VStem: 117 93<555.006 1143.88> 1750 84<585.964 1105.46>
Fore
1834 860 m 0
 1834 507 1640 25 906 25 c 0
 763 25 598 60 449 159 c 1
 290 -21 l 2
 275 -40 258 -48 243 -48 c 0
 222 -48 205 -32 205 -10 c 0
 205 2 210 15 221 28 c 2
 377 210 l 1
 328 255 117 454 117 819 c 0
 117 1392 445 1753 937 1753 c 0
 1163 1753 1371 1657 1503 1562 c 1
 1680 1767 l 2
 1697 1787 1713 1795 1727 1795 c 0
 1747 1795 1760 1777 1760 1756 c 0
 1760 1744 1756 1730 1746 1718 c 2
 1572 1507 l 1
 1764 1327 1834 1081 1834 860 c 0
937 1666 m 0
 632 1666 210 1492 210 819 c 0
 210 495 381 327 435 279 c 1
 1445 1496 l 1
 1234 1661 1008 1666 937 1666 c 0
960 104 m 0
 1329 104 1750 333 1750 854 c 0
 1750 1068 1643 1303 1514 1438 c 1
 504 225 l 1
 622 150 788 104 960 104 c 0
EndSplineSet
EndChar
StartChar: Thorn
Encoding: 222 222 185
Width: 1430
VWidth: 3622
Flags: W
HStem: 459 89<495.112 933.5> 1357 85<404.906 905.212>
VStem: 232 97<27.3118 529.887> 232 79<1080.64 1235 1358 1603.85 1603.85 1764.99> 1203 77<780.271 1115.02>
Fore
686 548 m 0xd8
 1000 548 1203 711 1203 954 c 0
 1203 1191 956 1357 663 1357 c 0
 549 1357 427 1332 311 1275 c 1
 323 1093 315 860 336 612 c 1
 453 570 573 548 686 548 c 0xd8
152 1254 m 0
 152 1284 232 1318 232 1318 c 1
 225 1710 l 2
 225 1749 247 1765 268 1765 c 0
 286 1765 304 1752 304 1732 c 0
 310 1631 311 1529 311 1478 c 0
 311 1358 l 1xd8
 418 1413 544 1442 670 1442 c 0
 967 1442 1280 1277 1280 943 c 0
 1280 660 1059 459 710 459 c 0
 581 459 450 487 333 532 c 1
 329 65 l 2
 329 44 299 26 272 26 c 0
 251 26 232 38 232 69 c 0xe8
 243 308 247 475 247 609 c 0
 247 851 235 983 235 1235 c 1
 196 1220 l 2
 190 1217 185 1215 180 1215 c 0
 163 1215 152 1238 152 1254 c 0
EndSplineSet
EndChar
StartChar: uni00DF
Encoding: 223 223 186
Width: 1455
VWidth: 3622
Flags: W
HStem: 0 62<711.815 1073.13> 1801 62<614.786 924.909>
VStem: 256 66<-455.161 1498.03> 830 65<931.824 1162.59> 1102 64<1395.91 1623.26> 1217 65<195.318 537.042>
Fore
196 -501 m 0
 196 -484 256 -388 256 -200 c 2
 253 1213 l 2
 260 1518 339 1706 524 1810 c 0
 587 1845 666 1863 761 1863 c 0
 998 1863 1166 1686 1166 1474 c 0
 1166 1404 1147 1338 1109 1275 c 1
 966 1222 895 1142 895 1033 c 0
 895 858 1039 808 1217 574 c 0
 1258 520 1280 454 1282 377 c 0
 1282 232 1200 0 870 0 c 0
 802 0 695 8 598 55 c 1
 586 64 581 77 581 89 c 0
 581 108 592 125 609 125 c 0
 622 125 729 62 874 62 c 0
 1160 62 1217 246 1217 356 c 0
 1217 618 1021 666 886 868 c 0
 848 922 830 978 830 1033 c 0
 830 1207 1036 1305 1075 1323 c 1
 1093 1366 1102 1411 1102 1455 c 0
 1102 1635 959 1801 754 1801 c 0
 411 1801 332 1498 325 1213 c 2
 322 -200 l 2
 322 -373 277 -486 265 -511 c 1
 256 -524 244 -529 232 -529 c 0
 213 -529 196 -517 196 -501 c 0
EndSplineSet
EndChar
StartChar: ae
Encoding: 230 230 193
Width: 2177
VWidth: 3622
Flags: W
HStem: -7 58<348.023 729.427> 0 68<1372.78 1690.22 1688.48 1691.95 1691.95 1770.99> 663 46<1691.96 2050> 668 65<527.035 947.238 945.477 949 949 985 1051 1409.04> 1196 65<358.635 782.877 1372.12 1796.57>
VStem: 152 62<176.611 466.848> 985 62<414.203 456 456 663 732 868.8> 2050 55<709 909.093>
Fore
601 1196 m 0x9f
 375 1196 254 1094 234 1094 c 0
 218 1094 204 1109 204 1124 c 0
 204 1134 209 1144 221 1151 c 0
 244 1166 373 1261 601 1261 c 0
 730 1261 828 1228 895 1161 c 0
 962 1094 1010 1010 1037 909 c 1
 1135 1087 1326 1261 1580 1261 c 0
 2016 1261 2105 882 2105 656 c 1
 1047 663 l 1
 1056 224 1316 68 1638 68 c 0
 1671 68 1705 70 1739 73 c 0
 1758 73 1771 53 1771 33 c 0
 1771 20 1765 0 1725 0 c 0x6f
 1702 -1 1680 -1 1659 -1 c 0
 1302 -1 1121 133 1022 380 c 1
 989 114 731 -7 508 -7 c 0
 274 -7 152 130 152 304 c 0
 152 627 521 733 913 733 c 0
 937 733 961 733 985 732 c 1
 985 920 908 1196 601 1196 c 0x9f
2050 709 m 1
 2050 854 1956 1206 1580 1206 c 0
 1248 1206 1078 932 1051 729 c 1
 2050 709 l 1
518 51 m 0x9f
 796 51 985 247 985 456 c 2
 985 667 l 1
 958 668 932 668 906 668 c 0
 573 668 399 611 288 506 c 0
 239 459 214 395 214 315 c 0
 214 157 356 51 518 51 c 0x9f
EndSplineSet
EndChar
StartChar: eth
Encoding: 240 240 203
Width: 1507
VWidth: 3622
Flags: W
HStem: -32 119<534.931 945.12> 1166 120<540.42 898.183>
VStem: 111 135<387.847 846.214> 1238 145<392.154 898.835>
Fore
405 1898 m 1
 603 1815 715 1744 785 1695 c 1
 1130 1863 l 1
 1182 1749 l 1
 891 1618 l 1
 1027 1515 1155 1376 1272 1166 c 0
 1335 1023 1383 862 1383 660 c 0
 1383 173 1046 -32 736 -32 c 0
 345 -32 111 266 111 608 c 0
 111 1018 426 1286 746 1286 c 0
 947 1286 1059 1221 1155 1137 c 1
 1037 1328 890 1463 768 1558 c 1
 356 1366 l 1
 311 1470 l 1
 656 1634 l 1
 613 1661 507 1722 348 1779 c 1
 405 1898 l 1
732 87 m 0
 1010 87 1238 275 1238 640 c 0
 1238 776 1215 916 1116 1022 c 1
 937 1166 808 1166 746 1166 c 0
 417 1166 246 893 246 612 c 0
 246 264 499 87 732 87 c 0
EndSplineSet
EndChar
StartChar: divide
Encoding: 247 247 210
Width: 1123
VWidth: 3622
Flags: MW
HStem: 366 204<467.674 637.49> 681 73<520.556 861.416> 756 68<255.035 551.805> 906 203<466.988 637.754>
VStem: 446 210<384.852 547.809 924.513 1088.61>
Fore
202 685 m 0
 188 685 169 689 169 709 c 0
 169 749 254 824 385 824 c 0
 527 824 556 754 714 754 c 0
 830 754 814 797 863 797 c 0
 884 797 902 787 902 773 c 0
 902 764 849 681 720 681 c 0
 592 681 455 756 367 756 c 0
 252 756 262 685 202 685 c 0
446 1006 m 0
 446 1068 506 1109 544 1109 c 0
 550 1109 l 0
 608 1109 656 1068 656 1006 c 0
 656 951 611 906 550 906 c 0
 493 906 446 950 446 1006 c 0
446 467 m 0
 446 528 508 570 547 570 c 0
 550 570 l 0
 607 570 656 529 656 467 c 0
 656 412 611 366 550 366 c 0
 493 366 446 411 446 467 c 0
EndSplineSet
EndChar
StartChar: oslash
Encoding: 248 248 211
Width: 1542
VWidth: 3622
Flags: W
HStem: -7 80<496.25 995.453> 1201 74<534.227 971.957>
VStem: 134 87<347.268 866.388> 1311 87<378.066 847.94>
Fore
254 -34 m 0
 227 -34 210 -11 210 13 c 0
 210 24 214 34 221 44 c 2
 311 152 l 1
 212 247 134 384 134 580 c 0
 134 1003 375 1275 736 1275 c 0
 861 1275 1007 1243 1134 1148 c 1
 1224 1258 l 2
 1233 1269 1244 1275 1256 1275 c 0
 1285 1275 1308 1254 1308 1229 c 0
 1308 1219 1305 1209 1297 1199 c 2
 1203 1086 l 1
 1331 958 1398 780 1398 605 c 0
 1398 295 1188 -7 732 -7 c 0
 622 -7 496 17 380 94 c 1
 294 -14 l 2
 283 -27 268 -34 254 -34 c 0
221 580 m 0
 221 412 276 293 359 210 c 1
 1086 1090 l 1
 1001 1160 879 1201 753 1201 c 0
 616 1201 474 1153 368 1044 c 0
 270 942 221 787 221 580 c 0
739 73 m 0
 947 73 1291 155 1311 584 c 0
 1311 780 1250 926 1155 1029 c 1
 432 152 l 1
 467 129 555 73 739 73 c 0
EndSplineSet
EndChar
StartChar: thorn
Encoding: 254 254 217
Width: 1597
VWidth: 3622
Flags: W
HStem: 27 86<546.113 1034.27> 1130 92<506.76 1001.58>
VStem: 304 80<227.268 978 1127 1370.5 1370.5 1528.85 1528.85 1729.97> 315 87<-496.404 -114 -114 117 214 567.801> 1358 84<420.123 820.291>
Fore
757 1130 m 0xe8
 605 1130 485 1088 384 1026 c 1
 394 783 392 497 412 214 c 1
 518 160 648 113 801 113 c 0
 1093 113 1358 296 1358 630 c 0
 1358 919 1079 1130 757 1130 c 0xe8
336 1730 m 0
 348 1730 373 1721 373 1687 c 0
 381 1496 384 1320 384 1127 c 1xe8
 492 1187 616 1222 768 1222 c 0
 1111 1222 1442 1020 1442 616 c 0
 1437 234 1166 27 817 27 c 0
 695 27 558 50 409 117 c 1
 402 -453 l 2
 402 -482 370 -502 340 -502 c 0
 321 -502 301 -493 301 -458 c 0
 301 -138 315 -74 315 182 c 0xd8
 315 421 304 819 304 978 c 1
 283 965 264 958 248 958 c 0
 227 958 212 971 212 996 c 0
 212 1012 241 1055 301 1075 c 1
 290 1666 l 2
 290 1721 325 1730 336 1730 c 0
EndSplineSet
EndChar
StartChar: ampersand.001
Encoding: 65540 -1 219
Width: 1538
VWidth: 3622
Flags: W
HStem: -29 70<484.895 936.4> 1701 85<458.708 783.344>
VStem: 145 83<307.843 697.513> 192 87<1197.17 1520.5> 940 94<1202.73 1538.46> 1382 79<415.417 820.906>
Fore
228 501 m 0xec
 228 299 367 41 702 41 c 0
 940 41 1107 172 1171 239 c 1
 1019 325 815 473 564 937 c 1
 350 893 228 700 228 501 c 0xec
279 1355 m 0xdc
 279 1247 338 1065 619 1065 c 0
 841 1065 940 1213 940 1366 c 0
 940 1534 821 1701 633 1701 c 0
 413 1701 279 1524 279 1355 c 0xdc
624 1786 m 0
 940 1786 1034 1526 1034 1377 c 0
 1034 1193 914 1012 656 978 c 1
 807 643 981 465 1224 308 c 1
 1325 325 1382 486 1382 633 c 0
 1382 797 1322 824 1322 860 c 0
 1322 880 1336 896 1356 896 c 0
 1419 896 1461 775 1461 647 c 0
 1461 514 1420 360 1327 253 c 1
 1400 192 1445 164 1532 126 c 2
 1618 90 l 2
 1637 82 1647 72 1647 61 c 0
 1647 54 1639 28 1611 28 c 0
 1603 28 1452 53 1254 200 c 1
 991 -19 827 -29 702 -29 c 0
 359 -29 145 212 145 507 c 0xec
 145 744 286 950 501 996 c 1
 303 1028 192 1202 192 1381 c 0
 192 1613 363 1786 624 1786 c 0
EndSplineSet
EndChar
StartChar: uni0E33.alt1
Encoding: 65541 -1 220
Width: 999
VWidth: 3622
Flags: W
HStem: 1231 62<295.325 647.601> 1542 52<-807.674 -618.389> 1817 56<-803.899 -616.032>
VStem: -879 49<1615.83 1790.17> -598 51<1615.26 1798.93> 120 53<930 1092.05> 785 59<30.8989 319 319 399.062 399.062 593.085 456.042 881.381 720.638 1042.01>
Back
117 941 m 0
 117 927 120.167 917 126.5 911 c 128
 132.833 905 139.833 902.333 147.5 903 c 128
 155.167 903.667 162.333 906.667 169 912 c 128
 175.667 917.333 178.333 924.667 177 934 c 1
 183 989.333 193.333 1035.5 208 1072.5 c 128
 222.667 1109.5 241.833 1139.5 265.5 1162.5 c 128
 289.167 1185.5 318 1202.17 352 1212.5 c 128
 386 1222.83 425.667 1229 471 1231 c 0
 565 1231 633.833 1209.83 677.5 1167.5 c 128
 721.167 1125.17 750 1066.33 764 991 c 0
 766.667 979 769.167 965 771.5 949 c 128
 773.833 933 776.167 911.667 778.5 885 c 128
 780.833 858.333 782.5 823.833 783.5 781.5 c 128
 784.5 739.167 785.333 685.333 786 620 c 128
 786.667 554.667 786.667 475.333 786 382 c 128
 785.333 288.667 784 178.333 782 51 c 0
 782 40.3333 784.833 33 790.5 29 c 128
 796.167 25 802.833 23.3333 810.5 24 c 128
 818.167 24.6667 825 27.3333 831 32 c 128
 837 36.6667 840 43 840 51 c 2
 851 587 l 2
 851 680.333 849.833 769.5 847.5 854.5 c 128
 845.167 939.5 832.5 1014.33 809.5 1079 c 128
 786.5 1143.67 748.5 1195.5 695.5 1234.5 c 128
 642.5 1273.5 565 1293 463 1293 c 0
 345.667 1293 259 1263 203 1203 c 128
 147 1143 118.333 1055.67 117 941 c 0
-605 1884 m 256
 -576.333 1884 -550 1879 -526 1869 c 128
 -502 1859 -481.167 1845.17 -463.5 1827.5 c 128
 -445.833 1809.83 -431.667 1789.17 -421 1765.5 c 128
 -410.333 1741.83 -405 1715.67 -405 1687 c 256
 -405 1659 -410.333 1632.83 -421 1608.5 c 128
 -431.667 1584.17 -445.833 1563.17 -463.5 1545.5 c 128
 -481.167 1527.83 -502 1514 -526 1504 c 128
 -550 1494 -576.333 1489 -605 1489 c 256
 -633 1489 -659.167 1494 -683.5 1504 c 128
 -707.833 1514 -728.833 1527.83 -746.5 1545.5 c 128
 -764.167 1563.17 -778.333 1584.17 -789 1608.5 c 128
 -799.667 1632.83 -805 1659 -805 1687 c 256
 -805 1715.67 -799.667 1741.83 -789 1765.5 c 128
 -778.333 1789.17 -764.167 1809.83 -746.5 1827.5 c 128
 -728.833 1845.17 -707.833 1859 -683.5 1869 c 128
 -659.167 1879 -633 1884 -605 1884 c 256
-605 1825 m 0
 -621.667 1825 -637.833 1821.5 -653.5 1814.5 c 128
 -669.167 1807.5 -683.833 1797.83 -697.5 1785.5 c 128
 -711.167 1773.17 -722.167 1758.5 -730.5 1741.5 c 128
 -738.833 1724.5 -743 1706.33 -743 1687 c 0
 -743 1647 -730.333 1613.5 -705 1586.5 c 128
 -679.667 1559.5 -646.333 1546 -605 1546 c 0
 -566.333 1546 -533.667 1559.5 -507 1586.5 c 128
 -480.333 1613.5 -467 1647 -467 1687 c 0
 -467 1726.33 -480.333 1758.67 -507 1784 c 128
 -533.667 1809.33 -566.333 1823 -605 1825 c 0
EndSplineSet
Refer: 361 63249 N 1 0 0 1 0 0 2
Refer: 282 3634 N 1 0 0 1 0 0 2
EndChar
StartChar: Lslash
Encoding: 321 321 222
Width: 1278
VWidth: 3622
Flags: W
HStem: 51 73<1115.84 1199> 71 69<528.465 1026.84>
VStem: 242 83<371.711 822 941 1043.39 1043.39 1062.72 1053.06 1465.67 1347.18 1584.16>
Fore
283 35 m 1x60
 260 35 242 42 242 69 c 2
 242 822 l 1
 28 670 l 2
 20 665 13 663 7 663 c 0
 -8 663 -18 675 -18 690 c 0
 -18 702 -11 716 4 729 c 2
 242 899 l 1
 240 976 239 1059 239 1148 c 0
 239 1333 245 1536 253 1732 c 0
 253 1769 278 1783 295 1783 c 0
 314 1783 336 1770 336 1739 c 0
 315 1560 315 1448 315 1185 c 0
 315 1098 317 1016 322 941 c 1
 688 1192 l 2
 696 1196 704 1198 711 1198 c 0
 729 1198 742 1185 742 1169 c 0
 742 1155 734 1141 713 1130 c 2
 325 865 l 1
 336 108 l 1
 437 128 576 140 766 140 c 0x60
 888 140 1031 135 1199 124 c 0
 1226 124 1238 108 1238 91 c 0
 1238 73 1224 54 1199 51 c 1xa0
 1190 52 988 71 752 71 c 0
 595 71 424 63 283 35 c 1x60
EndSplineSet
EndChar
StartChar: lslash
Encoding: 322 322 223
Width: 587
VWidth: 3622
Flags: W
HStem: 11 21G<276.5 298>
VStem: 235 101<1040 1818 1818.14 1865.49> 242 94<11.1426 447.5 447.5 847 1040 1825.91>
Fore
512 1196 m 0xc0
 532 1196 557 1187 557 1152 c 0
 557 1137 549 1119 532 1098 c 2
 341 913 l 1
 336 55 l 1
 329 23 308 11 288 11 c 0
 265 11 242 27 242 48 c 2xa0
 253 847 l 1
 117 746 l 2
 108 739 99 736 91 736 c 0
 65 736 47 769 47 801 c 0
 47 815 50 836 73 847 c 1
 235 968 l 1
 239 1818 l 1
 238 1821 238 1824 238 1826 c 0
 238 1854 265 1866 284 1866 c 0
 303 1866 336 1856 336 1815 c 2
 336 1040 l 1
 478 1182 l 2
 488 1191 500 1196 512 1196 c 0xc0
EndSplineSet
EndChar
StartChar: caron
Encoding: 711 711 226
Width: 1162
VWidth: 3622
Flags: MW
HStem: 1851 68<524.417 687.87> 1851 302
Fore
281 2122 m 0
 281 2137 295 2153 310 2153 c 0
 323 2153 338 2144 356 2126 c 2
 457 2028 l 2
 550 1935 578 1919 608 1919 c 0
 637 1919 669 1939 752 2026 c 2
 861 2147 l 2
 873 2161 887 2166 900 2166 c 0
 916 2166 930 2155 930 2141 c 0
 930 2136 928 2129 923 2123 c 0
 736 1906 677 1851 620 1851 c 0
 548 1851 479 1917 418 1973 c 2
 294 2091 l 2
 285 2102 281 2112 281 2122 c 0
EndSplineSet
EndChar
StartChar: breve
Encoding: 728 728 227
Width: 1086
VWidth: 3622
Flags: W
HStem: 1539 65<386.122 700.762>
VStem: 177 69<1750.58 1915.57> 840 66<1749.09 1929.99>
Fore
543 1604 m 0
 709 1604 831 1728 840 1894 c 0
 840 1919 856 1930 872 1930 c 0
 889 1930 906 1918 906 1898 c 0
 886 1697 750 1539 543 1539 c 0
 326 1539 184 1722 177 1894 c 0
 177 1924 204 1932 212 1932 c 0
 229 1932 246 1914 246 1894 c 0
 255 1729 379 1604 543 1604 c 0
EndSplineSet
EndChar
StartChar: dotaccent
Encoding: 729 729 228
Width: 573
VWidth: 3622
Flags: W
HStem: 1542 262<187.945 384.443>
VStem: 156 261<1573 1773.17>
Fore
287 1542 m 256
 203 1542 156 1604 156 1673 c 0
 156 1736 201 1804 287 1804 c 256
 370 1804 417 1737 417 1673 c 0
 417 1603 368 1542 287 1542 c 256
EndSplineSet
EndChar
StartChar: ring
Encoding: 730 730 229
Width: 1006
VWidth: 3622
Flags: W
HStem: 1419 79<403.277 605.164> 1769 79<402.461 601.606>
VStem: 285 81<1534.21 1733.96> 640 78<1533.28 1730.81>
Fore
504 1419 m 0
 383 1419 285 1509 285 1636 c 0
 285 1713 347 1848 504 1848 c 0
 652 1848 718 1716 718 1636 c 0
 718 1510 632 1419 504 1419 c 0
504 1769 m 0
 403 1769 366 1685 366 1636 c 0
 366 1555 429 1498 504 1498 c 256
 585 1498 640 1561 640 1636 c 0
 640 1682 599 1769 504 1769 c 0
EndSplineSet
EndChar
StartChar: uni0E01
Encoding: 3585 3585 233
Width: 1455
VWidth: 3622
Flags: W
HStem: 1254 64<469.455 960.509>
VStem: 67 62<884 987.926> 357 62<-56.5332 26.9336 26.9336 28.7768> 409 62<385.535 664.123> 1209 63<-26.4589 58.9463 58.9463 137.984 137.984 881.232>
Fore
1272 177 m 0xd8
 1272 83 1275 12 1279 -58 c 0
 1279 -76 1268 -85 1245 -85 c 0
 1214 -85 1209 19 1209 98 c 0
 1209 133 1210 163 1210 177 c 0
 1191 960 1191 1254 716 1254 c 0
 352 1249 129 999 129 884 c 1
 201 858 164 869 218 850 c 2
 278 830 l 2
 433 780 445 753 458 695 c 0
 466 654 471 604 471 547 c 0xd8
 471 468 466 389 458 312 c 2
 419 -35 l 2
 419 -55 408 -65 387 -65 c 0
 367 -65 357 -55 357 -35 c 0xe8
 357 -9 360 26 365 70 c 2
 383 216 l 2
 396 316 409 437 409 547 c 0
 409 654 401 704 382 718 c 1
 346 737 308 744 237 775 c 2
 120 822 l 2
 85 837 67 857 67 884 c 0
 67 1012 296 1313 716 1318 c 0
 1277 1318 1249 958 1272 177 c 0xd8
EndSplineSet
EndChar
StartChar: uni0E02
Encoding: 3586 3586 234
Width: 1068
VWidth: 3622
Flags: W
HStem: 0 58<542.214 781.483> 798 46<152.819 369.855> 1144 55<226.341 358.498> 1281 47<244.114 511.941>
VStem: 64 42<891.106 1114.96> 412 59<160.775 509.199 877.75 1100.76> 570 51<948.682 1223.7> 837 56<334.241 949.592 641.917 1255.1 1212.22 1297.98> 865 58<145.918 491.379>
Fore
405 989 m 0xfe
 405 1073 350 1144 241 1144 c 0
 133 1144 106 1062 106 1003 c 0
 106 908 172 844 274 844 c 0
 353 844 405 907 405 989 c 0xfe
412 352 m 0
 423 628 570 897 570 1144 c 1
 544 1249 451 1281 380 1281 c 0
 299 1281 229 1246 225 1199 c 1
 381 1199 460 1136 460 983 c 0
 460 905 378 798 265 798 c 0
 99 803 64 931 64 1005 c 0
 64 1130 128 1328 387 1328 c 0
 553 1328 621 1216 621 1114 c 0
 621 1063 613 1006 597 942 c 2
 546 742 l 2
 479 494 471 430 471 352 c 0
 471 228 501 58 646 58 c 0
 799 58 865 175 865 315 c 0xfe80
 865 345 858 435 850 616 c 2
 844 786 l 2
 839 892 837 1011 837 1113 c 0
 837 1277 841 1298 877 1298 c 0
 900 1298 902 1275 902 1275 c 1
 895 1207 893 1132 893 1058 c 0xff
 893 791 923 521 923 325 c 0xfe80
 923 71 784 0 637 0 c 0
 457 0 412 208 412 352 c 0
EndSplineSet
EndChar
StartChar: uni0E03
Encoding: 3587 3587 235
Width: 1195
VWidth: 3622
Flags: W
HStem: -7 58<716.768 920.327> 794 46<156.806 371.696> 1134 51<222.279 370.287> 1268 59<261.031 418.579 593.715 689.077>
VStem: 60 57<880.02 1101.69> 405 55<871.36 1100.06> 550 58<185.952 586.791> 711 53<847.075 1250.39> 980 42<473 866.63 604.264 1257.53> 992 59<130.653 460.974 397.362 524.586>
Fore
405 989 m 0xff
 405 1060 374 1134 251 1134 c 0
 141 1134 117 1047 117 989 c 0
 117 900 176 840 278 840 c 0
 380 840 405 938 405 989 c 0xff
501 1083 m 0
 460 1083 454 1268 336 1268 c 0
 290 1268 218 1246 218 1185 c 1
 412 1185 460 1104 460 982 c 0
 460 900 382 794 269 794 c 0
 174 798 60 836 60 1003 c 0
 60 1164 184 1327 348 1327 c 0
 442 1327 484 1233 508 1162 c 1
 512 1184 533 1318 630 1318 c 0
 736 1318 764 1177 764 1090 c 0
 764 888 608 562 608 345 c 0
 608 251 683 51 826 51 c 0
 949 51 992 212 992 322 c 1xff40
 990 326 985 463 985 473 c 2
 980 622 l 2
 976 778 973 1002 973 1109 c 0
 973 1273 975 1325 1005 1325 c 0
 1022 1325 1037 1298 1037 1297 c 0
 1025 1209 1022 1120 1022 1022 c 0xff80
 1022 764 1051 522 1051 333 c 0xff40
 1051 133 961 -7 826 -7 c 0
 654 -7 550 186 550 345 c 0
 555 585 711 853 711 1084 c 0
 711 1213 681 1261 637 1261 c 0
 610 1261 584 1247 570 1203 c 2
 532 1093 l 1
 508 1082 506 1083 501 1083 c 0
EndSplineSet
EndChar
StartChar: uni0E04
Encoding: 3588 3588 236
Width: 1478
VWidth: 3622
Flags: W
HStem: 11 56<260.337 327.774> 409 47<602.552 823.679> 757 51<615.106 799.593> 1279 55<594.289 963.751>
VStem: 195 53<153.609 493.408 493.408 823.841> 870 48<503.859 717.732> 1249 55<4.03616 29.1321 29.1321 35 35 918.969>
Fore
195 522 m 0
 195 1027 449 1334 769 1334 c 0
 1290 1334 1304 837 1304 313 c 2
 1304 225 l 2
 1304 53 1288 4 1265 4 c 0
 1257 4 1247 8 1247 25 c 0
 1247 30 1248 33 1249 35 c 1
 1249 405 l 2
 1249 823 1224 1116 970 1236 c 0
 915 1261 848 1276 769 1279 c 0
 509 1279 263 1019 255 573 c 1
 248 530 248 453 248 414 c 2
 248 381 l 2
 248 290 250 67 276 67 c 0
 356 67 466 456 476 492 c 2
 495 564 l 2
 539 738 577 808 727 808 c 0
 880 808 918 712 918 608 c 0
 918 449 799 409 708 409 c 0
 647 409 595 437 532 493 c 1
 404 104 351 11 264 11 c 0
 208 15 195 161 195 522 c 0
870 608 m 256
 870 734 766 757 727 757 c 0
 601 757 576 671 561 532 c 1
 585 512 644 465 704 456 c 1
 772 456 870 497 870 608 c 256
EndSplineSet
EndChar
StartChar: uni0E05
Encoding: 3589 3589 237
Width: 1462
VWidth: 3622
Flags: W
HStem: 11 56<277.008 339.571> 421 46<635.904 848.356> 764 55<622.536 853.498>
VStem: 180 55<100.283 869.336> 893 50<511.83 725.235> 1238 60<28 119.453 119.453 146 132.726 952.116>
Fore
522 1334 m 1
 577 1328 658 1301 777 1134 c 1
 833 1222 910 1331 1014 1344 c 1
 1247 1313 1298 936 1298 264 c 0
 1298 170 1297 122 1297 28 c 1
 1276 0 1260 -14 1249 -14 c 0
 1242 -14 1238 -8 1238 4 c 0
 1245 132 1249 255 1249 373 c 0
 1249 803 1199 1272 1001 1272 c 0
 924 1272 808 1087 780 1037 c 1
 718 1126 610 1247 522 1261 c 1
 361 1199 235 842 235 554 c 0
 235 362 271 67 295 67 c 0
 349 67 400 269 430 390 c 2
 458 496 l 2
 519 721 562 819 743 819 c 0
 876 819 943 752 943 619 c 0
 943 461 829 421 736 421 c 0
 693 421 602 432 522 504 c 1
 378 81 384 11 283 11 c 0
 221 11 180 148 180 550 c 0
 180 861 272 1234 522 1334 c 1
893 619 m 256
 893 735 796 764 743 764 c 0
 598 764 570 651 548 543 c 1
 609 496 679 475 732 467 c 1
 784 467 893 497 893 619 c 256
EndSplineSet
EndChar
StartChar: uni0E06
Encoding: 3590 3590 238
Width: 1521
VWidth: 3622
Flags: W
HStem: -48 52<400.493 631.749> 366 56<410.223 597.562> 706 48<150.441 365.581> 1038 43<167.139 361.025> 1214 58<161.367 398.503 568.398 696.27>
VStem: 57 56<791.401 1082.94> 287 48<69.4287 253.579> 394 56<779.211 1004.46> 674 65<391 570.771> 681 58<173.331 296.531 296.531 322 393.49 574 574 639.473 639.473 675.5 675.5 885.874> 1327 46<203.25 848.061 848.061 917.971 883.016 1202.45 1140.92 1224>
Fore
240 1038 m 0xff20
 137 1038 113 947 113 894 c 0
 113 823 156 754 275 754 c 0
 363 754 394 828 394 895 c 0
 394 1009 314 1038 240 1038 c 0xff20
706 1116 m 1
 693 1189 692 1206 612 1206 c 0
 569 1206 556 1168 515 1040 c 1
 504 1035 493 1031 482 1031 c 0
 474 1031 467 1033 460 1040 c 1
 437 1148 382 1214 266 1214 c 0
 211 1214 130 1185 130 1070 c 0
 130 1064 131 1058 131 1051 c 1
 171 1072 211 1081 249 1081 c 0
 365 1081 450 996 450 887 c 0
 450 814 386 706 265 706 c 0
 147 709 57 760 57 960 c 0
 57 1184 170 1272 294 1272 c 0
 352 1272 443 1235 485 1109 c 1
 517 1257 587 1265 612 1265 c 0
 675 1265 714 1247 732 1212 c 0
 748 1177 761 1144 768 1113 c 1
 748 759 l 2
 740 609 739 459 739 384 c 1
 982 249 1165 126 1188 110 c 2
 1300 35 l 1
 1301 34 l 1
 1317 34 1327 328 1327 506 c 0
 1327 814 1318 1081 1318 1231 c 1
 1324 1253 1335 1264 1346 1264 c 0
 1359 1264 1371 1251 1376 1224 c 1
 1372 1174 1371 1125 1371 1057 c 0
 1371 964 1373 838 1373 634 c 2
 1373 292 l 2
 1373 182 1372 96 1369 35 c 1
 1359 -8 1331 -22 1304 -22 c 0
 1292 -22 1270 -27 1128 76 c 2
 1018 155 l 2
 928 218 853 264 739 322 c 1
 739 292 l 2xff60
 739 197 728 119 705 58 c 0
 680 -10 620 -45 525 -48 c 0
 335 -48 287 87 287 193 c 0
 287 315 397 422 534 422 c 0
 575 422 622 412 674 391 c 1xffa0
 674 444 676 505 680 574 c 2
 690 777 l 2
 698 946 706 1048 706 1116 c 1
516 4 m 0
 616 4 682 47 682 271 c 0
 682 289 682 308 681 329 c 1
 628 354 581 366 541 366 c 0
 372 366 335 215 335 180 c 0
 335 109 396 4 516 4 c 0
EndSplineSet
EndChar
StartChar: uni0E07
Encoding: 3591 3591 239
Width: 1199
VWidth: 3622
Flags: W
HStem: -4 66<748.922 881.298> 851 65<676.74 933.715> 1282 55<685.759 913.178>
VStem: 570 56<965.973 1222.67> 996 58<784.72 930 965.995 1211.12>
Fore
812 1337 m 0
 1005 1337 1054 1182 1054 992 c 2
 1054 941 l 2
 1043 629 1013 -4 851 -4 c 0
 704 -4 351 409 117 1047 c 2
 116 1048 115 1052 115 1058 c 0
 115 1073 126 1081 149 1081 c 0
 159 1081 166 1077 170 1068 c 0
 430 429 715 62 847 62 c 0
 936 62 996 826 996 906 c 2
 996 930 l 1
 953 876 877 851 819 851 c 0
 675 851 570 939 570 1072 c 0
 570 1237 656 1337 812 1337 c 0
626 1086 m 0
 626 1007 665 916 819 916 c 0
 936 916 982 1012 982 1075 c 0
 982 1209 887 1282 801 1282 c 0
 685 1282 626 1188 626 1086 c 0
EndSplineSet
EndChar
StartChar: uni0E08
Encoding: 3592 3592 240
Width: 1300
VWidth: 3622
Flags: W
HStem: 4 54<860.791 941.539> 439 58<521.516 744.326> 799 71<512.521 733.004> 1304 62<437.103 873.003>
VStem: 120 60<749.332 1037.4> 412 65<540.872 763.812> 778 69<102.461 341.238 334.546 347.931 347.931 483.778 530.58 574.707 552.643 754.622> 1098 57<425.293 1032.87>
Fore
633 439 m 0
 456 439 412 603 412 664 c 0
 412 782 520 870 630 870 c 0
 789 870 848 756 848 582 c 0
 848 572 847 561 847 550 c 2
 840 394 l 2
 839 362 839 331 839 302 c 0
 839 159 855 58 896 58 c 0
 899 58 l 0
 973 58 1098 512 1098 739 c 0
 1098 1049 995 1304 667 1304 c 0
 409 1304 304 1193 237 1066 c 0
 199 993 180 894 180 768 c 0
 180 743 169 734 156 734 c 0
 139 734 120 750 120 768 c 0
 120 1063 229 1366 667 1366 c 0
 782 1366 873 1343 938 1297 c 0
 1108 1178 1155 997 1155 739 c 0
 1155 384 1027 4 900 4 c 0
 794 4 785 146 785 274 c 0
 785 315 786 356 786 395 c 0
 786 428 785 459 782 485 c 1
 763 465 730 439 633 439 c 0
622 799 m 0
 500 799 477 704 477 649 c 0
 477 573 526 497 647 497 c 0
 736 497 778 571 778 640 c 0
 778 739 708 799 622 799 c 0
EndSplineSet
EndChar
StartChar: uni0E09
Encoding: 3593 3593 241
Width: 1478
VWidth: 3622
Flags: W
HStem: -7 51<1073.88 1262.42> -1 64<488.716 560.94> 350 55<182.447 400.357> 401 58<1115.39 1258.63> 706 55<179.556 402.551> 1260 63<396.797 787.046>
VStem: 89 53<445.026 667.251> 126 70<830.014 1037.64> 439 55<80.1516 370.075 326.484 413.665 413.665 432 428.168 669.438> 1011 67<458.076 883.188> 1310 51<89.7229 349.921>
Fore
290 350 m 0x6de0
 184 350 89 427 89 555 c 0
 89 653 148 761 287 761 c 0
 404 761 505 710 505 561 c 0
 505 528 494 361 494 227 c 0
 494 136 499 63 517 63 c 0x6ee0
 522 63 589 95 843 299 c 2
 1003 425 l 1
 1004 446 1011 524 1011 624 c 0
 1011 784 993 999 902 1123 c 0
 831 1220 712 1260 598 1260 c 0
 340 1260 228 1102 196 870 c 0
 192 849 170 830 152 830 c 0
 138 830 126 841 126 872 c 0
 126 927 181 1144 291 1232 c 0
 370 1295 461 1323 616 1323 c 0
 893 1323 1078 1144 1078 653 c 0
 1078 589 1075 518 1068 439 c 1
 1102 452 1133 459 1162 459 c 0
 1288 459 1361 342 1361 223 c 0
 1361 140 1319 -7 1151 -7 c 0x9de0
 967 -7 998 156 989 318 c 1
 904 268 856 232 825 207 c 2
 771 164 l 2
 754 149 560 -1 494 -1 c 0
 478 -1 464 5 460 25 c 0
 455 47 437 115 437 250 c 0
 437 316 439 357 439 402 c 0
 439 432 l 1
 416 380 355 350 290 350 c 0x6de0
1310 217 m 0
 1310 326 1241 401 1161 401 c 0
 1129 401 1092 386 1051 356 c 1
 1051 220 l 2
 1051 74 1091 44 1151 44 c 0
 1157 44 l 0x9ce0
 1261 44 1310 130 1310 217 c 0
295 706 m 0
 173 706 142 617 142 554 c 0
 142 494 174 405 301 405 c 0x2ee0
 392 405 439 483 439 554 c 0
 439 654 376 706 295 706 c 0
EndSplineSet
EndChar
StartChar: uni0E0A
Encoding: 3594 3594 242
Width: 1137
VWidth: 3622
Flags: W
HStem: -0 58<544.897 762.555> 798 49<162.999 374.77> 1142 57<226.205 368.185> 1281 52<245.731 510.859>
VStem: 63 55<891.703 1111.61> 409 52<879.368 1100.74> 412 69<135.329 503.521> 570 56<931.9 1224.2> 851 72<153.312 644.622>
Fore
255 1142 m 0xfd80
 145 1142 118 1067 118 1006 c 0
 118 951 150 847 280 847 c 0
 357 847 409 909 409 989 c 256
 409 1069 358 1142 255 1142 c 0xfd80
412 352 m 0xfb80
 427 658 570 890 570 1144 c 1
 546 1247 451 1281 378 1281 c 0
 305 1281 229 1249 225 1199 c 1
 350 1199 461 1156 461 985 c 0xfd80
 461 906 381 798 265 798 c 0
 131 802 63 892 63 1011 c 0
 63 1127 127 1333 379 1333 c 0
 499 1333 626 1302 626 1076 c 0
 626 1002 610 890 558 703 c 2
 505 505 l 2
 489 443 481 392 481 352 c 0
 481 246 511 58 629 58 c 0
 718 58 851 97 851 354 c 0
 851 577 726 941 718 1033 c 1
 823 1287 1036 1411 1065 1411 c 0
 1088 1411 1094 1385 1094 1378 c 0
 1094 1339 1003 1331 854 1146 c 0
 821 1106 798 1066 785 1026 c 1
 815 874 923 559 923 328 c 0
 923 137 854 -0 654 -0 c 0
 509 0 412 86 412 352 c 0xfb80
EndSplineSet
EndChar
StartChar: uni0E0B
Encoding: 3595 3595 243
Width: 1307
VWidth: 3622
Flags: W
HStem: -0 58<696.624 921.211> 794 46<157.835 371.109> 1135 44<183.856 372.16> 1268 59<253.46 419.74 578.077 694.552>
VStem: 61 56<881.197 1102.95> 405 56<873.514 1102.74> 561 64<139.92 490.736> 718 64<950.054 1246.24> 1000 71<140.615 651.628>
Fore
405 989 m 256
 405 1057 376 1135 258 1135 c 0
 139 1135 117 1048 117 991 c 0
 117 938 144 840 277 840 c 0
 357 840 405 907 405 989 c 256
561 352 m 0
 569 636 718 889 718 1144 c 1
 699 1240 667 1261 637 1261 c 0
 588 1261 575 1226 532 1093 c 1
 523 1089 513 1084 501 1084 c 0
 492 1084 485 1087 478 1093 c 1
 467 1145 421 1268 336 1268 c 0
 300 1268 235 1255 180 1171 c 1
 209 1177 236 1179 260 1179 c 0
 425 1179 461 1052 461 984 c 0
 461 908 390 794 269 794 c 0
 178 797 61 836 61 1002 c 0
 61 1189 202 1327 348 1327 c 0
 441 1327 484 1232 508 1162 c 1
 512 1181 532 1318 630 1318 c 0
 752 1318 782 1224 782 1130 c 0
 782 1049 766 933 710 726 c 2
 656 520 l 2
 635 442 625 374 625 329 c 0
 625 233 665 58 785 58 c 0
 957 58 1000 188 1000 339 c 0
 1000 579 876 937 865 1033 c 1
 977 1290 1184 1411 1213 1411 c 0
 1237 1411 1243 1385 1243 1378 c 0
 1243 1340 1154 1332 1002 1146 c 0
 969 1106 947 1066 934 1026 c 1
 959 890 1071 560 1071 326 c 0
 1071 136 1002 -0 803 -0 c 0
 658 0 561 86 561 352 c 0
EndSplineSet
EndChar
StartChar: uni0E0C
Encoding: 3596 3596 244
Width: 1779
VWidth: 3622
Flags: W
HStem: -2 50<812.753 975.511> 3 52<342.355 558.131 1546 1557.49> 325 58<789.669 950.049> 348 46<363.137 558.658> 1232 60<314.329 701.538>
VStem: 249 59<119.348 269.216> 289 61<485.077 811.644> 598 58<97.6868 308.584> 694 55<101.664 283.856> 985 59<370 417.023 417.023 439.232 428.127 946.27> 1004 56<74.3392 266.204> 1555 72<90.8607 266.671 178.766 688.674 657.177 720.17 720.17 1098.15 1098.15 1262.95>
Fore
529 1292 m 0x5b90
 585 1292 706 1284 808 1242 c 0
 992 1168 1047 899 1047 509 c 0
 1047 457 1046 403 1044 345 c 1x5bd0
 1546 69 l 1
 1556 69 1562 115 1562 294 c 0
 1562 522 1555 717 1555 1024 c 2
 1555 1198 l 2
 1555 1257 1561 1279 1586 1279 c 0
 1596 1279 1629 1272 1634 1220 c 1
 1629 1163 1627 1081 1627 974 c 0
 1627 672 1630 672 1630 471 c 0
 1630 306 1627 140 1624 58 c 1
 1608 -1 1595 -8 1576 -8 c 0
 1564 -8 1539 -3 1518 7 c 2
 1054 276 l 1
 1057 249 1060 203 1060 185 c 0x59b0
 1060 36 952 -2 855 -2 c 0
 804 -2 766 13 744 43 c 0
 720 73 694 120 694 173 c 0
 694 276 771 383 898 383 c 0
 925 383 953 378 985 370 c 1
 986 402 986 433 986 464 c 0
 986 1045 896 1232 539 1232 c 0
 240 1232 114 1048 104 941 c 1
 329 854 l 1
 347 842 350 795 350 738 c 0xabd0
 350 592 328 504 322 348 c 1
 372 402 415 394 463 394 c 0
 617 394 656 260 656 200 c 0
 650 137 611 3 433 3 c 0
 376 3 249 60 249 200 c 0x5d90
 249 248 252 306 259 375 c 2
 278 572 l 2
 285 643 289 713 289 752 c 0
 289 788 285 808 279 812 c 0
 254 824 228 835 200 844 c 2
 123 871 l 2
 57 895 35 907 35 927 c 0
 35 1094 249 1292 529 1292 c 0x5b90
449 55 m 0
 535 55 593 118 598 207 c 0
 598 292 531 348 449 348 c 0
 322 348 308 224 308 200 c 0x5d90
 308 176 323 55 449 55 c 0
874 48 m 0xa9d0
 952 48 1004 87 1004 197 c 0xa9b0
 1004 230 997 265 985 301 c 1
 953 317 923 325 894 325 c 0
 808 325 749 255 749 179 c 0
 749 139 764 108 781 84 c 0
 797 60 828 48 874 48 c 0xa9d0
EndSplineSet
EndChar
StartChar: uni0E0D
Encoding: 3597 3597 245
Width: 1775
VWidth: 3622
Flags: W
HStem: -626 63<1056.12 1397.11> -517 49<980.296 1087.18> -186 66<877.975 1068.94> 7 69<1029 1112.71> 7 58<342.355 558.131 1066.23 1443.34 1443.34 1462.41 1462.41 1558.02> 348 46<380.303 558.125> 1231 60<355.823 770.433>
VStem: 249 59<119.348 269.216> 289 61<485.077 811.644> 598 58<97.8983 308.584> 792 58<-433.058 -213.262> 971 58<76 272.722> 985 62<373.278 579.523 476.401 954.478> 1135 62<-419.341 -219.319> 1569 59<154.034 477.792 477.792 524 524 1032.64 1032.64 1083.73 1058.18 1222.5 1157.01 1287.99> 1715 76<-155.766 -107.013>
Fore
1561 6 m 2xee77
 1561 6 1570 7 1357 7 c 2
 1022 7 l 2
 972 7 971 33 971 48 c 2xee77
 985 547 l 2
 986 569 986 591 986 612 c 0
 986 1025 853 1231 587 1231 c 0
 316 1231 115 1060 104 941 c 1
 329 854 l 1
 347 842 350 795 350 738 c 0xeeef
 350 592 328 504 322 348 c 1
 357 386 390 398 463 394 c 0
 617 394 656 260 656 200 c 0
 650 138 611 3 433 3 c 0
 376 3 249 60 249 200 c 0xef67
 249 248 252 306 259 375 c 2
 278 572 l 2
 285 643 289 713 289 752 c 0
 289 788 285 808 279 812 c 0
 254 824 228 835 200 844 c 2
 123 871 l 2
 57 895 35 907 35 927 c 0
 35 1080 303 1291 551 1291 c 0
 948 1291 1040 1032 1047 570 c 2xeeef
 1029 76 l 1xf677
 1091 67 1216 65 1341 65 c 0
 1406 65 1474 66 1546 69 c 0
 1560 69 1569 178 1569 524 c 2
 1569 781 l 2
 1569 1109 1561 1203 1561 1250 c 0
 1561 1282 1585 1288 1591 1288 c 0
 1604 1288 1624 1274 1624 1231 c 0
 1621 1192 1620 1143 1620 1082 c 0
 1620 1052 1620 1019 1621 983 c 2
 1628 646 l 2
 1630 530 1631 417 1631 310 c 0
 1631 203 1629 119 1624 58 c 1
 1615 31 1602 16 1583 11 c 1
 1576 8 1569 6 1561 6 c 2xee77
449 55 m 0
 535 55 593 118 598 207 c 0
 598 292 531 348 449 348 c 0
 322 348 308 224 308 200 c 0xe767
 308 176 323 55 449 55 c 0
1197 -310 m 0
 1197 -439 1082 -517 1017 -517 c 0
 1009 -517 992 -516 975 -504 c 1
 1045 -558 1161 -563 1208 -563 c 0
 1256 -563 1341 -554 1447 -532 c 0
 1647 -492 1700 -310 1718 -156 c 1
 1716 -151 1715 -147 1715 -143 c 0
 1715 -125 1738 -107 1759 -107 c 0
 1768 -107 1791 -112 1791 -136 c 0
 1791 -154 1774 -385 1632 -501 c 0
 1529 -584 1397 -626 1238 -626 c 0
 903 -626 792 -453 792 -306 c 0
 792 -196 893 -120 997 -120 c 0
 1096 -120 1197 -207 1197 -310 c 0
979 -186 m 0
 891 -186 850 -248 850 -308 c 0
 850 -369 868 -422 909 -444 c 0
 939 -460 963 -468 983 -468 c 0
 1071 -468 1135 -389 1135 -314 c 0
 1135 -204 1029 -186 979 -186 c 0
EndSplineSet
Substitution2: "Single Substitution lookup 22 subtable" uni0E0D.alt1
Substitution2: "Single Substitution lookup 22 subtable" uni0E0D.alt1
EndChar
StartChar: uni0E0E
Encoding: 3598 3598 246
Width: 1376
VWidth: 3622
Flags: W
HStem: -667 53<202.093 563.4> -287 57<336.71 677.699> -0 50<134.643 340.927> 346 45<129.992 321.113> 1265 59<427.724 915.286>
VStem: 40 50<95.299 305.795> 107 49<-567.174 -356.316> 398 58<341.623 435.185 388.404 803.612> 1166 62<-522 -258.417 -258.417 276.115 276.115 332.069 304.092 923.666>
Fore
375 -667 m 0
 255 -667 107 -627 107 -467 c 0
 107 -390 131 -333 178 -298 c 0
 245 -248 330 -230 416 -230 c 0
 562 -230 708 -281 761 -308 c 1
 768 -218 l 1
 767 -215 767 -211 767 -209 c 0
 767 -191 780 -184 794 -184 c 0
 806 -184 826 -199 826 -221 c 2
 819 -318 l 1
 897 -352 978 -388 1070 -454 c 2
 1159 -522 l 1
 1166 193 l 2
 1167 251 1168 306 1168 359 c 0
 1168 1030 1074 1265 698 1265 c 0
 316 1265 174 1054 159 975 c 1
 428 895 l 2
 444 889 456 837 456 580 c 0
 456 417 448 335 439 173 c 0
 430 58 333 -0 237 -0 c 0
 138 -0 40 62 40 188 c 0
 40 308 112 391 232 391 c 0
 254 391 352 394 398 318 c 1
 403 399 405 479 405 552 c 0
 405 716 394 843 377 851 c 0
 353 864 324 874 292 882 c 2
 196 908 l 2
 108 931 87 939 87 960 c 0
 94 1067 260 1324 680 1324 c 0
 1169 1324 1229 1012 1229 399 c 0
 1229 356 1229 311 1228 265 c 2
 1228 -149 l 2
 1223 -262 1220 -350 1220 -414 c 0
 1220 -621 1211 -626 1174 -626 c 1
 1076 -523 1019 -477 805 -377 c 1
 789 -563 565 -667 375 -667 c 0
238 346 m 0
 160 346 90 289 90 202 c 0
 90 123 151 50 240 50 c 0
 323 50 380 118 380 197 c 0
 380 274 333 346 238 346 c 0
156 -469 m 0
 156 -527 191 -614 358 -614 c 0
 529 -614 740 -515 750 -363 c 1
 687 -326 558 -287 432 -287 c 0
 357 -287 282 -301 223 -337 c 0
 186 -360 156 -414 156 -469 c 0
EndSplineSet
Substitution2: "Single Substitution lookup 22 subtable" uni0E0E.alt1
Substitution2: "Single Substitution lookup 22 subtable" uni0E0E.alt1
EndChar
StartChar: uni0E0F
Encoding: 3599 3599 247
Width: 1406
VWidth: 3622
Flags: W
HStem: -633 78<133.163 337.789 624.559 686.735> -275 57<130.509 303.822> -1 51<179.239 384.39> 346 45<174.036 387.814> 1267 58<455.914 940.544>
VStem: 47 49<-529.721 -309.594> 83 51<93.7771 306.427> 392 48<-506.61 -363.653> 398 58<-263.692 -197.5 -197.5 -170.011> 442 59<358.461 409.831 384.146 764.237> 1192 66<-398.375 -184 -184 3.80786 3.80786 253.569 253.569 924.684>
Fore
424 -170 m 0xfca0
 436 -170 456 -185 456 -207 c 2xfca0
 467 -294 l 1
 484 -313 504 -337 525 -367 c 2
 586 -456 l 2
 592 -465 651 -555 667 -555 c 0
 668 -555 669 -555 670 -554 c 2
 768 -428 l 2
 819 -363 877 -294 906 -279 c 1
 920 -279 938 -294 960 -322 c 2
 1028 -418 l 2
 1086 -502 1128 -558 1159 -573 c 1
 1184 -562 1192 -248 1192 -184 c 0
 1195 -73 1196 52 1196 193 c 0
 1196 235 1197 275 1197 314 c 0
 1197 977 1151 1267 698 1267 c 0
 451 1267 289 1145 236 1049 c 0
 217 1014 206 989 203 975 c 1
 471 895 l 2
 498 884 501 679 501 580 c 0
 501 500 498 421 493 344 c 2
 481 173 l 2
 473 40 347 -1 288 -1 c 0
 210 -1 83 38 83 197 c 0
 83 298 151 391 274 391 c 0
 384 391 426 344 442 318 c 1
 447 405 450 484 450 553 c 0
 450 648 440 842 421 851 c 0
 396 864 368 874 336 882 c 2
 240 908 l 2
 153 931 131 939 131 960 c 0
 140 1088 329 1325 697 1325 c 0
 1171 1325 1258 1046 1258 347 c 2
 1258 -149 l 2
 1240 -571 1234 -640 1151 -640 c 0
 1126 -640 1087 -592 1026 -504 c 2
 960 -410 l 2
 938 -380 920 -363 911 -363 c 0
 901 -363 886 -376 866 -402 c 2
 722 -590 l 2
 700 -619 682 -633 670 -633 c 0
 646 -633 609 -602 548 -514 c 2
 486 -422 l 2
 466 -392 449 -372 435 -363 c 1
 438 -381 440 -399 440 -415 c 0xfb60
 440 -547 329 -619 237 -619 c 0
 164 -619 47 -576 47 -399 c 0
 47 -278 154 -218 252 -218 c 0
 301 -218 366 -233 398 -276 c 1
 398 -203 l 1
 397 -199 397 -196 397 -192 c 0
 397 -174 413 -170 424 -170 c 0xfca0
277 346 m 0
 190 346 134 273 134 208 c 0xfa20
 134 113 200 50 288 50 c 0
 396 50 426 166 426 199 c 0
 426 248 397 346 277 346 c 0
241 -275 m 0
 148 -275 96 -336 96 -407 c 0
 96 -465 123 -566 229 -566 c 0
 283 -566 392 -512 392 -390 c 0xfd20
 392 -371 389 -351 384 -329 c 1
 344 -290 288 -275 241 -275 c 0
EndSplineSet
Substitution2: "Single Substitution lookup 22 subtable" uni0E0F.alt1
Substitution2: "Single Substitution lookup 22 subtable" uni0E0F.alt1
EndChar
StartChar: uni0E10
Encoding: 3600 3600 248
Width: 1271
VWidth: 3622
Flags: W
HStem: -666 49<2.76689 154.322 390.547 467.552> -518 69<623.86 660.867> -395 52<-17.1303 150.191 689.809 869.402> -117 48<702.248 841.387> 0 58<756.673 840.102> 348 50<403.597 628.663> 719 59<400.771 615.941> 874 63<136.197 582.901 541.393 624.409 624.409 888.5 714.947 962.559> 1014 61<980.012 1073.54> 1254 57<359.961 683.577>
VStem: -88 52<-602.262 -415.808> 58 76<943.482 1076.82> 216 53<-393.118 -363.5 -363.5 -314.047> 292 64<479.785 675.289> 619 55<-303.992 -141.546> 670 62<439.92 485.457 462.689 661.321> 891 62<-569.755 -404.023 -404.023 -348 -310.791 -147.385> 992 55<398.651 843.177> 1075 62<1095.36 1145.42>
Fore
502 719 m 0xfffde0
 385 719 356 607 356 553 c 0
 356 489 399 398 528 398 c 0
 614 398 670 473 670 550 c 256
 670 634 605 719 502 719 c 0xfffde0
60 -617 m 0
 108 -617 186 -578 186 -490 c 0
 186 -481 185 -472 184 -463 c 1
 162 -421 118 -395 73 -395 c 0
 27 -395 -36 -427 -36 -500 c 0
 -36 -603 28 -617 60 -617 c 0
228 -256 m 0
 261 -256 269 -307 269 -334 c 2
 269 -377 l 2
 269 -394 268 -410 265 -425 c 1
 319 -492 l 2
 346 -526 416 -611 440 -611 c 0
 450 -611 445 -604 525 -536 c 2
 588 -482 l 2
 609 -465 625 -454 637 -449 c 1
 660 -449 695 -475 750 -527 c 2
 814 -586 l 2
 836 -606 855 -619 870 -626 c 1
 886 -590 891 -516 891 -460 c 0
 891 -423 890 -386 888 -348 c 1
 859 -370 841 -387 775 -387 c 0
 650 -387 619 -283 619 -230 c 0xfffee0
 619 -175 649 -69 771 -69 c 0
 848 -69 944 -89 957 -232 c 2
 953 -377 l 2
 953 -651 933 -685 854 -685 c 0
 843 -685 827 -676 808 -658 c 2
 686 -544 l 2
 669 -527 655 -518 646 -518 c 0
 626 -518 578 -563 546 -595 c 2
 488 -652 l 2
 469 -668 455 -677 446 -677 c 0
 377 -677 261 -518 239 -481 c 1
 228 -610 134 -666 64 -666 c 0
 8 -666 -88 -631 -88 -494 c 0
 -88 -382 17 -343 83 -343 c 0
 108 -343 186 -350 207 -409 c 1
 214 -373 l 2
 215 -367 216 -360 216 -354 c 0
 216 -318 199 -295 199 -283 c 0
 199 -265 209 -256 228 -256 c 0
782 -341 m 0
 816 -341 899 -299 899 -239 c 0
 899 -141 804 -119 782 -117 c 0
 710 -117 674 -192 674 -242 c 0
 674 -282 693 -341 782 -341 c 0
1047 751 m 0
 1047 429 944 0 789 0 c 0
 663 0 681 193 660 391 c 1
 640 373 609 348 515 348 c 0
 444 348 391 370 355 414 c 0
 308 473 292 516 292 566 c 0
 292 653 359 778 511 778 c 0
 600 778 733 735 733 492 c 0
 733 482 732 471 732 460 c 2
 732 320 l 2xfffde0
 732 222 744 58 794 58 c 0
 864 58 992 451 992 729 c 0
 984 836 965 874 768 874 c 0
 501 874 412 868 323 868 c 0
 127 868 58 887 58 964 c 0
 58 1103 306 1311 529 1311 c 0
 726 1311 824 1256 947 1112 c 0
 968 1087 994 1075 1026 1075 c 0
 1069 1075 1075 1104 1075 1134 c 0
 1075 1145 1085 1151 1106 1151 c 0
 1127 1151 1137 1144 1137 1130 c 0
 1137 1052 1063 1014 1026 1014 c 0
 980 1014 943 1027 916 1052 c 2
 828 1136 l 2
 712 1252 613 1254 539 1254 c 0
 363 1254 134 1096 134 978 c 0
 134 949 134 935 381 935 c 0
 480 935 579 937 877 937 c 0
 885 938 892 938 900 938 c 0
 1000 938 1047 851 1047 751 c 0
EndSplineSet
Substitution2: "Single Substitution lookup 22 subtable" uni0E10.alt1
Substitution2: "Single Substitution lookup 22 subtable" uni0E10.alt1
EndChar
StartChar: uni0E11
Encoding: 3601 3601 249
Width: 1648
VWidth: 3622
Flags: W
HStem: 706 48<153.132 368.692> 1038 43<170.45 365.967> 1206 59<573.797 705.263> 1213 59<191.755 390.542 1099.42 1328.68>
VStem: 61 56<790.973 1043.84 922.962 1145.79> 398 56<780.306 1003.81> 745 81<7.0088 155.862 155.862 632.868> 1427 62<25 234.009 234.009 263.805 248.907 902.781>
Fore
243 1038 m 0xcf
 135 1038 117 937 117 894 c 0
 117 823 160 754 279 754 c 0
 367 754 398 828 398 895 c 0
 398 1009 317 1038 243 1038 c 0xcf
1489 25 m 1
 1477 8 1453 3 1449 3 c 0
 1439 3 1432 10 1427 25 c 1
 1432 205 1440 382 1440 547 c 0
 1440 753 1427 939 1377 1088 c 0
 1349 1173 1303 1220 1233 1220 c 0
 869 1220 829 423 826 51 c 1
 819 11 793 7 781 7 c 0
 762 7 745 19 745 45 c 0
 745 68 752 114 752 273 c 0
 752 590 730 1051 722 1100 c 0
 711 1170 693 1206 633 1206 c 0xef
 563 1202 577 1153 539 1040 c 1
 528 1032 514 1027 502 1027 c 0
 491 1027 481 1031 474 1040 c 1
 466 1088 408 1213 290 1213 c 1
 215 1198 131 1159 131 1078 c 0
 131 1070 132 1061 134 1051 c 1
 175 1072 214 1081 251 1081 c 0
 366 1081 454 991 454 891 c 0
 454 809 386 706 269 706 c 0
 164 709 61 750 61 955 c 0
 61 1129 151 1272 295 1272 c 0xdf
 378 1272 463 1220 501 1109 c 1
 516 1187 545 1265 633 1265 c 0xef
 750 1265 802 1209 802 748 c 0
 802 703 802 654 801 601 c 1
 817 689 871 1282 1238 1282 c 0
 1434 1275 1501 1013 1501 541 c 0
 1501 334 1489 180 1489 25 c 1
EndSplineSet
EndChar
StartChar: uni0E12
Encoding: 3602 3602 250
Width: 1912
VWidth: 3622
Flags: W
HStem: -11 55<275.628 384.472 969.759 1137.89> 325 57<954.523 1117.37> 409 47<419.931 633.792> 757 55<420.432 605.468> 1206 66<360.525 566.312 865.787 1081.54>
VStem: 169 59<276.495 1014.96> 322 58<557.73 683.027> 695 51<385.591 582.786 437.309 712.748> 851 61<131.846 282.881> 1168 54<72.834 264.775 667 1051.09> 1700 60<108.274 758.189 644.239 872.138 758.189 1183.56 1099.13 1220>
Fore
525 456 m 0
 616 456 672 523 681 612 c 0
 681 698 605 757 525 757 c 0
 396 757 380 635 380 605 c 0
 380 582 395 456 525 456 c 0
281 -11 m 0
 191 -11 169 450 169 697 c 0
 169 1128 315 1272 478 1272 c 0
 554 1272 684 1255 736 1017 c 1
 742 1108 791 1272 983 1272 c 0
 1164 1272 1213 1170 1213 352 c 1
 1687 65 l 1
 1703 65 1707 295 1707 516 c 0
 1707 744 1700 1006 1700 1228 c 1
 1704 1256 1715 1268 1726 1268 c 0
 1741 1268 1757 1249 1767 1220 c 1
 1762 1163 1760 1082 1760 976 c 0
 1760 671 1762 462 1762 320 c 0
 1762 78 1765 -1 1692 -1 c 0
 1682 -1 1671 2 1659 7 c 1
 1217 276 l 1
 1220 243 1222 214 1222 187 c 0
 1222 36 1125 -1 1031 -1 c 0
 875 -1 851 132 851 182 c 0
 851 285 930 382 1065 382 c 0
 1092 382 1120 378 1151 370 c 1
 1155 667 l 2
 1134 1004 1147 1210 981 1210 c 0
 843 1210 793 1070 768 946 c 1
 763 933 755 927 743 927 c 0
 726 927 716 935 713 950 c 1
 672 1048 l 2
 608 1196 534 1206 478 1206 c 0
 378 1206 228 1131 228 670 c 0
 228 378 257 44 301 44 c 0
 392 44 687 355 695 529 c 1
 690 440 576 409 525 409 c 0
 340 409 322 568 322 598 c 256
 322 661 373 812 529 812 c 0
 568 812 746 784 746 580 c 0
 746 240 396 -11 281 -11 c 0
1058 325 m 0
 974 325 912 256 912 179 c 0
 912 148 922 116 944 86 c 0
 962 61 998 48 1051 48 c 0
 1135 48 1168 115 1168 191 c 0
 1168 227 1161 266 1148 301 c 1
 1117 317 1087 325 1058 325 c 0
EndSplineSet
EndChar
StartChar: uni0E13
Encoding: 3603 3603 251
Width: 1963
VWidth: 3622
Flags: W
HStem: -8 52<354.394 493.167 440 543.812 1598.02 1752.48> 315 56<1618.89 1780.88> 336 48<364.83 557.637> 1240 59<323.896 760.833>
VStem: 249 59<107.96 257.517> 289 61<608.911 810.799> 598 58<87.1844 296.76> 950 72<55 206.845 206.845 541.131 541.131 595.569 568.35 1024.92> 1512 56<63.6929 254.631> 1525 62<359 466.846 466.846 813.454 813.454 1158.65 1158.65 1251 1251 1265> 1822 54<119.096 272.727>
Fore
35 927 m 0xb720
 35 1071 215 1299 537 1299 c 0
 915 1299 1010 1081 1010 667 c 0
 1008 621 1008 573 1008 524 c 0
 1008 311 1020 90 1022 55 c 1
 1525 333 l 1
 1518 1251 l 1
 1523 1280 1538 1292 1553 1292 c 0
 1567 1292 1580 1282 1587 1265 c 1
 1590 1186 1590 1117 1590 1053 c 0
 1590 878 1583 747 1583 574 c 0
 1583 509 1584 439 1587 359 c 1xb760
 1617 367 1645 371 1670 371 c 0
 1802 371 1876 275 1876 171 c 0
 1876 124 1861 75 1828 33 c 0
 1806 5 1756 -14 1701 -14 c 0
 1612 -14 1512 36 1512 173 c 0
 1512 197 1515 238 1518 265 c 1
 1051 4 l 2
 1034 -3 1019 -7 1006 -7 c 0
 961 -7 953 34 950 48 c 1
 950 416 l 2
 950 492 951 575 953 667 c 0
 953 1072 870 1240 539 1240 c 0
 278 1240 117 1080 104 941 c 1
 329 854 l 1
 345 844 350 802 350 744 c 0xd7a0
 350 622 326 432 322 336 c 1
 360 380 397 384 463 384 c 0
 603 384 656 266 656 187 c 0
 651 138 614 -7 446 -7 c 1
 442 -8 438 -8 434 -8 c 0
 376 -8 249 51 249 187 c 0xbb20
 249 236 252 295 259 366 c 2
 278 569 l 2
 283 627 289 697 289 747 c 0
 289 782 286 807 279 812 c 1
 254 824 228 835 200 844 c 2
 123 871 l 2
 57 895 35 907 35 927 c 0xb720
449 44 m 0
 535 44 593 107 598 196 c 0
 598 280 529 336 449 336 c 0
 321 336 308 212 308 187 c 0xbb20
 308 164 324 44 449 44 c 0
1568 182 m 0xd3a0
 1568 102 1605 35 1695 35 c 0
 1742 35 1773 47 1790 72 c 0
 1812 103 1822 136 1822 168 c 0
 1822 247 1761 315 1678 315 c 0
 1648 315 1618 307 1587 290 c 1xd360
 1575 254 1568 216 1568 182 c 0xd3a0
EndSplineSet
EndChar
StartChar: uni0E14
Encoding: 3604 3604 252
Width: 1445
VWidth: 3622
Flags: W
HStem: -11 62<287.711 424.497> 449 48<559.336 736.556> 798 46<559.998 765.11> 1258 65<541.968 916.743>
VStem: 184 65<74.869 901.255> 462 56<572.463 722.255> 817 58<452.043 616.258 494.26 744.813> 1226 56<11 895.447>
Fore
1226 573 m 2
 1226 1127 940 1249 729 1258 c 0
 441 1258 249 986 249 619 c 0
 249 177 287 51 313 51 c 0
 452 51 817 406 817 570 c 1
 812 474 704 449 665 449 c 0
 503 449 462 574 462 637 c 0
 462 690 501 844 665 844 c 0
 771 844 875 735 875 596 c 0
 875 362 479 -11 295 -11 c 0
 228 -11 184 85 184 652 c 0
 184 1154 511 1323 729 1323 c 0
 1019 1323 1140 1160 1212 988 c 0
 1254 890 1277 753 1282 580 c 2
 1282 11 l 1
 1274 1 1265 -4 1256 -4 c 0
 1250 -4 1234 -4 1226 7 c 1
 1226 573 l 2
665 497 m 0
 756 497 794 568 803 653 c 0
 803 731 748 798 665 798 c 0
 540 798 518 676 518 646 c 0
 518 615 541 497 665 497 c 0
EndSplineSet
EndChar
StartChar: uni0E15
Encoding: 3605 3605 253
Width: 1445
VWidth: 3622
Flags: W
HStem: -11 62<276.135 406.26> 409 47<430.975 608.333> 757 55<428.977 609.729> 1251 56<381.101 615.612 949.017 1117.8>
VStem: 180 64<66.8981 1040.13> 334 57<558.491 685.26> 683 63<440.706 714.812> 1226 56<11 1062.71>
Fore
244 670 m 0
 244 115 273 51 317 51 c 0
 411 51 686 356 697 529 c 1
 691 439 580 409 531 409 c 0
 346 409 334 581 334 598 c 256
 334 650 380 812 534 812 c 0
 571 812 746 786 746 580 c 0
 746 256 430 -11 297 -11 c 0
 203 -11 180 212 180 626 c 0
 180 1133 302 1307 485 1307 c 0
 662 1307 753 1160 780 1061 c 1
 798 1169 873 1307 1028 1307 c 0
 1180 1307 1282 1177 1282 692 c 2
 1282 11 l 1
 1274 1 1265 -4 1256 -4 c 0
 1250 -4 1234 -4 1226 7 c 1
 1226 623 l 2
 1226 934 1186 1254 1028 1254 c 0
 983 1254 940 1234 900 1196 c 0
 860 1156 831 1088 814 989 c 1
 809 977 800 971 787 971 c 0
 770 971 762 978 761 992 c 1
 654 1228 564 1251 485 1251 c 0
 282 1251 244 890 244 670 c 0
531 456 m 0
 619 456 674 524 683 612 c 0
 683 700 607 757 531 757 c 0
 407 757 391 635 391 605 c 0
 391 581 406 456 531 456 c 0
EndSplineSet
EndChar
StartChar: uni0E16
Encoding: 3606 3606 254
Width: 1372
VWidth: 3622
Flags: W
HStem: 3 52<394.732 599.871> 348 46<393.998 604.436> 1261 59<471.624 951.64>
VStem: 301 55<119.56 268.676> 335 61<618.422 849.914> 646 56<100.972 308.684> 1148 65<25 263.374 263.374 591.523> 1169 55<254.493 1008.06>
Fore
1169 599 m 0xe5
 1169 1110 1069 1261 700 1261 c 0
 251 1261 118 1047 108 975 c 1
 377 895 l 1
 391 884 396 838 396 777 c 0xed
 396 646 374 443 370 348 c 1
 401 381 425 399 511 394 c 0
 651 394 702 283 702 200 c 0
 696 136 658 3 480 3 c 0
 424 3 301 52 301 200 c 0xf4
 301 248 304 308 310 380 c 2
 326 592 l 2
 330 651 335 725 335 779 c 0
 335 818 332 846 325 851 c 0
 302 864 274 874 242 882 c 2
 145 908 l 2
 57 930 35 939 35 960 c 0
 54 1095 178 1223 408 1289 c 0
 454 1302 564 1320 685 1320 c 0
 1151 1320 1224 1090 1224 582 c 0xed
 1224 426 1217 242 1213 25 c 1
 1207 17 1199 9 1185 9 c 0
 1176 9 1164 12 1148 21 c 1xe6
 1160 249 1169 440 1169 599 c 0xe5
497 55 m 0
 582 55 638 119 646 207 c 0
 646 294 574 348 497 348 c 0
 370 348 356 224 356 200 c 0xf4
 356 176 371 55 497 55 c 0
EndSplineSet
EndChar
StartChar: uni0E17
Encoding: 3607 3607 255
Width: 1469
VWidth: 3622
Flags: W
HStem: 837 62<187.861 447.75> 1219 72<1042.82 1171.93> 1279 55<196.85 444.015>
VStem: 72 63<953.795 1217.2> 511 76<74.1667 476.308 476.308 927 720.282 1209.01> 1250 77<23.4999 252.031 252.031 423.546 337.789 1102.62>
Fore
135 1082 m 0xbc
 135 1009 170 899 309 899 c 0
 407 899 515 959 515 1072 c 0
 515 1249 375 1279 308 1279 c 0
 197 1279 135 1181 135 1082 c 0xbc
574 184 m 0
 574 118 576 73 583 73 c 2
 584 73 l 1
 663 821 913 1291 1095 1291 c 0
 1281 1291 1327 1070 1327 522 c 0
 1327 268 1318 217 1318 14 c 1
 1307 6 1293 -1 1281 -1 c 0
 1250 -1 1250 27 1250 279 c 0
 1250 376 1251 473 1251 568 c 0
 1251 917 1236 1219 1097 1219 c 0xdc
 1086 1219 1074 1217 1061 1213 c 1
 792 1015 674 294 626 21 c 1
 603 9 578 -1 557 -1 c 0
 530 -1 511 15 511 64 c 0
 511 76 l 2
 518 927 l 1
 493 867 423 837 308 837 c 0
 152 837 72 957 72 1082 c 0
 72 1172 120 1334 311 1334 c 0
 557 1334 587 1172 587 862 c 0
 587 580 574 341 574 184 c 0
EndSplineSet
EndChar
StartChar: uni0E18
Encoding: 3608 3608 256
Width: 1188
VWidth: 3622
Flags: MW
HStem: 12 59<321.243 417.069 369.156 730.974 700.659 761.289> 789 69<236.162 502.831 502.831 505 505 693.362 693.362 842.951> 971 55<951.829 1040.2> 1231 62<376.355 673.863>
VStem: 117 60<868.922 1026.69> 249 73<76 591> 877 64<87 110.5 110.5 134 134 759.935>
Fore
943 85 m 0
 943 47 911 21 877 21 c 0
 729 18 589 12 473 12 c 0
 379 12 301 16 249 28 c 1
 253 587 l 1
 258 615 274 629 289 629 c 0
 303 629 317 617 322 591 c 1
 318 76 l 1
 385 72 452 71 516 71 c 0
 665 71 798 79 874 87 c 1
 876 103 877 118 877 134 c 2
 877 446 l 2
 877 785 848 789 709 789 c 2
 699 789 l 1
 311 801 l 2
 155 807 117 810 117 891 c 0
 117 1040 271 1293 539 1293 c 0
 649 1293 830 1272 938 1068 c 0
 953 1040 970 1026 989 1026 c 0
 1073 1026 1017 1130 1074 1130 c 0
 1098 1130 1107 1114 1107 1092 c 0
 1107 1064 1084 971 992 971 c 0
 953 971 924 984 904 1009 c 2
 836 1096 l 2
 729 1232 589 1230 539 1231 c 0
 299 1231 177 984 177 902 c 0
 177 864 249 858 381 858 c 0
 448 858 530 859 626 859 c 0
 668 859 713 859 761 858 c 0
 923 858 941 813 941 449 c 2
 941 104 l 1
 942 99 943 92 943 85 c 0
EndSplineSet
EndChar
StartChar: uni0E19
Encoding: 3609 3609 257
Width: 1641
VWidth: 3622
Flags: W
HStem: -18 53<1220.82 1422.51> 390 53<1238.27 1424.75> 788 59<180.168 441.844> 1235 51<189.942 439.481>
VStem: 67 56<905.27 1164.96> 506 64<149.394 570.455 425.315 681.814 681.814 715.595 715.595 881 797.932 1082.65 999.783 1165.52> 1098 61<106.237 329.977 329.977 352 421 541.077 541.077 606.202 606.202 960.691 960.691 1258.98 1258.98 1279> 1486 49<98.6676 330.331>
Fore
67 1040 m 0
 67 1124 115 1286 308 1286 c 0
 412 1286 553 1254 570 1047 c 0
 572 1013 573 965 573 902 c 0
 573 731 570 688 570 475 c 0
 570 474 569 431 569 373 c 0
 569 255 573 75 596 75 c 1
 596 75 597 76 598 76 c 1
 800 185 822 263 1098 412 c 1
 1103 601 1106 764 1106 902 c 2
 1106 1279 l 1
 1113 1298 1124 1305 1135 1305 c 0
 1154 1305 1172 1286 1172 1264 c 0
 1172 1260 1172 1257 1171 1254 c 1
 1171 1017 1159 907 1159 660 c 0
 1159 592 1160 514 1162 421 c 1
 1216 436 1263 443 1304 443 c 0
 1477 443 1535 323 1535 221 c 0
 1535 138 1490 -18 1311 -18 c 0
 1148 -18 1098 150 1098 324 c 2
 1098 352 l 1
 1039 315 988 281 946 250 c 2
 722 84 l 2
 690 60 656 37 619 14 c 1
 608 10 596 7 583 7 c 0
 556 7 527 21 518 65 c 0
 512 162 506 246 506 411 c 0
 506 522 508 669 515 881 c 1
 490 823 404 788 316 788 c 0
 117 788 67 954 67 1040 c 0
123 1033 m 0
 123 954 160 847 315 847 c 0
 400 847 511 908 511 1026 c 0
 511 1193 385 1235 304 1235 c 0
 193 1235 123 1135 123 1033 c 0
1311 35 m 0
 1441 35 1486 161 1486 221 c 0
 1486 284 1433 390 1306 390 c 0
 1265 390 1216 379 1159 352 c 1
 1158 337 1158 322 1158 308 c 0
 1158 85 1254 35 1311 35 c 0
EndSplineSet
EndChar
StartChar: uni0E1A
Encoding: 3610 3610 258
Width: 1542
VWidth: 3622
Flags: W
HStem: -4 69<734.199 1164.08 1164.08 1201.18 1201.18 1313.92> 814 60<280.971 545.26> 1261 50<290.948 542.414>
VStem: 168 56<930.543 1189.85> 612 65<73 292.253 292.253 374.65 374.65 899.699 982.722 1188.87> 1288 67<974.344 1299.99>
Fore
168 1066 m 0
 168 1146 216 1311 409 1311 c 0
 618 1311 663 1177 670 1072 c 0
 675 1009 677 891 677 717 c 0
 677 543 674 328 667 73 c 1
 690 68 736 65 806 65 c 2
 1022 65 l 2
 1108 65 1203 66 1307 69 c 0
 1336 69 1288 1028 1288 1256 c 0
 1288 1284 1304 1300 1321 1300 c 0
 1338 1300 1355 1282 1355 1242 c 0
 1361 1030 1395 536 1395 233 c 0
 1395 154 1392 89 1387 44 c 2
 1387 39 l 2
 1387 12 1368 -1 1340 -1 c 0
 1330 -1 1319 1 1307 4 c 1
 1248 0 1130 -4 1012 -4 c 0
 869 -4 679 -1 601 21 c 1
 611 456 612 402 612 565 c 0
 612 736 616 770 616 906 c 1
 592 848 507 814 420 814 c 0
 218 814 168 980 168 1066 c 0
224 1058 m 0
 224 984 257 874 417 874 c 0
 500 874 612 933 612 1051 c 0
 612 1191 523 1261 403 1261 c 0
 295 1261 224 1161 224 1058 c 0
EndSplineSet
EndChar
StartChar: uni0E1B
Encoding: 3611 3611 259
Width: 1434
VWidth: 3622
Flags: W
HStem: -4 69<637.678 1066.11 1066.11 1100.18 1100.18 1215.77> 814 60<180.081 444.004> 1261 50<189.948 438.672>
VStem: 67 56<932.017 1190.49> 511 66<73 275.002 275.002 488.266 488.266 736.307 736.307 901.403 982.722 1190.55> 1166 76<1604.41 1780.68 1780.68 1910.99> 1217 69<44.5135 447.947>
Fore
1217 180 m 0xfa
 1217 465 1166 1690 1166 1887 c 1
 1169 1903 1186 1911 1203 1911 c 0
 1221 1911 1238 1902 1238 1884 c 0
 1238 1840 1240 1770 1242 1675 c 2xfc
 1252 1352 l 1
 1253 1351 1286 191 1286 44 c 0
 1286 20 1277 -1 1238 -1 c 0
 1228 -1 1217 0 1206 4 c 1
 1147 0 1029 -4 911 -4 c 0
 733 -4 567 2 501 21 c 1
 504 223 511 442 511 565 c 0
 511 736 515 770 515 906 c 1
 490 848 406 814 319 814 c 0
 117 814 67 980 67 1066 c 0
 67 1149 115 1311 308 1311 c 0
 413 1311 554 1279 570 1072 c 0
 575 1009 577 891 577 717 c 0
 577 543 573 328 564 73 c 1
 589 68 636 65 706 65 c 2
 923 65 l 2
 1010 65 1106 66 1210 69 c 0
 1215 69 1217 106 1217 180 c 0xfa
123 1058 m 0
 123 983 157 874 315 874 c 0
 399 874 511 933 511 1051 c 0
 511 1193 419 1261 302 1261 c 0
 194 1261 123 1161 123 1058 c 0
EndSplineSet
EndChar
StartChar: uni0E1C
Encoding: 3612 3612 260
Width: 1268
VWidth: 3622
Flags: W
HStem: 4 83<245.624 253 948.862 1045.54> 825 55<309.961 543.915> 1266 62<297.991 546.763>
VStem: 169 66<93.4409 667.308 667.308 701.829 701.829 920 825.773 1210.39> 606 62<943.167 1206.06> 1051 72<333.717 679.299 679.299 1094.27 1094.27 1265>
Fore
173 470 m 0
 173 797 169 961 169 1016 c 0
 169 1193 250 1328 426 1328 c 0
 545 1328 668 1247 668 1073 c 0
 668 944 579 825 423 825 c 0
 320 825 245 899 235 920 c 1
 241 789 242 517 242 416 c 0
 242 152 246 87 252 87 c 2
 253 87 l 1
 467 280 542 433 605 594 c 0
 612 612 636 614 643 614 c 0
 659 614 670 606 674 591 c 0
 728 436 915 87 1033 87 c 0
 1047 87 1051 143 1051 438 c 0
 1051 676 1049 819 1049 914 c 0
 1049 1029 1050 1150 1054 1275 c 1
 1058 1294 1066 1304 1080 1304 c 0
 1086 1304 1119 1299 1123 1265 c 0
 1118 414 1120 165 1098 58 c 1
 1090 41 1062 4 1040 4 c 0
 992 6 928 48 848 130 c 0
 769 212 698 333 637 493 c 1
 588 306 331 4 232 4 c 0
 176 4 173 79 173 470 c 0
241 1081 m 0
 241 953 336 880 424 880 c 0
 519 880 606 951 606 1071 c 0
 606 1227 494 1266 429 1266 c 0
 278 1266 241 1161 241 1081 c 0
EndSplineSet
EndChar
StartChar: uni0E1D
Encoding: 3613 3613 261
Width: 1278
VWidth: 3622
Flags: W
HStem: 0 83<218.136 288.48 954.321 1048.34> 825 55<309.961 543.915> 1266 62<297.991 546.763>
VStem: 173 75<87.9985 508.477 508.477 701.829 701.829 760.631 760.631 920 825.773 1210.39> 606 62<943.167 1206.06> 1063 67<588.378 1393.35 1393.35 1734.46 1734.46 1905>
Fore
173 470 m 0
 173 797 169 961 169 1016 c 0
 169 1193 250 1328 426 1328 c 0
 545 1328 668 1247 668 1073 c 0
 668 944 579 825 423 825 c 0
 320 825 245 899 235 920 c 1
 241 832 242 674 242 602 c 0
 242 539 243 477 244 415 c 2
 248 246 l 2
 248 213 251 83 256 83 c 0
 257 83 356 145 444 277 c 0
 498 358 550 463 601 594 c 0
 608 612 632 614 639 614 c 0
 655 614 666 606 670 591 c 0
 741 396 962 76 1014 76 c 0
 1053 76 1054 629 1063 1552 c 0
 1064 1683 1065 1805 1065 1916 c 1
 1069 1936 1077 1946 1090 1946 c 0
 1098 1946 1126 1940 1130 1905 c 2
 1130 1648 l 2
 1130 1395 1133 1344 1133 1141 c 0
 1133 824 1127 288 1093 80 c 0
 1088 60 1067 4 1032 4 c 0
 953 4 769 137 633 493 c 1
 585 299 333 -0 235 0 c 0
 185 0 173 61 173 470 c 0
241 1081 m 0
 241 953 336 880 424 880 c 0
 519 880 606 951 606 1071 c 0
 606 1227 494 1266 429 1266 c 0
 278 1266 241 1161 241 1081 c 0
EndSplineSet
EndChar
StartChar: uni0E1E
Encoding: 3614 3614 262
Width: 1507
VWidth: 3622
Flags: W
HStem: 7 83<1168.9 1245.55> 815 55<187.538 423.7> 1254 60<184.576 427.824>
VStem: 55 69<931.679 1193> 515 69<127.345 780.454 780.454 868.063> 1297 65<807.853 1282>
Fore
294 1314 m 0
 601 1314 584 1104 584 444 c 0
 584 176 587 111 598 111 c 1
 643 126 840 532 870 819 c 1
 875 838 886 847 906 847 c 0
 924 847 936 839 941 822 c 0
 1005 531 1139 90 1220 90 c 0
 1282 90 1297 696 1297 1282 c 1
 1302 1294 1312 1300 1328 1300 c 0
 1343 1300 1355 1294 1362 1282 c 1
 1359 865 1350 548 1334 334 c 0
 1319 118 1283 10 1228 7 c 0
 1101 7 965 463 909 677 c 1
 833 249 640 7 573 7 c 0
 511 7 515 82 515 473 c 0
 515 595 511 753 504 946 c 1
 480 845 382 815 301 815 c 0
 163 815 55 917 55 1065 c 0
 55 1207 150 1314 294 1314 c 0
308 870 m 0
 413 870 484 957 488 1061 c 0
 488 1131 459 1254 304 1254 c 0
 224 1254 124 1201 124 1065 c 0
 124 912 240 870 308 870 c 0
EndSplineSet
EndChar
StartChar: uni0E1F
Encoding: 3615 3615 263
Width: 1499
VWidth: 3622
Flags: W
HStem: 11 106<562.401 649.175> 11 90<1170.38 1238.64> 822 59<181.554 417.135> 1265 62<177.563 422.956>
VStem: 55 62<946.024 1205.52> 508 69<334.191 505 505 944.631> 1278 75<143.557 1462.73>
Fore
1278 1040 m 0x7e
 1278 1402 1264 1765 1251 1946 c 0
 1251 1969 1262 1977 1275 1977 c 0
 1292 1977 1312 1964 1314 1949 c 0
 1338 1733 1353 1349 1353 981 c 0
 1353 515 1328 18 1251 11 c 0
 1245 11 l 0x7e
 1063 11 913 610 888 706 c 1
 833 418 691 11 587 11 c 0
 526 11 511 92 511 505 c 0
 511 625 510 774 508 953 c 1
 475 847 368 822 304 822 c 0
 168 822 55 927 55 1075 c 0
 55 1214 145 1327 297 1327 c 0
 561 1327 577 1146 577 871 c 2
 577 745 l 2
 577 427 585 117 616 117 c 256xbe
 663 117 832 617 851 847 c 0
 856 872 868 884 887 884 c 0
 906 884 918 874 923 854 c 0
 951 683 1052 359 1144 186 c 0
 1174 130 1201 101 1224 101 c 0
 1250 101 1278 506 1278 1040 c 0x7e
304 881 m 256
 405 881 477 963 481 1072 c 0
 481 1153 446 1265 301 1265 c 0
 214 1265 117 1211 117 1075 c 0
 117 931 229 881 304 881 c 256
EndSplineSet
EndChar
StartChar: uni0E20
Encoding: 3616 3616 264
Width: 1386
VWidth: 3622
Flags: W
HStem: -0 47<136.734 343.92> 342 49<135.339 324.035> 1272 59<463.777 991.321>
VStem: 40 55<87.5264 302.877> 398 71<320.205 435.185 377.695 768.786> 1155 69<25 330.554 330.554 509.307 419.93 1058.59>
Fore
1236 733 m 0
 1236 591 1224 520 1224 25 c 1
 1215 13 1206 7 1199 7 c 0
 1190 7 1179 9 1155 21 c 1
 1158 274 1168 488 1168 663 c 0
 1168 1071 1113 1272 782 1272 c 0
 346 1272 194 1091 177 975 c 1
 435 895 l 2
 461 885 469 739 469 579 c 0
 469 417 461 240 456 173 c 0
 450 61 345 -0 242 -0 c 0
 140 -0 40 60 40 188 c 0
 40 265 78 391 232 391 c 0
 255 391 351 394 398 318 c 1
 403 399 405 479 405 552 c 0
 405 716 394 843 377 851 c 0
 290 897 104 915 104 960 c 0
 120 1131 343 1331 744 1331 c 0
 888 1331 1018 1302 1087 1247 c 0
 1208 1150 1236 948 1236 733 c 0
385 197 m 0
 385 234 366 342 236 342 c 0
 145 342 95 268 95 193 c 0
 95 106 161 47 246 47 c 0
 355 47 385 157 385 197 c 0
EndSplineSet
EndChar
StartChar: uni0E21
Encoding: 3617 3617 265
Width: 1282
VWidth: 3622
Flags: W
HStem: -21 49<206.44 474.593> 398 49<210.828 404.431> 794 50<206.073 466.015> 1242 47<213.75 466.906>
VStem: 100 52<82.7869 341.368 901.073 1174.99> 525 59<202.808 309.503 309.503 333 402 566.523> 539 69<849.867 884 882.66 1169.48> 1072 58<115.652 336.324 336.324 861.231 861.231 1207.26>
Fore
348 28 m 0xfd
 470 28 526 85 526 286 c 0
 526 304 526 322 525 341 c 1
 460 380 396 398 339 398 c 0
 232 398 152 332 152 215 c 0
 152 65 251 28 348 28 c 0xfd
1053 47 m 0
 1064 47 1072 158 1072 505 c 0
 1072 736 1065 996 1065 1217 c 1
 1064 1222 1064 1227 1064 1231 c 0
 1064 1258 1078 1268 1092 1268 c 0
 1101 1268 1132 1259 1137 1210 c 1
 1132 1152 1130 1070 1130 964 c 2
 1130 630 l 2
 1130 398 1128 164 1123 48 c 1
 1114 4 1086 -12 1056 -12 c 0
 1043 -12 1030 -9 1017 -4 c 1
 831 122 796 187 584 333 c 1
 584 313 l 2xfd
 584 214 570 136 542 80 c 0
 511 18 427 -21 340 -21 c 0
 186 -21 100 89 100 225 c 0
 100 320 180 447 339 447 c 0
 391 447 450 434 518 402 c 1
 539 884 l 1
 527 854 489 794 328 794 c 0
 137 794 92 965 92 1045 c 0
 92 1144 153 1289 333 1289 c 0
 553 1289 602 1135 608 1044 c 2xfb
 584 394 l 1
 822 227 846 185 1051 48 c 1
 1052 48 1052 47 1053 47 c 0
148 1036 m 0
 148 955 184 844 341 844 c 0
 425 844 543 912 543 1029 c 0
 543 1200 410 1242 325 1242 c 0
 215 1242 148 1140 148 1036 c 0
EndSplineSet
EndChar
StartChar: uni0E22
Encoding: 3618 3618 266
Width: 1261
VWidth: 3622
Flags: W
HStem: 0 48<411.235 873.874> 594 58<352 421.423 421.423 525.109> 861 52<298.906 548.671> 1279 55<284.457 545.633>
VStem: 163 47<719.767 975> 177 51<196.441 515.323 846.407 1217.4> 601 55<964.921 1186.32> 1058 58<203.495 370 370 1175.47 1175.47 1327.76>
Fore
177 310 m 0xf7
 177 466 212 568 308 633 c 1
 204 641 163 762 163 1006 c 0
 163 1168 216 1334 428 1334 c 0
 618 1328 656 1175 656 1098 c 0
 656 988 589 861 435 861 c 0
 323 861 259 912 210 975 c 1xfb
 210 712 278 652 381 652 c 0
 452 652 429 649 460 653 c 0
 479 653 518 656 554 667 c 1
 558 658 559 649 559 642 c 0
 559 615 525 601 508 601 c 2
 352 594 l 1
 251 519 228 459 228 333 c 0
 228 105 508 48 619 48 c 0
 824 48 1058 112 1058 370 c 2
 1058 1038 l 2
 1058 1150 1057 1241 1054 1311 c 0
 1054 1326 1064 1334 1085 1334 c 0
 1106 1334 1116 1327 1116 1314 c 2
 1116 373 l 2
 1108 64 863 -0 587 0 c 0
 399 0 177 114 177 310 c 0xf7
425 1279 m 0
 267 1279 234 1180 228 1093 c 0xf7
 234 949 375 913 432 913 c 0
 545 913 601 999 601 1093 c 0
 601 1147 577 1279 425 1279 c 0
EndSplineSet
EndChar
StartChar: uni0E23
Encoding: 3619 3619 267
Width: 1261
VWidth: 3622
Flags: W
HStem: 4 54<513.372 742.907> 366 59<512.242 735.999> 785 56<176.604 482.816 482.816 760.786> 957 53<939.475 1046.24> 1217 62<347.548 647.23>
VStem: 65 62<849.518 1005.3> 409 62<101.261 324.119> 819 39<294.342 522 522 656.312>
Fore
1114 1076 m 0
 1114 1043 1087 957 999 957 c 0
 960 957 930 970 908 995 c 2
 828 1082 l 2
 698 1218 561 1216 515 1217 c 0
 287 1217 127 985 127 888 c 0
 127 849 177 841 306 841 c 0
 390 841 506 844 663 844 c 0
 744 844 798 817 825 762 c 0
 852 708 865 642 865 564 c 2
 858 228 l 2
 858 49 726 4 637 4 c 0
 510 4 409 110 409 218 c 0
 409 291 466 425 623 425 c 0
 711 425 795 373 819 290 c 1
 819 383 815 452 815 522 c 0
 815 748 777 789 554 789 c 2
 260 785 l 2
 106 785 65 796 65 877 c 0
 65 1008 230 1279 515 1279 c 0
 877 1279 921 1010 996 1010 c 0
 1080 1010 1024 1116 1082 1116 c 0
 1104 1116 1114 1099 1114 1076 c 0
782 217 m 0
 782 289 721 366 626 366 c 0
 520 366 471 290 471 218 c 0
 471 130 525 58 626 58 c 0
 746 58 782 136 782 217 c 0
EndSplineSet
EndChar
StartChar: uni0E24
Encoding: 3620 3620 268
Width: 1379
VWidth: 3622
Flags: W
HStem: -1 52<407.072 588.593> 345 46<416.23 594.294> 1264 59<397.361 919.535>
VStem: 332 27<350.563 784.695> 332 61<522.664 848.033> 633 59<96.28 305.042> 1151 66<-711.146 -412.71> 1173 57<-64.4585 163.731 49.6361 774.398>
Fore
501 391 m 0xf4
 631 391 692 284 692 196 c 0
 686 133 647 -1 469 -1 c 0
 432 -1 283 38 283 196 c 0
 289 311 332 729 332 804 c 0
 332 827 330 839 325 840 c 1
 207 901 35 901 35 950 c 0
 35 1062 262 1323 640 1323 c 0
 1047 1323 1153 1165 1196 925 c 0
 1224 760 1232 541 1232 285 c 0
 1232 209 1231 128 1230 42 c 2xed
 1217 -677 l 2
 1217 -713 1184 -723 1176 -723 c 0
 1161 -723 1153 -709 1151 -681 c 0xe6
 1154 -575 1173 166 1173 377 c 0
 1173 895 1106 1075 1010 1163 c 0
 933 1233 820 1264 649 1264 c 0
 315 1264 148 1076 108 968 c 1
 377 884 l 1
 388 876 393 852 393 792 c 0xed
 393 636 366 490 359 345 c 1
 409 383 419 399 501 391 c 0xf4
485 51 m 0
 573 51 624 117 633 203 c 0
 633 288 566 345 485 345 c 0
 358 345 345 219 345 196 c 0
 345 173 359 51 485 51 c 0
EndSplineSet
EndChar
StartChar: uni0E25
Encoding: 3621 3621 269
Width: 1438
VWidth: 3622
Flags: W
HStem: 0 55<413.356 579.96> 18 76<1165.16 1214.37> 352 60<378.134 613.512> 771 55<554.012 817.036> 1279 62<507.553 914.214>
VStem: 166 59<688.124 984.9> 283 53<135.882 405.904> 653 53<105.584 278.642> 1229 61<211.349 566.477 557.115 575.839 575.839 908.984>
Fore
501 0 m 0xbf80
 472 0 305 10 287 173 c 0
 284 200 283 227 283 253 c 0
 283 541 433 826 685 826 c 0
 1081 826 1116 94 1199 94 c 0
 1219 94 1229 233 1229 503 c 0
 1229 548 1229 597 1228 649 c 0
 1219 1031 1045 1263 725 1279 c 0
 325 1279 245 949 225 709 c 0
 221 688 201 680 185 680 c 0
 166 680 166 695 166 706 c 0
 197 1245 497 1341 718 1341 c 0
 944 1341 1289 1213 1289 660 c 0
 1289 595 1290 524 1290 454 c 0
 1290 233 1281 18 1210 18 c 0x7f80
 1183 18 1139 32 1076 212 c 2
 1014 395 l 2
 896 752 756 771 692 771 c 0
 581 771 370 654 345 345 c 1
 370 392 432 412 501 412 c 0
 647 412 706 283 706 207 c 0
 706 20 544 -0 501 0 c 0xbf80
497 352 m 0
 424 352 336 307 336 210 c 0
 336 110 407 55 501 55 c 0xbf80
 582 55 653 128 653 210 c 0
 653 221 644 352 497 352 c 0
EndSplineSet
EndChar
StartChar: uni0E26
Encoding: 3622 3622 270
Width: 1376
VWidth: 3622
Flags: W
HStem: -0 50<134.569 340.927> 346 45<130.308 321.137> 1272 60<504.178 979.991>
VStem: 41 49<94.3099 279.284> 398 58<341.623 435.185 388.404 803.612> 1159 65<-702 -256.023 -256.023 -216 -216 407.346 407.346 436.677 422.011 1040.39>
Fore
742 1332 m 0
 1184 1332 1230 1072 1230 549 c 0
 1230 462 1229 367 1228 265 c 2
 1228 -2 l 2
 1228 -173 1224 -259 1224 -430 c 2
 1224 -702 l 1
 1215 -715 1206 -722 1199 -722 c 256
 1189 -722 1159 -706 1159 -706 c 1
 1159 -460 l 0
 1159 -297 1162 -216 1162 -52 c 2
 1162 193 l 2
 1165 380 1166 542 1166 678 c 0
 1166 1182 1012 1272 782 1272 c 0
 374 1272 193 1045 180 975 c 1
 428 895 l 2
 444 889 456 837 456 580 c 0
 456 417 448 335 439 173 c 0
 430 58 333 -0 237 -0 c 0
 137 0 41 52 41 207 c 0
 41 237 63 391 232 391 c 0
 255 391 351 394 398 318 c 1
 403 399 405 479 405 552 c 0
 405 716 394 843 377 851 c 0
 288 898 108 914 108 960 c 0
 116 1074 341 1332 742 1332 c 0
238 346 m 0
 160 346 90 289 90 202 c 0
 90 123 151 50 240 50 c 0
 323 50 380 118 380 197 c 0
 380 274 333 346 238 346 c 0
EndSplineSet
EndChar
StartChar: uni0E27
Encoding: 3623 3623 271
Width: 1043
VWidth: 3622
Flags: W
HStem: -4 54<560.182 772.617> 346 53<558.402 774.816> 1298 57<260.404 672.679>
VStem: 41 60<898.178 1121.98> 460 59<91.9693 308.85> 820 68<97.9437 301.307> 826 62<318 701.569 701.569 725.3 713.435 1139.24>
Fore
659 -4 m 0xfc
 540 -4 460 86 460 195 c 0
 460 271 511 399 656 399 c 0
 758 399 805 351 826 318 c 1xfa
 833 626 l 2
 835 699 837 764 837 824 c 0
 837 1073 813 1298 454 1298 c 0
 293 1298 114 1234 101 923 c 0
 98 903 81 888 66 888 c 0
 43 888 41 916 41 941 c 0
 41 1208 189 1355 456 1355 c 0
 888 1355 897 1082 897 777 c 0
 897 728 896 678 895 626 c 2
 888 193 l 2
 879 72 767 -4 659 -4 c 0xfc
820 198 m 0xfc
 820 246 782 346 660 346 c 0
 568 346 519 274 519 200 c 0
 519 118 578 50 672 50 c 0
 777 50 820 153 820 198 c 0xfc
EndSplineSet
EndChar
StartChar: uni0E28
Encoding: 3624 3624 272
Width: 1448
VWidth: 3622
Flags: W
HStem: 11 72<130.438 214.731> 432 46<542.007 735.334> 775 47<514.125 752.635> 1275 59<498.124 900.894>
VStem: 94 58<149.85 646.756 435.815 850.87> 785 48<527.356 713.397> 1210 62<11 910.375> 1418 56<1393.43 1826.62>
Fore
1182 1047 m 1
 1353 1242 1418 1472 1418 1702 c 0
 1418 1758 1414 1815 1406 1873 c 1
 1408 1886 1415 1893 1425 1893 c 0
 1432 1893 1446 1890 1459 1873 c 1
 1469 1818 1474 1761 1474 1702 c 0
 1474 1470 1403 1194 1210 999 c 1
 1253 890 1272 763 1272 394 c 2
 1272 285 l 2
 1272 19 1256 -1 1233 -1 c 0
 1221 -1 1210 7 1206 11 c 1
 1210 417 l 2
 1210 795 1185 1038 976 1190 c 0
 906 1242 806 1270 677 1275 c 0
 412 1275 164 1006 156 577 c 0
 156 520 152 406 152 292 c 0
 152 127 159 83 170 83 c 1
 228 92 351 400 387 564 c 0
 436 788 527 822 621 822 c 0
 749 822 833 753 833 633 c 0
 833 548 769 432 630 432 c 0
 601 432 566 439 525 453 c 0
 484 467 456 495 442 536 c 1
 349 228 264 11 145 11 c 0
 104 11 94 199 94 536 c 0
 94 1204 444 1334 677 1334 c 0
 980 1334 1121 1177 1182 1047 c 1
630 775 m 0
 562 775 471 732 471 633 c 0
 471 509 559 478 633 478 c 0
 720 478 785 553 785 643 c 0
 785 681 768 775 630 775 c 0
EndSplineSet
EndChar
StartChar: uni0E29
Encoding: 3625 3625 273
Width: 1528
VWidth: 3622
Flags: W
HStem: -4 69<668.561 1024.96 1024.96 1067.58 1067.58 1214.75> 459 54<907.229 1167.45 1146.32 1188.58 1188.58 1221> 569 43<882.294 994.378> 813 61<204.971 469.191> 840 52<807.913 971.36> 1261 50<214.948 466.414>
VStem: 92 56<930.562 1189.85> 536 64<73 322.545 322.545 374.65 374.65 736.307 736.307 906 631.136 1107.42 1024.02 1188.87> 743 51<635.189 827.127> 1026 45<642.924 815.173> 1213 62<1034.7 1251.5 1251.5 1283.12> 1221 74<86.3242 389.043 389.043 472 556 876.545> 1420 59<642.431 872.438 862.023 882.852>
Back
587 73 m 1
 611 67.6667 656.167 65 722.5 65 c 128
 822 65 822 65 930 65 c 0
 1012.67 65 1104.67 66.3333 1206 69 c 0
 1210.67 69 1214.17 89.6667 1216.5 131 c 128
 1218.83 172.333 1220.67 226.5 1222 293.5 c 128
 1223.33 360.5 1223.33 437.167 1222 523.5 c 128
 1220.67 609.833 1219.5 696.333 1218.5 783 c 128
 1217.5 869.667 1216.33 953.333 1215 1034 c 128
 1213.67 1114.67 1213 1185.67 1213 1247 c 1
 1211 1263.67 1213 1276.17 1219 1284.5 c 128
 1225 1292.83 1232.33 1297.5 1241 1298.5 c 128
 1249.67 1299.5 1257.5 1295.33 1264.5 1286 c 128
 1271.5 1276.67 1275 1262 1275 1242 c 0
 1277.67 1176.67 1280.67 1089.83 1284 981.5 c 128
 1287.33 873.167 1290.33 760.333 1293 643 c 128
 1295.67 525.667 1297 412.833 1297 304.5 c 128
 1297 196.167 1293.33 109.333 1286 44 c 1
 1288 19.3333 1276.33 4.66667 1251 0 c 0
 1237.67 -2.66667 1222.67 -1.33333 1206 4 c 1
 1208.67 4 1181.67 2.66667 1125 0 c 128
 1068.33 -2.66667 1001.33 -4 924 -4 c 128
 846.667 -4 770 -2.16667 694 1.5 c 128
 618 5.16667 561.667 11.6667 525 21 c 1
 527.667 140.333 530.167 243.833 532.5 331.5 c 128
 534.833 419.167 536 497 536 565 c 128
 536 633 536.5 694.167 537.5 748.5 c 128
 538.5 802.833 539 855.333 539 906 c 1
 515.667 848 449.667 817.667 341 815 c 0
 259 813 197.333 838 156 890 c 128
 114.667 942 93.3333 999.167 92 1061.5 c 128
 90.6667 1123.83 110.667 1181 152 1233 c 128
 193.333 1285 253.667 1311 333 1311 c 0
 417.667 1311 481.167 1290 523.5 1248 c 128
 565.833 1206 589.333 1147.33 594 1072 c 0
 598.667 1009.33 600.5 891 599.5 717 c 128
 598.5 543 594.333 328.333 587 73 c 1
536 1051 m 0
 536 1115.67 518 1166.33 482 1203 c 128
 446 1239.67 397.333 1259 336 1261 c 0
 280.667 1263.67 236.167 1244.33 202.5 1203 c 128
 168.833 1161.67 150.333 1116.83 147 1068.5 c 128
 143.667 1020.17 157 975.667 187 935 c 128
 217 894.333 268.333 874 341 874 c 0
 388.333 874 432.667 890.167 474 922.5 c 128
 515.333 954.833 536 997.667 536 1051 c 0
953 577 m 0
 928.333 568.333 909 567 895 573 c 1
 885.667 575.667 879.667 579.333 877 584 c 1
 901 561.333 937.167 543 985.5 529 c 128
 1033.83 515 1082 510.333 1130 515 c 0
 1166.67 517 1202.33 522.833 1237 532.5 c 128
 1271.67 542.167 1303 559 1331 583 c 128
 1359 607 1380.83 641.5 1396.5 686.5 c 128
 1412.17 731.5 1420 788.667 1420 858 c 1
 1415.33 875.333 1424 885.833 1446 889.5 c 128
 1468 893.167 1479 882.667 1479 858 c 0
 1479 604.667 1362.67 472 1130 460 c 0
 1084 457.333 1038 460.833 992 470.5 c 128
 946 480.167 904.5 496.5 867.5 519.5 c 128
 830.5 542.5 800.5 571.667 777.5 607 c 128
 754.5 642.333 743 685.333 743 736 c 0
 743 784 759.833 821.833 793.5 849.5 c 128
 827.167 877.167 861 891 895 891 c 0
 943.667 896.333 984.667 883.333 1018 852 c 128
 1051.33 820.667 1069.33 784.333 1072 743 c 0
 1074 709 1064.83 676.333 1044.5 645 c 128
 1024.17 613.667 993.667 591 953 577 c 0
888 840 m 0
 860.667 840 838.167 830.833 820.5 812.5 c 128
 802.833 794.167 794 768.667 794 736 c 0
 794 687.333 806.667 654.5 832 637.5 c 128
 857.333 620.5 878.333 612 895 612 c 0
 933.667 612 965.667 625.333 991 652 c 128
 1016.33 678.667 1028 706.667 1026 736 c 0
 1023.33 774.667 1007.83 801.667 979.5 817 c 128
 951.167 832.333 920.667 840 888 840 c 0
EndSplineSet
Fore
1026 736 m 0xefc8
 1026 819 938 840 888 840 c 0
 832 840 794 801 794 736 c 0
 794 614 893 612 895 612 c 0
 978 612 1026 677 1026 736 c 0xefc8
148 1058 m 0
 148 984 181 874 341 874 c 0xf7c8
 424 874 536 933 536 1051 c 0
 536 1191 447 1261 327 1261 c 0
 219 1261 148 1161 148 1058 c 0
1294 556 m 1
 1391 615 1420 726 1420 858 c 1
 1419 861 1419 864 1419 866 c 0
 1419 885 1442 890 1454 890 c 0
 1471 890 1479 879 1479 858 c 0
 1479 653 1401 547 1295 497 c 1
 1296 428 1297 363 1297 304 c 0
 1297 196 1293 109 1286 44 c 2
 1286 39 l 2
 1286 12 1265 -1 1238 -1 c 0
 1228 -1 1217 0 1206 4 c 1
 1125 0 l 2
 1068 -3 1001 -4 924 -4 c 0
 838 -4 616 -2 525 21 c 1
 535 456 536 402 536 565 c 0
 536 736 539 770 539 906 c 1
 516 848 431 813 344 813 c 0xf7d8
 142 813 92 981 92 1066 c 0
 92 1146 140 1311 333 1311 c 0
 542 1311 587 1177 594 1072 c 0
 598 1012 600 917 600 807 c 0
 600 549 591 213 587 73 c 1
 611 68 656 65 722 65 c 2
 930 65 l 2
 1013 65 1105 66 1206 69 c 0
 1212 69 1221 93 1221 424 c 0
 1221 472 l 1
 1182 463 1142 459 1101 459 c 0
 936 459 743 539 743 736 c 0
 743 818 803 892 915 892 c 0
 1011 892 1071 812 1071 731 c 0
 1071 616 958 569 915 569 c 0
 907 569 883 573 877 584 c 1
 924 540 1014 513 1107 513 c 0
 1150 513 1188 518 1221 526 c 1xefd8
 1219 815 1213 1095 1213 1247 c 0
 1213 1250 1212 1253 1212 1256 c 0
 1212 1283 1228 1299 1243 1299 c 0
 1259 1299 1275 1282 1275 1242 c 0xefe8
 1280 1107 1290 818 1294 556 c 1
EndSplineSet
EndChar
StartChar: uni0E2A
Encoding: 3626 3626 274
Width: 1538
VWidth: 3622
Flags: W
HStem: 0 62<478.672 642.491> 18 83<1221 1284.79> 359 62<480.049 674.908> 775 58<627.121 874.722> 1289 59<552.165 972.643>
VStem: 357 52<103.954 193.685 193.685 318.05> 715 53<109.302 288.549> 1270 67<210.735 562.977 562.977 656 656 947.437>
Fore
1590 1831 m 0x7f
 1590 1756 1482 1294 1190 1174 c 1
 1283 1076 1334 877 1334 667 c 0
 1334 604 1337 583 1337 456 c 256
 1337 163 1312 18 1258 18 c 0x7f
 1205 18 1170 79 1126 214 c 2
 1066 397 l 2
 953 757 816 775 754 775 c 0
 686 775 469 709 416 352 c 1
 447 405 514 421 568 421 c 0
 703 421 768 298 768 214 c 0
 768 24 605 -0 568 0 c 0xbf
 518 0 471 13 427 40 c 0
 383 67 361 113 361 180 c 1
 358 193 357 202 357 207 c 2
 357 242 l 2
 357 577 526 833 748 833 c 0
 1049 833 1136 383 1207 156 c 0
 1218 119 1232 101 1247 101 c 0
 1268 101 1270 467 1270 508 c 2
 1270 656 l 2
 1270 1152 991 1281 789 1289 c 0
 235 1289 278 768 236 744 c 0
 229 741 223 739 216 739 c 0
 196 739 186 747 186 764 c 0
 186 1186 491 1348 778 1348 c 0
 894 1348 1035 1317 1144 1224 c 1
 1217 1250 1320 1312 1434 1558 c 0
 1534 1767 1518 1870 1570 1870 c 0
 1585 1870 1590 1855 1590 1831 c 0x7f
564 359 m 0
 497 359 409 315 409 218 c 0
 409 118 475 62 568 62 c 0xbf
 651 62 715 137 715 218 c 0
 715 231 703 359 564 359 c 0
EndSplineSet
EndChar
